<svg width="167" height="40" viewBox="0 0 167 40" fill="none" xmlns="http://www.w3.org/2000/svg">
<path d="M30.8321 19.0885C27.3616 16.7251 22.9208 17.6891 20.5896 21.2422C18.641 24.2105 15.7019 24.5775 14.5625 24.5775C10.8545 24.5775 8.31397 21.9641 7.56108 19.2579C7.55705 19.2297 7.549 19.2095 7.54095 19.1813C7.5329 19.1531 7.52484 19.1208 7.51679 19.0885C7.21886 17.9593 7.14639 17.4229 7.14639 16.221C7.14639 9.75197 13.7734 2.5489 23.3153 2.5489C32.8573 2.5489 38.6791 10.002 40.1164 14.144C40.0922 14.0714 40.0721 13.9988 40.0439 13.9262C37.2739 5.82375 29.6042 0 20.5776 0C9.21179 0 0 9.22767 0 20.613C0 30.7885 7.32756 39.4999 17.4895 39.4999C25.5941 39.4999 31.0415 34.9466 33.5417 28.6751C34.9146 25.243 33.9403 21.2099 30.8321 19.0926V19.0885Z" fill="#003964"/>
<path d="M40.2453 14.5471C39.0455 10.506 33.413 2.55273 23.3154 2.55273C13.7735 2.55273 7.14648 9.7558 7.14648 16.2248C7.14648 17.4227 7.21895 17.9631 7.51689 19.0924C7.39208 18.6003 7.32766 18.1043 7.32766 17.6203C7.32766 10.8851 14.0594 6.21476 20.9843 6.21476C30.3531 6.21476 37.9504 13.8252 37.9504 23.2101C37.9504 30.5705 33.723 36.9387 27.5831 39.9958C35.5025 37.1283 41.1552 29.534 41.1552 20.6128C41.1552 18.4995 40.8734 16.6403 40.2494 14.5471H40.2453Z" fill="#ED1A3B"/>
<path d="M55.794 34.3966L53.334 29.077V34.3966H52.251V27.8711H53.8574L56.3174 33.2068V27.8711H57.4004V34.3966H55.794Z" fill="#58595B"/>
<path d="M60.682 31.3725H61.7851C61.7851 31.0659 61.6684 30.8361 61.4308 30.6828C61.1933 30.5295 60.8511 30.4529 60.4042 30.4529H60.376C59.9532 30.4529 59.5023 30.5537 59.0312 30.7514L58.7615 29.9165C59.2527 29.7028 59.7962 29.5939 60.388 29.5898H60.4082C61.1933 29.5898 61.7972 29.7431 62.2159 30.0456C62.6346 30.3481 62.848 30.832 62.848 31.4935V34.3973H61.8375V33.881C61.6361 34.0827 61.3946 34.2359 61.1047 34.3448C60.8148 34.4537 60.5209 34.5102 60.223 34.5102C59.6633 34.5102 59.2084 34.361 58.8621 34.0666C58.5159 33.7681 58.3428 33.4051 58.3428 32.9736C58.3428 32.4937 58.5602 32.0984 58.987 31.7838C59.3855 31.5096 59.9532 31.3725 60.686 31.3725H60.682ZM60.3921 33.6673C60.6659 33.6673 60.9396 33.5987 61.2054 33.4656C61.4751 33.3325 61.6684 33.1752 61.7851 33.0018V32.2073H60.843C60.3075 32.2073 59.9331 32.2759 59.7197 32.413C59.5144 32.5703 59.4097 32.7558 59.4097 32.9736C59.4097 33.1752 59.4983 33.3406 59.6714 33.4697C59.8445 33.5987 60.0861 33.6673 60.3921 33.6673Z" fill="#58595B"/>
<path d="M65.4368 28.1974V29.7058H66.4555V30.5688H65.4368V32.9564C65.4368 33.1823 65.4892 33.3355 65.6019 33.4202C65.7106 33.5049 65.8636 33.5452 66.0649 33.5452H66.4555V34.3962H65.8113C65.308 34.3962 64.9376 34.2833 64.7081 34.0574C64.4786 33.8316 64.3619 33.5009 64.3619 33.0572V30.5648H63.5566V29.7017H64.3619V28.1934H65.4368V28.1974Z" fill="#58595B"/>
<path d="M68.5769 28.2423C68.5769 28.4157 68.5085 28.573 68.3756 28.7061C68.2427 28.8392 68.0817 28.9077 67.8925 28.9077C67.7032 28.9077 67.5462 28.8392 67.4093 28.7061C67.2765 28.573 67.208 28.4157 67.208 28.2423C67.208 28.0567 67.2765 27.8954 67.4093 27.7583C67.5422 27.6252 67.7032 27.5566 67.8925 27.5566C68.0817 27.5566 68.2387 27.6252 68.3756 27.7583C68.5125 27.8914 68.5769 28.0527 68.5769 28.2423ZM67.3691 34.3967V29.7063H68.436V34.3967H67.3691Z" fill="#58595B"/>
<path d="M71.8823 34.5099C71.1979 34.5099 70.6141 34.272 70.131 33.8041C69.6478 33.3323 69.4062 32.7515 69.4062 32.0578C69.4062 31.3641 69.6478 30.7793 70.131 30.3075C70.6141 29.8316 71.1979 29.5977 71.8823 29.5977C72.5668 29.5977 73.1586 29.8356 73.6417 30.3075C74.1209 30.7834 74.3624 31.3641 74.3624 32.0578C74.3624 32.7515 74.1209 33.3323 73.6417 33.8041C73.1626 34.276 72.5748 34.5099 71.8823 34.5099ZM71.8823 33.6267C72.2688 33.6267 72.599 33.4775 72.8768 33.1831C73.1546 32.8886 73.2915 32.5095 73.2915 32.0538C73.2915 31.5981 73.1546 31.227 72.8768 30.9245C72.599 30.6221 72.2688 30.4688 71.8823 30.4688C71.4958 30.4688 71.1737 30.6221 70.8959 30.9245C70.6181 31.227 70.4812 31.6021 70.4812 32.0538C70.4812 32.5055 70.6181 32.8846 70.8959 33.1831C71.1737 33.4815 71.5039 33.6267 71.8823 33.6267Z" fill="#58595B"/>
<path d="M76.3312 32.0377V34.397H75.2764V29.7066H76.295V30.3357C76.4198 30.1179 76.601 29.9405 76.8385 29.8033C77.0761 29.6662 77.3297 29.5977 77.6075 29.5977C78.1631 29.5977 78.606 29.7872 78.9402 30.1663C79.2743 30.5454 79.4394 31.0496 79.4394 31.6787V34.4051H78.3725V31.953C78.3725 31.4529 78.2919 31.0818 78.1309 30.8439C77.9698 30.6019 77.7202 30.4849 77.382 30.4849C77.2089 30.4849 77.0398 30.5414 76.8747 30.6584C76.7097 30.7753 76.5849 30.9326 76.4963 31.1302C76.3916 31.3601 76.3352 31.6666 76.3352 32.0498L76.3312 32.0377Z" fill="#58595B"/>
<path d="M82.6888 31.3725H83.7919C83.7919 31.0659 83.6752 30.8361 83.4377 30.6828C83.2001 30.5295 82.8579 30.4529 82.411 30.4529H82.3828C81.9601 30.4529 81.5091 30.5537 81.0381 30.7514L80.7683 29.9165C81.2595 29.7028 81.803 29.5939 82.3949 29.5898H82.415C83.2001 29.5898 83.804 29.7431 84.2227 30.0456C84.6455 30.3481 84.8548 30.832 84.8548 31.4935V34.3973H83.8443V33.881C83.643 34.0827 83.4014 34.2359 83.1115 34.3448C82.8216 34.4537 82.5277 34.5102 82.2298 34.5102C81.6702 34.5102 81.2152 34.361 80.869 34.0666C80.5227 33.7681 80.3496 33.4051 80.3496 32.9736C80.3496 32.4937 80.567 32.0984 80.9938 31.7838C81.3924 31.5096 81.9601 31.3725 82.6928 31.3725H82.6888ZM82.3989 33.6673C82.6727 33.6673 82.9424 33.5987 83.2122 33.4656C83.4819 33.3325 83.6752 33.1752 83.7919 33.0018V32.2073H82.8498C82.3144 32.2073 81.9399 32.2759 81.7265 32.413C81.5212 32.5703 81.4165 32.7558 81.4165 32.9736C81.4165 33.1752 81.5051 33.3406 81.6782 33.4697C81.8514 33.5987 82.0929 33.6673 82.3989 33.6673Z" fill="#58595B"/>
<path d="M86.0781 34.3965V27.4395H87.133V34.3965H86.0781Z" fill="#58595B"/>
<path d="M97.7339 27.8672V34.3927H96.6871V29.1376L94.984 34.3927H93.9735L92.2704 29.1376V34.3927H91.2236V27.8672H92.8301L94.4767 32.9529L96.1234 27.8672H97.7299H97.7339Z" fill="#58595B"/>
<path d="M102.094 32.0664V29.707H103.161V34.3975H102.142V33.7804C102.009 34.0103 101.836 34.1878 101.619 34.3047C101.361 34.4419 101.1 34.5104 100.826 34.5104C100.278 34.5104 99.8354 34.3249 99.5012 33.9498C99.167 33.5747 99.002 33.0706 99.002 32.4334V29.707H100.057V32.1712C100.057 32.6633 100.141 33.0303 100.306 33.2723C100.471 33.5142 100.721 33.6312 101.059 33.6312C101.228 33.6312 101.398 33.5747 101.563 33.4578C101.732 33.3408 101.861 33.1876 101.945 32.994C102.046 32.7641 102.094 32.4536 102.094 32.0664Z" fill="#58595B"/>
<path d="M103.963 33.5259L104.627 32.8402C104.816 33.0943 105.022 33.296 105.243 33.4412C105.461 33.5743 105.694 33.6388 105.944 33.6388C106.181 33.6388 106.383 33.5904 106.548 33.4936C106.713 33.3968 106.797 33.2677 106.797 33.1064C106.797 32.9451 106.717 32.816 106.56 32.7273C106.403 32.6386 106.214 32.5499 105.992 32.4692C105.738 32.3885 105.473 32.2958 105.207 32.199C104.845 32.0699 104.583 31.9005 104.414 31.6949C104.245 31.4892 104.16 31.2552 104.16 30.9931C104.16 30.6059 104.341 30.2752 104.704 30.005C105.066 29.7348 105.493 29.5977 105.984 29.5977C106.507 29.5977 106.934 29.7227 107.264 29.9727C107.433 30.1058 107.566 30.2671 107.667 30.4607L107.015 31.098C106.926 30.9487 106.825 30.8277 106.705 30.7309C106.499 30.5495 106.242 30.4607 105.928 30.4607C105.746 30.4607 105.589 30.5051 105.457 30.5979C105.324 30.6906 105.255 30.7955 105.255 30.9205C105.255 31.0576 105.332 31.1746 105.481 31.2673C105.63 31.3601 105.851 31.4529 106.145 31.5376C106.25 31.5698 106.371 31.6061 106.511 31.6505C106.966 31.7997 107.313 31.9933 107.546 32.2313C107.78 32.4692 107.896 32.7515 107.896 33.0822C107.896 33.4694 107.711 33.8041 107.337 34.0905C106.962 34.3728 106.487 34.518 105.908 34.518C105.42 34.518 104.99 34.4051 104.619 34.1792C104.37 34.03 104.156 33.8122 103.975 33.5339L103.963 33.5259Z" fill="#58595B"/>
<path d="M109.515 32.522C109.579 32.8084 109.712 33.0423 109.917 33.2238C110.215 33.498 110.614 33.6351 111.105 33.6351C111.62 33.6351 112.103 33.4456 112.554 33.0624L112.872 33.8489C112.369 34.2845 111.769 34.5023 111.077 34.5023C110.288 34.5023 109.643 34.2764 109.148 33.8287C108.653 33.377 108.403 32.7882 108.403 32.0582C108.403 31.3282 108.625 30.7475 109.064 30.2837C109.502 29.8199 110.078 29.5859 110.787 29.5859C111.495 29.5859 112.055 29.8158 112.502 30.2796C112.949 30.7394 113.17 31.3121 113.17 31.9937C113.17 32.1832 113.154 32.3567 113.122 32.518H109.515V32.522ZM109.498 31.6791H112.099C112.087 31.3726 111.958 31.0943 111.717 30.8402C111.475 30.5861 111.165 30.4611 110.791 30.4611C110.416 30.4611 110.086 30.5982 109.837 30.8725C109.655 31.0782 109.543 31.3484 109.498 31.6791Z" fill="#58595B"/>
<path d="M117.168 32.0664V29.707H118.235V34.3975H117.217V33.7804C117.084 34.0103 116.911 34.1878 116.693 34.3047C116.435 34.4419 116.174 34.5104 115.9 34.5104C115.352 34.5104 114.91 34.3249 114.575 33.9498C114.241 33.5747 114.076 33.0706 114.076 32.4334V29.707H115.131V32.1712C115.131 32.6633 115.216 33.0303 115.381 33.2723C115.546 33.5142 115.795 33.6312 116.134 33.6312C116.303 33.6312 116.472 33.5747 116.637 33.4578C116.806 33.3408 116.935 33.1876 117.019 32.994C117.12 32.7641 117.168 32.4536 117.168 32.0664Z" fill="#58595B"/>
<path d="M124.44 29.5938C124.987 29.5938 125.414 29.7833 125.72 30.1624C126.026 30.5415 126.179 31.0457 126.179 31.6748V34.4012H125.132V31.9491C125.132 31.449 125.064 31.0779 124.931 30.84C124.798 30.598 124.577 30.481 124.271 30.481C124.09 30.481 123.933 30.5335 123.8 30.6343C123.667 30.7351 123.558 30.8884 123.478 31.086C123.389 31.2917 123.349 31.578 123.349 31.9491V34.4012H122.302V31.9491C122.302 31.449 122.234 31.0779 122.097 30.84C121.96 30.598 121.742 30.481 121.444 30.481C121.263 30.481 121.11 30.5335 120.981 30.6343C120.853 30.7351 120.748 30.8884 120.659 31.086C120.567 31.3159 120.518 31.6224 120.518 32.0055V31.9975V34.4052H119.472V29.7147H120.462V30.3439C120.724 29.8519 121.13 29.6059 121.678 29.6059C122.262 29.6059 122.693 29.8882 122.966 30.4568C123.127 30.1745 123.325 29.9648 123.55 29.8196C123.776 29.6744 124.074 29.6059 124.444 29.6059L124.44 29.5938Z" fill="#58595B"/>
<path d="M132.254 34.5099C131.57 34.5099 130.986 34.272 130.503 33.8041C130.02 33.3323 129.778 32.7515 129.778 32.0578C129.778 31.3641 130.02 30.7793 130.503 30.3075C130.986 29.8316 131.57 29.5977 132.254 29.5977C132.939 29.5977 133.531 29.8356 134.014 30.3075C134.493 30.7834 134.734 31.3641 134.734 32.0578C134.734 32.7515 134.493 33.3323 134.014 33.8041C133.535 34.276 132.947 34.5099 132.254 34.5099ZM132.254 33.6267C132.641 33.6267 132.971 33.4775 133.249 33.1831C133.527 32.8886 133.664 32.5095 133.664 32.0538C133.664 31.5981 133.527 31.227 133.249 30.9245C132.971 30.6221 132.641 30.4688 132.254 30.4688C131.868 30.4688 131.546 30.6221 131.268 30.9245C130.99 31.227 130.853 31.6021 130.853 32.0538C130.853 32.5055 130.994 32.8846 131.268 33.1831C131.546 33.4815 131.876 33.6267 132.254 33.6267Z" fill="#58595B"/>
<path d="M135.886 28.7667C135.886 28.3231 136.007 27.9883 136.257 27.7665C136.502 27.5407 136.877 27.4277 137.384 27.4277H137.899V28.2787H137.589C137.388 28.2787 137.235 28.319 137.126 28.4037C137.018 28.4884 136.961 28.6417 136.961 28.8675V29.7024H137.895V30.5655H136.961V34.3969H135.886V30.5655H135.081V29.7024H135.886V28.7667Z" fill="#58595B"/>
<path d="M142.682 30.904L145.391 27.8711H146.708L143.801 31.1096L146.7 34.3966H145.343L142.678 31.3637V34.3966H141.595V27.8711H142.678V30.904H142.682Z" fill="#58595B"/>
<path d="M149.072 34.5099C148.387 34.5099 147.804 34.272 147.32 33.8041C146.837 33.3323 146.596 32.7515 146.596 32.0578C146.596 31.3641 146.837 30.7793 147.32 30.3075C147.804 29.8316 148.387 29.5977 149.072 29.5977C149.756 29.5977 150.348 29.8356 150.827 30.3075C151.306 30.7834 151.548 31.3641 151.548 32.0578C151.548 32.7515 151.306 33.3323 150.827 33.8041C150.348 34.276 149.76 34.5099 149.072 34.5099ZM149.072 33.6267C149.458 33.6267 149.788 33.4775 150.066 33.1831C150.344 32.8886 150.481 32.5095 150.481 32.0538C150.481 31.5981 150.344 31.227 150.066 30.9245C149.788 30.6221 149.458 30.4688 149.072 30.4688C148.685 30.4688 148.363 30.6221 148.085 30.9245C147.808 31.227 147.671 31.6021 147.671 32.0538C147.671 32.5055 147.812 32.8846 148.085 33.1831C148.363 33.4815 148.693 33.6267 149.072 33.6267Z" fill="#58595B"/>
<path d="M152.466 34.3978V29.7074H153.464V30.4091C153.621 30.1792 153.811 30.0018 154.036 29.8767C154.306 29.7154 154.62 29.6348 154.978 29.6348H155.055V30.5906H154.942C154.499 30.5906 154.149 30.7237 153.887 30.9939C153.645 31.2561 153.521 31.6674 153.521 32.22V34.4019H152.466V34.3978Z" fill="#58595B"/>
<path d="M156.5 32.522C156.564 32.8084 156.697 33.0423 156.902 33.2238C157.2 33.498 157.599 33.6351 158.09 33.6351C158.606 33.6351 159.089 33.4456 159.54 33.0624L159.858 33.8489C159.354 34.2845 158.755 34.5023 158.062 34.5023C157.273 34.5023 156.629 34.2764 156.133 33.8287C155.638 33.377 155.389 32.7882 155.389 32.0582C155.389 31.3282 155.61 30.7475 156.049 30.2837C156.488 29.8199 157.064 29.5859 157.772 29.5859C158.481 29.5859 159.04 29.8158 159.487 30.2796C159.934 30.7394 160.156 31.3121 160.156 31.9937C160.156 32.1832 160.14 32.3567 160.107 32.518H156.5V32.522ZM156.484 31.6791H159.085C159.073 31.3726 158.944 31.0943 158.702 30.8402C158.461 30.5861 158.151 30.4611 157.776 30.4611C157.402 30.4611 157.072 30.5982 156.822 30.8725C156.641 31.0782 156.528 31.3484 156.484 31.6791Z" fill="#58595B"/>
<path d="M163.078 31.3725H164.182C164.182 31.0659 164.065 30.8361 163.827 30.6828C163.59 30.5295 163.248 30.4529 162.801 30.4529H162.772C162.35 30.4529 161.899 30.5537 161.428 30.7514L161.158 29.9165C161.649 29.7028 162.193 29.5939 162.785 29.5898H162.805C163.59 29.5898 164.194 29.7431 164.612 30.0456C165.031 30.3481 165.245 30.832 165.245 31.4935V34.3973H164.234V33.881C164.033 34.0827 163.791 34.2359 163.501 34.3448C163.211 34.4537 162.917 34.5102 162.619 34.5102C162.06 34.5102 161.605 34.361 161.259 34.0666C160.912 33.7681 160.739 33.4051 160.739 32.9736C160.739 32.4937 160.957 32.0984 161.383 31.7838C161.782 31.5096 162.35 31.3725 163.082 31.3725H163.078ZM162.789 33.6673C163.062 33.6673 163.336 33.5987 163.602 33.4656C163.872 33.3325 164.061 33.1752 164.182 33.0018V32.2073H163.235C162.7 32.2073 162.326 32.2759 162.112 32.413C161.907 32.5703 161.802 32.7558 161.802 32.9736C161.802 33.1752 161.891 33.3406 162.064 33.4697C162.237 33.5987 162.479 33.6673 162.785 33.6673H162.789Z" fill="#58595B"/>
<path d="M57.7793 17.0428V14.7157H51.4502V12.9613H66.1134V14.7157H59.7642V17.0428H64.9337V22.6125H62.9488V18.7811H52.4527V17.0428H57.7833H57.7793ZM64.8935 6.92383V11.6869H62.9086V8.67821H52.5896V6.92383H64.8935Z" fill="#58595B"/>
<path d="M77.3381 15.2162H68.7383V10.3443H75.1922V8.75119H68.7383V7.0694H77.161V11.9575H70.7071V13.5707H77.3421V15.2202L77.3381 15.2162ZM69.6321 16.0591H71.5807V17.386H80.1806V16.0591H82.1292V22.2579H69.6281V16.0591H69.6321ZM80.1846 18.9952H71.5848V20.6084H80.1846V18.9952ZM80.1483 6.60156H82.1332V15.5227H80.1483V6.60156Z" fill="#58595B"/>
<path d="M91.1797 15.9862V15.0182H84.8506V13.3163H99.5138V15.0182H93.1645V15.9862C93.3659 16.0346 93.5591 16.0951 93.7363 16.1636C94.2234 16.3653 94.6462 16.6355 95.0045 16.9702C95.3628 17.305 95.6487 17.6962 95.8621 18.1439C96.0754 18.5915 96.1841 19.0715 96.1841 19.5877C96.1841 20.1039 96.0754 20.5839 95.8621 21.0315C95.6487 21.4792 95.3628 21.8704 95.0045 22.2052C94.6462 22.5399 94.2234 22.8061 93.7363 23.0037C93.2491 23.2013 92.7297 23.2981 92.1781 23.2981C91.6266 23.2981 91.1112 23.2013 90.6241 23.0037C90.1369 22.8061 89.7101 22.5399 89.3558 22.2052C88.9975 21.8704 88.7116 21.4792 88.4983 21.0315C88.2849 20.5839 88.1762 20.1039 88.1762 19.5877C88.1762 19.0715 88.2849 18.5956 88.4983 18.1439C88.7116 17.6962 88.9975 17.305 89.3558 16.9702C89.7142 16.6355 90.1369 16.3693 90.6241 16.1636C90.8012 16.091 90.9864 16.0305 91.1797 15.9862ZM98.475 8.48062H93.0921L98.777 11.4893L97.8671 12.9573L92.1822 9.92849L86.4771 12.9573L85.5833 11.4893L91.2682 8.48062H85.8853V6.79883H98.475V8.48062ZM94.2395 19.5877C94.2395 19.0392 94.0342 18.5633 93.6235 18.164C93.2129 17.7647 92.7338 17.5631 92.1822 17.5631C91.6306 17.5631 91.1555 17.7647 90.7448 18.164C90.3342 18.5633 90.1288 19.0392 90.1288 19.5877C90.1288 20.1362 90.3342 20.6121 90.7448 21.0114C91.1555 21.4106 91.6346 21.6123 92.1822 21.6123C92.7297 21.6123 93.2088 21.4106 93.6235 21.0114C94.0342 20.6121 94.2395 20.1362 94.2395 19.5877Z" fill="#58595B"/>
<path d="M109.974 10.7718C109.974 11.3445 109.857 11.8768 109.624 12.3648C109.39 12.8528 109.084 13.2844 108.702 13.6554C108.307 14.0264 107.852 14.3168 107.333 14.5346C106.814 14.7484 106.262 14.8573 105.678 14.8573C105.094 14.8573 104.543 14.7484 104.023 14.5346C103.504 14.3209 103.049 14.0264 102.655 13.6554C102.26 13.2844 101.95 12.8569 101.716 12.3648C101.483 11.8768 101.366 11.3445 101.366 10.7718C101.366 10.1991 101.483 9.68283 101.716 9.18676C101.95 8.69069 102.264 8.26319 102.655 7.90828C103.049 7.53723 103.504 7.24685 104.023 7.02907C104.543 6.81532 105.094 6.70642 105.678 6.70642C106.262 6.70642 106.814 6.81532 107.333 7.02907C107.852 7.24282 108.307 7.53723 108.702 7.90828C109.084 8.26722 109.39 8.69473 109.624 9.18676C109.857 9.68283 109.974 10.2112 109.974 10.7718ZM108.062 10.7919C108.062 10.1345 107.828 9.57394 107.365 9.11013C106.902 8.6423 106.338 8.41241 105.686 8.41241C105.034 8.41241 104.458 8.64633 104.003 9.11013C103.552 9.57394 103.323 10.1386 103.323 10.7919C103.323 11.4453 103.548 12.026 104.003 12.4858C104.458 12.9456 105.018 13.1755 105.686 13.1755C106.355 13.1755 106.902 12.9456 107.365 12.4858C107.832 12.026 108.062 11.4614 108.062 10.7919ZM113.767 19.0839C113.767 19.6324 113.654 20.1486 113.429 20.6326C113.203 21.1166 112.905 21.536 112.535 21.895C112.14 22.266 111.693 22.5564 111.186 22.7742C110.679 22.9879 110.135 23.0968 109.551 23.0968C108.968 23.0968 108.42 22.9879 107.905 22.7742C107.393 22.5604 106.938 22.266 106.544 21.895C106.161 21.536 105.859 21.1166 105.634 20.6326C105.408 20.1486 105.296 19.6324 105.296 19.0839C105.296 18.5354 105.408 18.0152 105.634 17.5272C105.859 17.0392 106.165 16.6197 106.544 16.2729C106.938 15.9018 107.389 15.6114 107.905 15.3937C108.416 15.1799 108.964 15.071 109.551 15.071C110.139 15.071 110.679 15.1799 111.186 15.3937C111.693 15.6074 112.144 15.9018 112.535 16.2729C112.905 16.6197 113.203 17.0351 113.429 17.5272C113.654 18.0152 113.767 18.5354 113.767 19.0839ZM111.834 19.0678C111.834 18.4467 111.609 17.9103 111.154 17.4546C110.703 17.0029 110.159 16.773 109.527 16.773C108.895 16.773 108.356 16.9988 107.909 17.4546C107.462 17.9103 107.236 18.4467 107.236 19.0678C107.236 19.6889 107.458 20.2374 107.909 20.681C108.356 21.1206 108.895 21.3424 109.527 21.3424C110.159 21.3424 110.703 21.1206 111.154 20.681C111.605 20.2374 111.834 19.701 111.834 19.0678ZM114.479 15.075H112.511V6.60156H114.479V9.80785H116.77V11.78H114.479V15.075Z" fill="#58595B"/>
<path d="M118.324 6.94034H120.289V9.1424H124.69V6.94034H126.622V15.0024H118.324V6.94034ZM118.63 16.5229H131.184V22.4354H129.215V18.2813H118.63V16.5269V16.5229ZM124.69 10.8645H120.289V13.3368H124.69V10.8645ZM131.184 15.5751H129.215V6.60156H131.184V9.94901H133.475V11.9212H131.184V15.5751Z" fill="#58595B"/>
<path d="M141.285 15.6635V14.5544H134.956V12.9251H149.619V14.5544H143.27V15.6635H148.44V19.7127H138.084V20.6807H148.653V22.31H136.136V18.156H146.471V17.2445H136.136V15.6676H141.285V15.6635ZM136.136 6.79883H148.44V11.8684H136.136V6.79883ZM146.471 8.40802H138.084V10.2713H146.471V8.40802Z" fill="#58595B"/>
<path d="M161.758 14.4299V16.1681H151.407V14.4299H154.644V10.8646H156.613V14.4299H161.762H161.758ZM158.916 12.9054V8.65856H152.12V6.9203H160.865V12.9013H158.916V12.9054ZM152.531 22.3105V17.5111H154.515V20.5561H165.245V22.3105H152.531ZM164.959 17.0957H162.974V6.59766H164.959V10.8969H166.996V12.7078H164.959V17.0957Z" fill="#58595B"/>
</svg>
