<svg width="121" height="40" viewBox="0 0 121 40" fill="none" xmlns="http://www.w3.org/2000/svg">
<g clip-path="url(#clip0_131_7)">
<path d="M52.7906 22.129C52.7906 22.6416 52.6816 23.12 52.4636 23.5642C52.2457 24.0084 51.9324 24.3911 51.5374 24.7191C51.1424 25.0472 50.6656 25.3069 50.1071 25.4914C49.5486 25.6759 48.9357 25.7648 48.2682 25.7648C47.6008 25.7648 46.981 25.6691 46.4293 25.4777C45.8708 25.2864 45.3941 25.0335 44.999 24.7055C44.604 24.3774 44.2907 23.9947 44.0728 23.5573C43.8548 23.1131 43.7459 22.6347 43.7459 22.1222C43.7459 21.6916 43.8276 21.2884 43.9842 20.8989C44.1409 20.5162 44.3725 20.1676 44.6653 19.8601C44.9582 19.5526 45.3123 19.2929 45.721 19.0673C46.1296 18.8486 46.5928 18.6846 47.1036 18.589V17.8919H41.3144C41.2395 17.8919 41.1782 17.8645 41.1237 17.8099C41.0692 17.7552 41.042 17.6937 41.042 17.6185V16.2927C41.042 16.2175 41.0692 16.156 41.1237 16.1013C41.1782 16.0467 41.2463 16.0193 41.3144 16.0193H55.2356C55.3105 16.0193 55.3718 16.0467 55.4263 16.1013C55.4808 16.156 55.5081 16.2175 55.5081 16.2927V17.6185C55.5081 17.6937 55.4808 17.7552 55.4263 17.8099C55.3718 17.8645 55.3105 17.8919 55.2356 17.8919H49.4465V18.589C49.9505 18.6846 50.4068 18.8486 50.8222 19.0673C51.2377 19.286 51.5919 19.5526 51.8847 19.8601C52.1776 20.1676 52.4023 20.5162 52.5658 20.8989C52.7224 21.2884 52.8042 21.6916 52.8042 22.1222L52.7906 22.129ZM54.2549 9.35608C54.3298 9.35608 54.3911 9.38342 54.4456 9.43809C54.5001 9.49276 54.5273 9.55427 54.5273 9.62944V10.9143C54.5273 10.9894 54.5001 11.0509 54.4456 11.1056C54.3911 11.1603 54.3298 11.1876 54.2549 11.1876H49.4533V11.297C49.4533 11.5157 49.535 11.7138 49.6985 11.8847C49.8619 12.0556 50.1412 12.2264 50.543 12.3904C50.938 12.5544 51.4693 12.7185 52.1367 12.8756C52.8042 13.0328 53.6419 13.2037 54.6567 13.3882C54.827 13.436 54.9155 13.5317 54.9155 13.6616C54.9155 13.6889 54.9155 13.7026 54.9087 13.7094C54.9087 13.7094 54.9019 13.7299 54.9019 13.7572L54.5545 15.0284C54.5205 15.1719 54.4251 15.2471 54.2821 15.2471C54.2685 15.2471 54.2549 15.2471 54.2481 15.2402C54.2344 15.2402 54.2208 15.2334 54.214 15.2334C53.1039 14.9874 52.2048 14.7755 51.5101 14.5978C50.8222 14.4202 50.2638 14.2561 49.8415 14.0989C49.4192 13.9486 49.0991 13.7914 48.8812 13.6411C48.6632 13.4907 48.4589 13.313 48.275 13.1148C48.0775 13.3335 47.8664 13.5249 47.6212 13.6957C47.3828 13.8598 47.0491 14.0238 46.62 14.1946C46.1909 14.3586 45.6393 14.5363 44.965 14.7277C44.2839 14.919 43.4121 15.1446 42.336 15.3974C42.3088 15.4111 42.2747 15.4179 42.2271 15.4179C42.0909 15.4179 42.0159 15.3496 41.9887 15.2129L41.6209 13.9281C41.6209 13.9281 41.6209 13.9008 41.6141 13.8939C41.6141 13.8803 41.6073 13.8666 41.6073 13.8598C41.6073 13.7026 41.689 13.6001 41.8661 13.5659C42.9013 13.3472 43.7595 13.1422 44.4338 12.9577C45.108 12.7731 45.6393 12.5954 46.0343 12.4178C46.4293 12.2401 46.7085 12.0624 46.8584 11.8847C47.0082 11.707 47.0899 11.5157 47.0899 11.3038V11.1945H42.2884C42.2134 11.1945 42.1521 11.1671 42.0977 11.1124C42.0432 11.0578 42.0159 10.9894 42.0159 10.9211V9.63628C42.0159 9.5611 42.0432 9.4996 42.0977 9.44492C42.1521 9.39025 42.2134 9.36291 42.2884 9.36291H47.1036V8.26946C47.1036 8.19428 47.1308 8.13278 47.1853 8.0781C47.2398 8.02343 47.3011 7.99609 47.376 7.99609H49.174C49.249 7.99609 49.3103 8.02343 49.3647 8.0781C49.4192 8.13278 49.4465 8.19428 49.4465 8.26946V9.36291H54.2685L54.2549 9.35608ZM48.2614 24.0084C48.9561 24.0084 49.5078 23.8375 49.9096 23.4822C50.3114 23.1336 50.5158 22.6826 50.5158 22.129C50.5158 21.5755 50.3114 21.1449 49.9096 20.7895C49.5078 20.4342 48.9561 20.2565 48.2614 20.2565C47.5667 20.2565 47.015 20.4342 46.6132 20.7895C46.2114 21.1449 46.007 21.5891 46.007 22.129C46.007 22.6689 46.2114 23.1336 46.6132 23.4822C47.015 23.8307 47.5667 24.0084 48.2614 24.0084Z" fill="#B62C5B"/>
<path d="M71.5266 17.9398C71.5266 18.015 71.4994 18.0765 71.4449 18.1312C71.3904 18.1858 71.3223 18.2132 71.2542 18.2132H65.465V19.5527H70.0078C70.0827 19.5527 70.144 19.58 70.1985 19.6347C70.253 19.6893 70.2802 19.7508 70.2802 19.826V25.0131C70.2802 25.0883 70.253 25.1498 70.1985 25.2045C70.144 25.2591 70.0827 25.2865 70.0078 25.2865H68.2098C68.1348 25.2865 68.0736 25.2591 68.0191 25.2045C67.9646 25.1498 67.9373 25.0883 67.9373 25.0131V21.4252H58.484C58.4091 21.4252 58.3478 21.3979 58.2933 21.3432C58.2388 21.2885 58.2116 21.2202 58.2116 21.1518V19.826C58.2116 19.7508 58.2388 19.6893 58.2933 19.6347C58.3478 19.58 58.4091 19.5527 58.484 19.5527H63.1221V18.2132H57.333C57.2581 18.2132 57.1968 18.1858 57.1423 18.1312C57.0878 18.0765 57.0605 18.0081 57.0605 17.9398V16.614C57.0605 16.5388 57.0878 16.4773 57.1423 16.4226C57.1968 16.368 57.2649 16.3406 57.333 16.3406H71.2542C71.3291 16.3406 71.3904 16.368 71.4449 16.4226C71.4994 16.4773 71.5266 16.5388 71.5266 16.614V17.9398ZM67.9714 8.61809C67.9714 8.54291 67.9986 8.48141 68.0531 8.42673C68.1076 8.37206 68.1689 8.34472 68.2438 8.34472H70.001C70.0759 8.34472 70.1372 8.37206 70.1917 8.42673C70.2462 8.48141 70.2734 8.54291 70.2734 8.61809V12.4452C70.2734 12.9509 70.1849 13.3746 70.001 13.73C69.8171 14.0854 69.5106 14.3792 69.0884 14.6184C68.6593 14.8576 68.094 15.049 67.3925 15.1993C66.691 15.3497 65.826 15.4727 64.7976 15.582C64.7022 15.5957 64.6137 15.6025 64.532 15.6094C64.4502 15.6094 64.3685 15.6162 64.2868 15.6162C64.205 15.6162 64.1165 15.6162 64.0416 15.6094C63.9598 15.6094 63.8713 15.5957 63.776 15.582C62.7475 15.4727 61.8826 15.3428 61.1811 15.1993C60.4796 15.049 59.9143 14.8576 59.4852 14.6184C59.0561 14.3792 58.7496 14.0854 58.5725 13.7368C58.3886 13.3883 58.3001 12.9577 58.3001 12.4384V8.61126C58.3001 8.53608 58.3274 8.47457 58.3818 8.4199C58.4363 8.36523 58.4976 8.33789 58.5725 8.33789H60.3297C60.4046 8.33789 60.4659 8.36523 60.5204 8.4199C60.5749 8.47457 60.6021 8.53608 60.6021 8.61126V9.91657H67.9646V8.61126L67.9714 8.61809ZM67.9714 11.7618H60.609V12.4452C60.609 12.657 60.6702 12.8279 60.7997 12.9782C60.9291 13.1286 61.1402 13.2516 61.4331 13.3678C61.7259 13.4771 62.1073 13.5728 62.5773 13.6412C63.0472 13.7163 63.6193 13.7778 64.2868 13.8257C64.961 13.7778 65.5331 13.7163 66.0031 13.6412C66.473 13.566 66.8544 13.4771 67.1473 13.3678C67.4401 13.2584 67.6513 13.1286 67.7807 12.9782C67.9101 12.8279 67.9714 12.657 67.9714 12.4452V11.7618Z" fill="#B62C5B"/>
<path d="M83.6298 25.2103C83.5753 25.265 83.514 25.2923 83.4391 25.2923H81.75C81.6751 25.2923 81.6138 25.265 81.5593 25.2103C81.5048 25.1556 81.4776 25.0941 81.4776 25.019V19.907C81.0893 20.1872 80.6194 20.4196 80.0677 20.5973C79.5161 20.775 78.8758 20.898 78.1471 20.9527L75.0482 21.1714C75.0142 21.1714 74.9733 21.1714 74.9392 21.1782C74.9052 21.1782 74.8643 21.185 74.8303 21.185C74.4761 21.185 74.2173 21.103 74.0606 20.9458C73.904 20.7886 73.8223 20.57 73.8223 20.3034V9.62172C73.8223 9.54655 73.8495 9.48504 73.904 9.43037C73.9585 9.3757 74.0198 9.34836 74.0947 9.34836H80.2993C80.3742 9.34836 80.4355 9.3757 80.49 9.43037C80.5445 9.48504 80.5717 9.54655 80.5717 9.62172V10.9817C80.5717 11.0569 80.5445 11.1184 80.49 11.1731C80.4355 11.2277 80.3742 11.2551 80.2993 11.2551H76.0494V19.1963L78.1539 19.046C79.2641 18.9708 80.095 18.7589 80.6467 18.4035C81.1983 18.0482 81.4708 17.686 81.4708 17.3169V8.60344C81.4708 8.52827 81.498 8.46676 81.5525 8.41209C81.607 8.35742 81.6683 8.33008 81.7432 8.33008H83.4323C83.5072 8.33008 83.5685 8.35742 83.623 8.41209C83.6774 8.46676 83.7047 8.52827 83.7047 8.60344V14.7678H85.3188V8.60344C85.3188 8.52827 85.3461 8.46676 85.4006 8.41209C85.455 8.35742 85.5163 8.33008 85.5913 8.33008H87.2803C87.3552 8.33008 87.4165 8.35742 87.471 8.41209C87.5255 8.46676 87.5528 8.52827 87.5528 8.60344V25.0053C87.5528 25.0805 87.5255 25.142 87.471 25.1966C87.4165 25.2513 87.3484 25.2787 87.2803 25.2787H85.5913C85.5163 25.2787 85.455 25.2513 85.4006 25.1966C85.3461 25.142 85.3188 25.0805 85.3188 25.0053V16.7155H83.7047V25.0053C83.7047 25.0805 83.6774 25.142 83.623 25.1966L83.6298 25.2103Z" fill="#B62C5B"/>
<path d="M98.6335 13.5932C98.6335 14.1058 98.5313 14.5978 98.327 15.0694C98.1226 15.5409 97.8298 15.951 97.4552 16.3064C97.0806 16.6617 96.6311 16.9488 96.1067 17.1675C95.5822 17.3861 95.0101 17.4955 94.3835 17.4955C93.7569 17.4955 93.1848 17.3861 92.6604 17.1675C92.136 16.9488 91.6865 16.6549 91.3119 16.2927C90.9373 15.9305 90.6512 15.5136 90.4401 15.042C90.2358 14.5705 90.1336 14.0853 90.1336 13.5864C90.1336 13.1217 90.2085 12.698 90.3448 12.3084C90.4878 11.9189 90.6853 11.5703 90.9373 11.256H89.5751C89.5002 11.256 89.4321 11.2286 89.3776 11.1739C89.3231 11.1193 89.2959 11.0509 89.2959 10.9758V9.66361C89.2959 9.58844 89.3231 9.52009 89.3776 9.46542C89.4321 9.41075 89.5002 9.38341 89.5751 9.38341H93.0691V8.26262C93.0691 8.18744 93.0963 8.1191 93.1508 8.06443C93.2053 8.00976 93.2734 7.98242 93.3483 7.98242H95.1463C95.2213 7.98242 95.2894 8.00976 95.3439 8.06443C95.3983 8.1191 95.4256 8.18744 95.4256 8.26262V9.38341H99.1851C99.26 9.38341 99.3281 9.41075 99.3826 9.46542C99.4371 9.52009 99.4644 9.58844 99.4644 9.66361V10.9758C99.4644 11.0509 99.4371 11.1193 99.3826 11.1739C99.3281 11.2286 99.26 11.256 99.1851 11.256H97.8025C98.0614 11.5703 98.2657 11.9189 98.4087 12.3084C98.5517 12.698 98.6266 13.1217 98.6266 13.5864L98.6335 13.5932ZM91.4958 19.1083C91.4958 19.0332 91.523 18.9717 91.5775 18.917C91.632 18.8623 91.6933 18.835 91.7682 18.835H102.761C102.836 18.835 102.897 18.8623 102.951 18.917C103.006 18.9717 103.033 19.0332 103.033 19.1083V25.0198C103.033 25.095 103.006 25.1565 102.951 25.2112C102.897 25.2659 102.836 25.2932 102.761 25.2932H100.963C100.888 25.2932 100.827 25.2659 100.772 25.2112C100.718 25.1565 100.69 25.095 100.69 25.0198V20.7075H91.7682C91.6933 20.7075 91.632 20.6802 91.5775 20.6255C91.523 20.5708 91.4958 20.5025 91.4958 20.4342V19.1083ZM94.3835 15.7323C94.9829 15.7323 95.4596 15.5341 95.8138 15.1377C96.168 14.7413 96.345 14.2288 96.345 13.5864C96.345 13.272 96.2974 12.9782 96.202 12.7048C96.1067 12.4314 95.9773 12.1854 95.8002 11.9735C95.6231 11.7617 95.4188 11.5908 95.1804 11.4678C94.942 11.3448 94.6764 11.2833 94.3767 11.2833C94.0771 11.2833 93.8114 11.3448 93.5731 11.4678C93.3347 11.5908 93.1304 11.7617 92.9533 11.9735C92.7762 12.1854 92.6468 12.4314 92.5514 12.7048C92.4561 12.9782 92.4084 13.272 92.4084 13.5864C92.4084 14.222 92.5855 14.7413 92.9397 15.1377C93.2938 15.5341 93.7706 15.7323 94.3699 15.7323H94.3835ZM103.04 17.4613C103.04 17.5365 103.013 17.598 102.958 17.6527C102.904 17.7073 102.843 17.7347 102.768 17.7347H100.97C100.895 17.7347 100.833 17.7073 100.779 17.6527C100.724 17.598 100.697 17.5365 100.697 17.4613V8.61799C100.697 8.54282 100.724 8.48131 100.779 8.42664C100.833 8.37197 100.895 8.34463 100.97 8.34463H102.768C102.843 8.34463 102.904 8.37197 102.958 8.42664C103.013 8.48131 103.04 8.54282 103.04 8.61799V10.5315C103.346 10.2035 103.742 10.019 104.232 9.97798L104.981 9.92331C105.056 9.92331 105.117 9.94381 105.172 9.97798C105.226 10.0122 105.26 10.0737 105.274 10.1625L105.383 11.6523C105.383 11.8232 105.294 11.9189 105.124 11.9462L104.375 12.0009C104.007 12.0282 103.701 12.1307 103.449 12.3152C103.197 12.4998 103.06 12.7048 103.033 12.9371V17.4613H103.04Z" fill="#B62C5B"/>
<path d="M107.951 11.229H117.493V15.7122C117.493 16.5938 117.459 17.3455 117.384 17.9674C117.309 18.5893 117.207 19.1497 117.071 19.6486C117.057 19.6759 117.05 19.7033 117.05 19.7374C117.05 19.8741 117.132 19.9561 117.289 19.9971L118.937 20.3252C118.937 20.3252 118.957 20.3252 118.964 20.332C118.964 20.332 118.978 20.3388 118.991 20.3388C119.128 20.3388 119.243 20.1817 119.346 19.8673C119.448 19.5529 119.536 19.1565 119.611 18.6713C119.686 18.1861 119.741 17.653 119.775 17.0721C119.809 16.4912 119.829 15.9377 119.829 15.4115V9.62297C119.829 9.5478 119.802 9.48629 119.747 9.43162C119.693 9.37695 119.625 9.34961 119.557 9.34961H107.944C107.869 9.34961 107.808 9.37695 107.754 9.43162C107.699 9.48629 107.672 9.5478 107.672 9.62297V10.9488C107.672 11.024 107.699 11.0855 107.754 11.1401C107.808 11.1948 107.869 11.2222 107.944 11.2222L107.951 11.229Z" fill="#B62C5B"/>
<path d="M120.912 23.1067C120.857 23.052 120.796 23.0247 120.721 23.0247H115.838V17.0175C115.838 16.9423 115.81 16.8808 115.756 16.8262C115.701 16.7715 115.633 16.7441 115.565 16.7441H113.808C113.733 16.7441 113.672 16.7715 113.617 16.8262C113.563 16.8808 113.536 16.9492 113.536 17.0175V23.0247H112.214V17.0175C112.214 16.9423 112.187 16.8808 112.133 16.8262C112.078 16.7715 112.017 16.7441 111.942 16.7441H110.185C110.11 16.7441 110.049 16.7715 109.994 16.8262C109.94 16.8808 109.912 16.9492 109.912 17.0175V23.0247H106.813C106.739 23.0247 106.677 23.052 106.623 23.1067C106.568 23.1614 106.541 23.2229 106.541 23.298V24.658C106.541 24.7332 106.568 24.7947 106.623 24.8494C106.677 24.9041 106.739 24.9314 106.813 24.9314H120.741C120.816 24.9314 120.878 24.9041 120.932 24.8494C120.987 24.7947 121.014 24.7332 121.014 24.658V23.298C121.014 23.2229 120.987 23.1614 120.932 23.1067H120.912Z" fill="#B62C5B"/>
<path d="M43.7798 31.4181C43.6981 31.5685 43.596 31.6915 43.4665 31.7872C43.344 31.8828 43.2009 31.958 43.0443 32.0059C42.8876 32.0537 42.7242 32.081 42.5471 32.081C42.336 32.081 42.1384 32.04 41.9546 31.958C41.7707 31.876 41.6072 31.7598 41.471 31.6026C41.3348 31.4455 41.2258 31.2473 41.1441 31.0149C41.0623 30.7826 41.0215 30.516 41.0215 30.2153C41.0215 29.9146 41.0623 29.6481 41.1441 29.4157C41.2258 29.1834 41.3348 28.992 41.471 28.8348C41.6072 28.6776 41.7707 28.5615 41.9546 28.4795C42.1384 28.3975 42.336 28.3633 42.5471 28.3633C42.7174 28.3633 42.874 28.3906 43.0307 28.4385C43.1805 28.4863 43.3167 28.5615 43.4393 28.6571C43.5619 28.7528 43.6641 28.869 43.7458 29.0125C43.8275 29.156 43.8888 29.3201 43.9297 29.5114C43.9297 29.5182 43.9297 29.5319 43.9297 29.5456C43.9297 29.5798 43.9093 29.5934 43.8684 29.5934H43.378C43.378 29.5934 43.3371 29.5934 43.3371 29.5798C43.3371 29.5729 43.3303 29.5524 43.3235 29.5319C43.2622 29.3201 43.1805 29.156 43.0579 29.0399C42.9421 28.9237 42.7719 28.869 42.5471 28.869C42.3836 28.869 42.2474 28.91 42.1248 28.9852C42.009 29.0604 41.9137 29.1629 41.8388 29.2859C41.7639 29.4089 41.7094 29.5524 41.6753 29.7164C41.6413 29.8805 41.6208 30.0445 41.6208 30.2222C41.6208 30.3998 41.6345 30.5639 41.6685 30.7279C41.7026 30.8919 41.757 31.0354 41.832 31.1653C41.9069 31.2951 42.0022 31.3908 42.118 31.4728C42.2338 31.548 42.3768 31.589 42.5403 31.589C42.9966 31.589 43.2622 31.3566 43.3303 30.8851C43.3303 30.8577 43.344 30.8441 43.344 30.8372C43.344 30.8304 43.3644 30.8236 43.3848 30.8236H43.8684C43.8684 30.8236 43.9093 30.8236 43.9161 30.8372C43.9229 30.8441 43.9297 30.8577 43.9297 30.8782V30.9056C43.9024 31.1038 43.848 31.2814 43.7662 31.4318L43.7798 31.4181Z" fill="#B62C5B"/>
<path d="M45.074 31.9424C45.074 31.9424 45.0672 31.9766 45.0536 31.9971C45.04 32.0107 45.0195 32.0244 44.9991 32.0244H44.5632C44.5632 32.0244 44.5292 32.0176 44.5155 31.9971C44.5019 31.9834 44.4951 31.9629 44.4951 31.9424V28.4844C44.4951 28.4844 44.5019 28.4433 44.5155 28.4297C44.5292 28.416 44.5496 28.4023 44.5632 28.4023H44.9991C44.9991 28.4023 45.04 28.4092 45.0536 28.4297C45.0672 28.4433 45.074 28.4638 45.074 28.4844V29.9263H46.5928V28.4844C46.5928 28.4844 46.5928 28.4433 46.6133 28.4297C46.6269 28.416 46.6473 28.4023 46.6677 28.4023H47.0968C47.0968 28.4023 47.1309 28.4092 47.1513 28.4297C47.1649 28.4433 47.1717 28.4638 47.1717 28.4844V31.9424C47.1717 31.9424 47.1649 31.9766 47.1513 31.9971C47.1377 32.0107 47.1173 32.0244 47.0968 32.0244H46.6677C46.6677 32.0244 46.6269 32.0176 46.6133 31.9971C46.5996 31.9834 46.5928 31.9629 46.5928 31.9424V30.4457H45.074V31.9424Z" fill="#B62C5B"/>
<path d="M48.6564 31.3547C48.7722 31.4845 48.9561 31.5529 49.2149 31.5529C49.4737 31.5529 49.6644 31.4845 49.7802 31.3547C49.8959 31.2248 49.9504 31.0335 49.9504 30.7874V28.4844C49.9504 28.4844 49.9504 28.4433 49.9709 28.4297C49.9845 28.416 50.0049 28.4023 50.0253 28.4023H50.4544C50.4544 28.4023 50.4953 28.4092 50.5089 28.4297C50.5225 28.4433 50.5293 28.4638 50.5293 28.4844V30.7943C50.5293 31.0061 50.4953 31.1975 50.434 31.3547C50.3727 31.5119 50.2842 31.6485 50.1684 31.7511C50.0526 31.8604 49.9164 31.9356 49.7529 31.9902C49.5895 32.0449 49.4124 32.0723 49.2149 32.0723C49.0174 32.0723 48.8335 32.0449 48.67 31.9902C48.5065 31.9356 48.3703 31.8536 48.2545 31.7442C48.1388 31.6349 48.057 31.505 47.9957 31.341C47.9344 31.1838 47.9004 30.9993 47.9004 30.7943V28.4844C47.9004 28.4844 47.9072 28.4433 47.9208 28.4297C47.9344 28.416 47.9549 28.4023 47.9753 28.4023H48.4044C48.4044 28.4023 48.4453 28.4092 48.4589 28.4297C48.4725 28.4433 48.4793 28.4638 48.4793 28.4844V30.7874C48.4793 31.0335 48.5338 31.2248 48.6496 31.3547H48.6564Z" fill="#B62C5B"/>
<path d="M53.4033 28.4238C53.4033 28.4238 53.4374 28.3965 53.4578 28.3965H53.8937C53.8937 28.3965 53.9277 28.4033 53.9413 28.4238C53.955 28.4375 53.9618 28.458 53.9618 28.4785V31.9365C53.9618 31.9365 53.955 31.9707 53.9413 31.9912C53.9277 32.0049 53.9073 32.0186 53.8937 32.0186H53.5736C53.5191 32.0186 53.485 32.0117 53.4646 31.9912C53.4442 31.9707 53.4237 31.9434 53.3965 31.9024L51.8641 29.4353V31.9434C51.8641 31.9434 51.8573 31.9776 51.8436 31.9981C51.83 32.0117 51.8096 32.0254 51.7892 32.0254H51.3533C51.3533 32.0254 51.3192 32.0186 51.3056 31.9981C51.292 31.9844 51.2852 31.9639 51.2852 31.9434V28.4853C51.2852 28.4853 51.2852 28.4443 51.3056 28.4307C51.3192 28.417 51.3396 28.4033 51.3533 28.4033H51.7687C51.8232 28.4033 51.8573 28.4102 51.8777 28.4307C51.8981 28.4512 51.9186 28.4785 51.9458 28.5263L53.3897 30.8499V28.4922C53.3897 28.4922 53.3897 28.4512 53.4101 28.4375L53.4033 28.4238Z" fill="#B62C5B"/>
<path d="M57.3676 31.4093C57.2314 31.6144 57.0612 31.7784 56.8568 31.8946C56.6525 32.0107 56.4073 32.0722 56.1145 32.0722C55.9033 32.0722 55.7058 32.0312 55.5151 31.9492C55.3312 31.8672 55.1678 31.751 55.0315 31.5939C54.8953 31.4367 54.7864 31.2385 54.7046 31.0061C54.6229 30.7738 54.582 30.5072 54.582 30.2065C54.582 29.9058 54.6229 29.6325 54.7046 29.4069C54.7864 29.1746 54.8953 28.9832 55.0315 28.826C55.1678 28.6689 55.3244 28.5527 55.5015 28.4775C55.6786 28.4023 55.8693 28.3613 56.06 28.3613C56.2166 28.3613 56.3665 28.3818 56.5095 28.4297C56.6525 28.4775 56.7819 28.5458 56.9045 28.6347C57.0203 28.7235 57.1224 28.8397 57.211 28.9764C57.2995 29.1131 57.3608 29.2771 57.3949 29.4616C57.3949 29.4685 57.3949 29.4821 57.3949 29.4958C57.3949 29.53 57.3744 29.5436 57.3336 29.5436H56.8432C56.8432 29.5436 56.8023 29.5436 56.8023 29.53C56.8023 29.5231 56.7955 29.5026 56.7887 29.4821C56.7342 29.2771 56.6525 29.1199 56.5367 29.0174C56.4277 28.9149 56.2643 28.8671 56.06 28.8671C55.9033 28.8671 55.7739 28.9081 55.6581 28.9832C55.5492 29.0584 55.4538 29.1609 55.3857 29.2839C55.3108 29.4138 55.2631 29.5573 55.2291 29.7145C55.195 29.8785 55.1814 30.0425 55.1814 30.2134C55.1814 30.3842 55.195 30.5551 55.2359 30.7191C55.2699 30.8831 55.3244 31.0266 55.3993 31.1565C55.4742 31.2863 55.5696 31.382 55.6854 31.464C55.8012 31.5392 55.9442 31.5802 56.1145 31.5802C56.2098 31.5802 56.2915 31.5734 56.3733 31.5529C56.4482 31.5324 56.5163 31.505 56.5708 31.4708C56.6321 31.4367 56.6797 31.3957 56.7206 31.3547C56.7615 31.3137 56.8023 31.2658 56.8364 31.218V30.5551H56.1826C56.1826 30.5551 56.1417 30.5482 56.1281 30.5277C56.1145 30.5141 56.1076 30.4936 56.1076 30.4662V30.1382C56.1076 30.1382 56.1145 30.0972 56.1281 30.0835C56.1417 30.0699 56.1621 30.063 56.1826 30.063H57.3404C57.3404 30.063 57.3813 30.0699 57.3949 30.0835C57.4085 30.0972 57.4221 30.1177 57.4221 30.1382V31.2522C57.4221 31.3068 57.4017 31.3547 57.3676 31.4093Z" fill="#B62C5B"/>
<path d="M59.3761 28.3965C59.5464 28.3965 59.7098 28.417 59.8529 28.4512C60.0027 28.4922 60.1253 28.5468 60.2343 28.622C60.3433 28.6972 60.425 28.7997 60.4863 28.9159C60.5476 29.0321 60.5748 29.1687 60.5748 29.3259C60.5748 29.4899 60.5408 29.6335 60.4727 29.7633C60.4045 29.8863 60.3228 29.9888 60.2207 30.064C60.3773 30.1529 60.5067 30.269 60.5884 30.4125C60.677 30.5561 60.7178 30.7406 60.7178 30.9661C60.7178 31.1301 60.6906 31.2805 60.6361 31.4103C60.5816 31.5402 60.4999 31.6495 60.3909 31.7384C60.2751 31.8272 60.1389 31.9024 59.9619 31.9502C59.7916 31.9981 59.5804 32.0254 59.3353 32.0254H58.1638C58.1638 32.0254 58.1298 32.0186 58.1161 31.9981C58.1025 31.9844 58.0957 31.9639 58.0957 31.9434V28.4853C58.0957 28.4853 58.1025 28.4443 58.1161 28.4307C58.1298 28.417 58.1502 28.4033 58.1638 28.4033H59.3625L59.3761 28.3965ZM59.9823 29.3738C59.9823 29.2166 59.9278 29.1004 59.8188 29.0116C59.7099 28.9295 59.5464 28.8885 59.3284 28.8885H58.695V29.8932H59.3557C59.5464 29.8932 59.703 29.859 59.812 29.7838C59.9278 29.7086 59.9823 29.572 59.9823 29.3806V29.3738ZM60.1321 30.9456C60.1321 30.7542 60.0708 30.6107 59.9414 30.5219C59.812 30.433 59.6077 30.392 59.308 30.392H58.6882V31.5333H59.4374C59.6894 31.5333 59.8665 31.4787 59.9687 31.3762C60.0708 31.2736 60.1253 31.1301 60.1253 30.9524L60.1321 30.9456Z" fill="#B62C5B"/>
<path d="M62.0392 31.3547C62.155 31.4845 62.3388 31.5529 62.5977 31.5529C62.8565 31.5529 63.0472 31.4845 63.1629 31.3547C63.2787 31.2248 63.3332 31.0335 63.3332 30.7874V28.4844C63.3332 28.4844 63.3332 28.4433 63.3536 28.4297C63.3673 28.416 63.3877 28.4023 63.4081 28.4023H63.8372C63.8372 28.4023 63.8781 28.4092 63.8917 28.4297C63.9053 28.4433 63.9121 28.4638 63.9121 28.4844V30.7943C63.9121 31.0061 63.8781 31.1975 63.8168 31.3547C63.7555 31.5119 63.6669 31.6485 63.5512 31.7511C63.4354 31.8604 63.2992 31.9356 63.1357 31.9902C62.9722 32.0449 62.7952 32.0723 62.5977 32.0723C62.4001 32.0723 62.2163 32.0449 62.0528 31.9902C61.8893 31.9356 61.7531 31.8536 61.6373 31.7442C61.5216 31.6349 61.433 31.505 61.3717 31.341C61.3104 31.1838 61.2764 30.9993 61.2764 30.7943V28.4844C61.2764 28.4844 61.2832 28.4433 61.2968 28.4297C61.3104 28.416 61.3309 28.4023 61.3513 28.4023H61.7804C61.7804 28.4023 61.8212 28.4092 61.8348 28.4297C61.8485 28.4433 61.8553 28.4638 61.8553 28.4844V30.7874C61.8553 31.0335 61.9098 31.2248 62.0255 31.3547H62.0392Z" fill="#B62C5B"/>
<path d="M64.6552 28.4238C64.6552 28.4238 64.6893 28.3965 64.7029 28.3965H65.1319C65.1319 28.3965 65.1728 28.4033 65.1864 28.4238C65.2001 28.4375 65.2069 28.458 65.2069 28.4785V30.269L66.4805 28.4648C66.4805 28.4648 66.5077 28.4307 66.5282 28.417C66.5486 28.4033 66.569 28.3965 66.5895 28.3965H67.1411C67.1411 28.3965 67.1752 28.4102 67.1752 28.4443C67.1752 28.458 67.1752 28.4717 67.1752 28.4785L66.1059 29.9068C66.1604 29.9068 66.2149 29.9342 66.2693 29.9752C66.3238 30.0162 66.3783 30.0777 66.4192 30.1597L67.3795 31.9434C67.3795 31.9434 67.3863 31.9707 67.3863 31.9776C67.3863 32.0049 67.3727 32.0186 67.3523 32.0186H66.8142C66.7733 32.0186 66.7461 31.9912 66.7257 31.9434L65.956 30.4809C65.9288 30.4399 65.9084 30.4125 65.8811 30.392C65.8539 30.3784 65.8335 30.3647 65.813 30.3647C65.779 30.3647 65.7517 30.3715 65.7313 30.392L65.2069 31.0891V31.9229C65.2069 31.9229 65.2001 31.9571 65.1864 31.9776C65.1728 31.9912 65.1524 32.0049 65.1319 32.0049H64.7029C64.7029 32.0049 64.6688 31.9981 64.6552 31.9776C64.6416 31.9639 64.6348 31.9434 64.6348 31.9229V28.4648C64.6348 28.4648 64.6416 28.4238 64.6552 28.4102V28.4238Z" fill="#B62C5B"/>
<path d="M70.7637 28.4238C70.7637 28.4238 70.7977 28.3965 70.8181 28.3965H71.254C71.254 28.3965 71.2881 28.4033 71.3017 28.4238C71.3153 28.4375 71.3221 28.458 71.3221 28.4785V31.9365C71.3221 31.9365 71.3153 31.9707 71.3017 31.9912C71.2881 32.0049 71.2677 32.0186 71.254 32.0186H70.9339C70.8794 32.0186 70.8454 32.0117 70.8249 31.9912C70.8045 31.9707 70.7841 31.9434 70.7568 31.9024L69.2244 29.4353V31.9434C69.2244 31.9434 69.2176 31.9776 69.204 31.9981C69.1904 32.0117 69.1699 32.0254 69.1495 32.0254H68.7136C68.7136 32.0254 68.6796 32.0186 68.6659 31.9981C68.6523 31.9844 68.6455 31.9639 68.6455 31.9434V28.4853C68.6455 28.4853 68.6523 28.4443 68.6659 28.4307C68.6796 28.417 68.7 28.4033 68.7136 28.4033H69.1291C69.1836 28.4033 69.2176 28.4102 69.238 28.4307C69.2585 28.4512 69.2789 28.4785 69.3062 28.5263L70.75 30.8499V28.4922C70.75 28.4922 70.7568 28.4512 70.7705 28.4375L70.7637 28.4238Z" fill="#B62C5B"/>
<path d="M71.8875 32.0186C71.8466 32.0186 71.8262 31.9981 71.8262 31.9639C71.8262 31.957 71.8262 31.9434 71.8262 31.9365L73.0521 28.4443C73.0657 28.3896 73.093 28.3691 73.1475 28.3691H73.5357C73.5357 28.3691 73.5697 28.3691 73.5902 28.3896C73.6106 28.4033 73.6242 28.4238 73.6242 28.4443L74.8502 31.9365C74.8502 31.9365 74.8502 31.9365 74.8502 31.9434C74.8502 31.9434 74.8502 31.9434 74.8502 31.9502C74.8502 31.9639 74.8502 31.9775 74.8297 31.9912C74.8161 32.0049 74.8025 32.0049 74.7889 32.0049H74.3257C74.3257 32.0049 74.2849 31.9981 74.2712 31.9775C74.2576 31.9639 74.244 31.9434 74.2304 31.9229L73.9716 31.1438H72.9704C72.8887 31.1438 72.8274 31.1575 72.7729 31.178C72.7184 31.1985 72.6843 31.2395 72.6571 31.2941L72.4528 31.9229C72.4528 31.9229 72.4323 31.957 72.4187 31.9775C72.3983 31.9912 72.3778 32.0049 72.3574 32.0049H71.8875V32.0186ZM72.8478 30.7406C72.8478 30.7406 72.9159 30.6859 72.9636 30.6654C73.0044 30.6517 73.0521 30.6381 73.1134 30.6381H73.8081L73.345 29.2371L72.8478 30.7337V30.7406Z" fill="#B62C5B"/>
<path d="M77.5272 28.4238C77.5272 28.4238 77.5477 28.458 77.5477 28.4785V28.8339C77.5477 28.8339 77.5409 28.8749 77.5272 28.8885C77.5136 28.9022 77.4932 28.909 77.4728 28.909H76.492V31.9365C76.492 31.9365 76.4852 31.9707 76.4716 31.9912C76.4579 32.0049 76.4375 32.0186 76.4171 32.0186H75.988C75.988 32.0186 75.9471 32.0117 75.9335 31.9912C75.9199 31.9776 75.9131 31.9571 75.9131 31.9365V28.909H74.9323C74.9323 28.909 74.8915 28.9022 74.8779 28.8885C74.8642 28.8749 74.8574 28.8544 74.8574 28.8339V28.4785C74.8574 28.4785 74.8574 28.4375 74.8779 28.4238C74.8915 28.4102 74.9119 28.3965 74.9323 28.3965H77.4796C77.4796 28.3965 77.5204 28.4033 77.534 28.4238H77.5272Z" fill="#B62C5B"/>
<path d="M78.1132 28.4238C78.1132 28.4238 78.1473 28.3965 78.1677 28.3965H78.5968C78.5968 28.3965 78.6376 28.4033 78.6513 28.4238C78.6649 28.4375 78.6717 28.458 78.6717 28.4785V31.9365C78.6717 31.9365 78.6649 31.9707 78.6513 31.9912C78.6376 32.0049 78.6172 32.0186 78.5968 32.0186H78.1677C78.1677 32.0186 78.1336 32.0117 78.1132 31.9912C78.0996 31.9776 78.0928 31.9571 78.0928 31.9365V28.4785C78.0928 28.4785 78.0996 28.4375 78.1132 28.4238Z" fill="#B62C5B"/>
<path d="M80.8985 32.0732C80.6874 32.0732 80.483 32.0322 80.2992 31.9502C80.1085 31.8682 79.945 31.752 79.802 31.5948C79.6589 31.4376 79.5432 31.2395 79.4614 31.0071C79.3797 30.7747 79.332 30.5082 79.332 30.2075C79.332 29.9068 79.3729 29.6403 79.4614 29.4079C79.5432 29.1756 79.6589 28.9842 79.802 28.827C79.945 28.6698 80.1153 28.5537 80.306 28.4716C80.4967 28.3896 80.6942 28.3555 80.9053 28.3555C81.1164 28.3555 81.314 28.3965 81.5047 28.4716C81.6954 28.5537 81.8588 28.6698 82.0018 28.827C82.1449 28.9842 82.2607 29.1756 82.3492 29.4079C82.4377 29.6403 82.4786 29.9068 82.4786 30.2075C82.4786 30.5082 82.4377 30.7747 82.3492 31.0071C82.2675 31.2395 82.1517 31.4376 82.0087 31.5948C81.8656 31.752 81.6954 31.8682 81.5115 31.9502C81.3208 32.0322 81.1233 32.0732 80.9121 32.0732H80.8985ZM80.8985 31.5743C81.062 31.5743 81.2118 31.5333 81.3344 31.4581C81.457 31.383 81.5592 31.2805 81.6409 31.1506C81.7226 31.0276 81.7771 30.8773 81.818 30.7132C81.8588 30.5492 81.8724 30.3784 81.8724 30.2075C81.8724 30.0367 81.852 29.8658 81.8111 29.7086C81.7703 29.5446 81.709 29.4011 81.6341 29.2781C81.5523 29.1551 81.4502 29.0525 81.3344 28.9774C81.2118 28.9022 81.0688 28.8612 80.9053 28.8612C80.7419 28.8612 80.5988 28.9022 80.4762 28.9774C80.3536 29.0525 80.2515 29.1551 80.1766 29.2781C80.0948 29.4079 80.0335 29.5514 79.9995 29.7086C79.9586 29.8726 79.9382 30.0367 79.9382 30.2075C79.9382 30.3784 79.9586 30.5492 79.9927 30.7132C80.0335 30.8773 80.088 31.0208 80.1698 31.1506C80.2515 31.2805 80.3536 31.3761 80.4762 31.4581C80.5988 31.5333 80.7419 31.5743 80.9121 31.5743H80.8985Z" fill="#B62C5B"/>
<path d="M85.2442 28.4238C85.2442 28.4238 85.2782 28.3965 85.2986 28.3965H85.7345C85.7345 28.3965 85.7686 28.4033 85.7822 28.4238C85.7958 28.4375 85.8026 28.458 85.8026 28.4785V31.9365C85.8026 31.9365 85.7958 31.9707 85.7822 31.9912C85.7686 32.0049 85.7481 32.0186 85.7345 32.0186H85.4144C85.3599 32.0186 85.3259 32.0117 85.3054 31.9912C85.285 31.9707 85.2646 31.9434 85.2373 31.9024L83.7117 29.4353V31.9434C83.7117 31.9434 83.7049 31.9776 83.6913 31.9981C83.6777 32.0117 83.6572 32.0254 83.6368 32.0254H83.2009C83.2009 32.0254 83.1669 32.0186 83.1532 31.9981C83.1396 31.9844 83.1328 31.9639 83.1328 31.9434V28.4853C83.1328 28.4853 83.1396 28.4443 83.1532 28.4307C83.1669 28.417 83.1873 28.4033 83.2009 28.4033H83.6164C83.6709 28.4033 83.7049 28.4102 83.7254 28.4307C83.7458 28.4512 83.7662 28.4785 83.7935 28.5263L85.2373 30.8499V28.4922C85.2373 28.4922 85.2373 28.4512 85.2578 28.4375L85.2442 28.4238Z" fill="#B62C5B"/>
<path d="M86.3679 32.0186C86.3271 32.0186 86.3066 31.9981 86.3066 31.9639C86.3066 31.957 86.3066 31.9434 86.3066 31.9365L87.5326 28.4443C87.5462 28.3896 87.5803 28.3691 87.6279 28.3691H88.0161C88.0161 28.3691 88.0502 28.3691 88.0706 28.3896C88.0911 28.4033 88.0979 28.4238 88.1047 28.4443L89.3306 31.9365C89.3306 31.9365 89.3306 31.9365 89.3306 31.9434C89.3306 31.9434 89.3306 31.9434 89.3306 31.9502C89.3306 31.9639 89.3306 31.9775 89.3102 31.9912C89.2966 32.0049 89.2829 32.0049 89.2693 32.0049H88.8062C88.8062 32.0049 88.7653 31.9981 88.7517 31.9775C88.7381 31.9639 88.7245 31.9434 88.7108 31.9229L88.452 31.1438H87.4508C87.3691 31.1438 87.3078 31.1575 87.2533 31.178C87.1988 31.1985 87.1648 31.2395 87.1376 31.2941L86.9332 31.9229C86.9332 31.9229 86.9128 31.957 86.8992 31.9775C86.8787 31.9912 86.8583 32.0049 86.8379 32.0049H86.3679V32.0186ZM87.3283 30.7406C87.3283 30.7406 87.3964 30.6859 87.4372 30.6654C87.4781 30.6517 87.5258 30.6381 87.5871 30.6381H88.2818L87.8186 29.2371L87.3214 30.7337L87.3283 30.7406Z" fill="#B62C5B"/>
<path d="M89.8476 31.9912C89.8476 31.9912 89.8271 31.9571 89.8271 31.9365V28.4785C89.8271 28.4785 89.834 28.4375 89.8476 28.4238C89.8612 28.4102 89.8816 28.3965 89.9021 28.3965H90.338C90.338 28.3965 90.3788 28.4033 90.3924 28.4238C90.4061 28.4375 90.4129 28.458 90.4129 28.4785V31.4992H91.9862C91.9862 31.4992 92.027 31.506 92.0406 31.5265C92.0543 31.5402 92.0611 31.5607 92.0611 31.588V31.9434C92.0611 31.9434 92.0611 31.9776 92.0406 31.9981C92.027 32.0117 92.0066 32.0254 91.9862 32.0254H89.9021C89.9021 32.0254 89.868 32.0186 89.8476 31.9981V31.9912Z" fill="#B62C5B"/>
<path d="M94.0841 31.3547C94.1999 31.4845 94.3838 31.5529 94.6426 31.5529C94.9014 31.5529 95.0921 31.4845 95.2079 31.3547C95.3237 31.2248 95.3782 31.0335 95.3782 30.7874V28.4844C95.3782 28.4844 95.3782 28.4433 95.3986 28.4297C95.4122 28.416 95.4326 28.4023 95.4531 28.4023H95.8822C95.8822 28.4023 95.923 28.4092 95.9366 28.4297C95.9503 28.4433 95.9571 28.4638 95.9571 28.4844V30.7943C95.9571 31.0061 95.923 31.1975 95.8617 31.3547C95.8004 31.5119 95.7119 31.6485 95.5961 31.7511C95.4803 31.8604 95.3441 31.9356 95.1807 31.9902C95.0172 32.0449 94.8401 32.0723 94.6426 32.0723C94.4451 32.0723 94.2612 32.0449 94.0977 31.9902C93.9343 31.9356 93.7981 31.8536 93.6823 31.7442C93.5665 31.6349 93.4848 31.505 93.4235 31.341C93.3622 31.1838 93.3281 30.9993 93.3281 30.7943V28.4844C93.3281 28.4844 93.3349 28.4433 93.3486 28.4297C93.3622 28.416 93.3826 28.4023 93.403 28.4023H93.8321C93.8321 28.4023 93.873 28.4092 93.8866 28.4297C93.9002 28.4433 93.907 28.4638 93.907 28.4844V30.7874C93.907 31.0335 93.9615 31.2248 94.0773 31.3547H94.0841Z" fill="#B62C5B"/>
<path d="M98.831 28.4238C98.831 28.4238 98.8651 28.3965 98.8855 28.3965H99.3214C99.3214 28.3965 99.3555 28.4033 99.3691 28.4238C99.3827 28.4375 99.3895 28.458 99.3895 28.4785V31.9365C99.3895 31.9365 99.3827 31.9707 99.3691 31.9912C99.3555 32.0049 99.335 32.0186 99.3214 32.0186H99.0013C98.9468 32.0186 98.9128 32.0117 98.8923 31.9912C98.8719 31.9707 98.8515 31.9434 98.8242 31.9024L97.2918 29.4353V31.9434C97.2918 31.9434 97.285 31.9776 97.2714 31.9981C97.2578 32.0117 97.2373 32.0254 97.2169 32.0254H96.781C96.781 32.0254 96.7469 32.0186 96.7333 31.9981C96.7197 31.9844 96.7129 31.9639 96.7129 31.9434V28.4853C96.7129 28.4853 96.7197 28.4443 96.7333 28.4307C96.7469 28.417 96.7674 28.4033 96.781 28.4033H97.1965C97.2509 28.4033 97.285 28.4102 97.3054 28.4307C97.3259 28.4512 97.3463 28.4785 97.3735 28.5263L98.8174 30.8499V28.4922C98.8174 28.4922 98.8242 28.4512 98.8378 28.4375L98.831 28.4238Z" fill="#B62C5B"/>
<path d="M100.159 28.4238C100.159 28.4238 100.193 28.3965 100.214 28.3965H100.649C100.649 28.3965 100.69 28.4033 100.704 28.4238C100.718 28.4375 100.724 28.458 100.724 28.4785V31.9365C100.724 31.9365 100.718 31.9707 100.704 31.9912C100.69 32.0049 100.67 32.0186 100.649 32.0186H100.214C100.214 32.0186 100.18 32.0117 100.159 31.9912C100.145 31.9776 100.139 31.9571 100.139 31.9365V28.4785C100.139 28.4785 100.145 28.4375 100.159 28.4238Z" fill="#B62C5B"/>
<path d="M102.495 32.0244C102.495 32.0244 102.468 31.9902 102.461 31.9697L101.242 28.4844C101.242 28.4844 101.242 28.4707 101.242 28.4639C101.242 28.4228 101.263 28.4023 101.303 28.4023H101.767C101.767 28.4023 101.814 28.4092 101.828 28.4297C101.842 28.4433 101.855 28.4638 101.862 28.4844L102.754 31.177L103.64 28.4844C103.64 28.4844 103.66 28.4433 103.674 28.4297C103.687 28.416 103.708 28.4023 103.735 28.4023H104.198C104.198 28.4023 104.225 28.4023 104.239 28.4228C104.253 28.4365 104.259 28.4502 104.259 28.4639C104.259 28.4639 104.259 28.4638 104.259 28.4707V28.4775L103.033 31.9629C103.033 31.9629 103.013 32.0039 102.999 32.0176C102.979 32.0313 102.965 32.0449 102.945 32.0449H102.557C102.557 32.0449 102.516 32.0381 102.495 32.0176V32.0244Z" fill="#B62C5B"/>
<path d="M104.805 31.9912C104.805 31.9912 104.784 31.9571 104.784 31.9365V28.4785C104.784 28.4785 104.791 28.4375 104.805 28.4238C104.818 28.4102 104.839 28.3965 104.852 28.3965H106.916C106.916 28.3965 106.957 28.4033 106.97 28.4238C106.984 28.4375 106.991 28.458 106.991 28.4785V28.8339C106.991 28.8339 106.991 28.868 106.97 28.8885C106.957 28.9022 106.936 28.9159 106.916 28.9159H105.363V29.9273H106.78C106.78 29.9273 106.821 29.9342 106.834 29.9547C106.848 29.9683 106.855 29.9888 106.855 30.0093V30.3647C106.855 30.3647 106.848 30.3989 106.834 30.4194C106.821 30.433 106.8 30.4467 106.78 30.4467H105.363V31.506H107.032C107.032 31.506 107.073 31.5128 107.086 31.5333C107.1 31.547 107.107 31.5675 107.107 31.5948V31.9502C107.107 31.9502 107.107 31.9844 107.086 32.0049C107.073 32.0186 107.052 32.0322 107.032 32.0322H104.852C104.852 32.0322 104.818 32.0254 104.805 32.0049V31.9912Z" fill="#B62C5B"/>
<path d="M110.382 31.9287C110.382 31.9287 110.389 31.9629 110.389 31.9697C110.389 31.9971 110.375 32.0107 110.341 32.0107H109.857C109.803 32.0107 109.769 31.9834 109.755 31.9356L109.394 30.972C109.367 30.8968 109.347 30.8284 109.319 30.7806C109.292 30.7328 109.258 30.6918 109.217 30.6576C109.176 30.6303 109.135 30.6029 109.081 30.5961C109.026 30.5824 108.965 30.5824 108.89 30.5824H108.311V31.9424C108.311 31.9424 108.305 31.9766 108.291 31.9971C108.277 32.0107 108.257 32.0244 108.236 32.0244H107.801C107.801 32.0244 107.766 32.0176 107.753 31.9971C107.739 31.9834 107.732 31.9629 107.732 31.9424V28.4844C107.732 28.4844 107.739 28.4433 107.753 28.4297C107.766 28.416 107.787 28.4023 107.801 28.4023H108.89C109.074 28.4023 109.244 28.4228 109.408 28.457C109.565 28.498 109.708 28.5527 109.823 28.6415C109.939 28.7235 110.034 28.8329 110.103 28.9696C110.171 29.1063 110.205 29.2703 110.205 29.4685C110.205 29.5573 110.198 29.653 110.177 29.7418C110.164 29.8307 110.13 29.9195 110.089 30.0015C110.048 30.0835 110 30.1587 109.932 30.2339C109.871 30.3022 109.789 30.3637 109.694 30.4184C109.735 30.4594 109.776 30.5072 109.817 30.5688C109.857 30.6303 109.891 30.6986 109.925 30.7874L110.375 31.9424L110.382 31.9287ZM109.585 29.489C109.585 29.2634 109.53 29.1063 109.415 29.0174C109.299 28.9286 109.135 28.8876 108.917 28.8876H108.318V30.0972H108.924C109.149 30.0972 109.313 30.0494 109.421 29.9537C109.53 29.858 109.585 29.7008 109.585 29.489Z" fill="#B62C5B"/>
<path d="M112.031 31.587C112.235 31.587 112.392 31.5392 112.507 31.4503C112.623 31.3615 112.684 31.2385 112.684 31.095C112.684 30.9993 112.664 30.9104 112.63 30.8421C112.596 30.7738 112.541 30.7054 112.473 30.6508C112.405 30.5961 112.323 30.5414 112.221 30.5004C112.126 30.4526 112.017 30.4116 111.901 30.3637C111.758 30.309 111.622 30.2612 111.499 30.1997C111.37 30.145 111.261 30.0767 111.166 29.9947C111.07 29.9195 110.995 29.8238 110.934 29.7145C110.88 29.6051 110.852 29.4753 110.852 29.3181C110.852 29.0174 110.954 28.785 111.152 28.6142C111.349 28.4502 111.629 28.3613 111.983 28.3613C112.119 28.3613 112.255 28.3818 112.392 28.416C112.528 28.457 112.65 28.5117 112.759 28.5869C112.868 28.662 112.957 28.7645 113.025 28.8739C113.093 28.9901 113.127 29.1267 113.127 29.2839C113.127 29.2976 113.127 29.3113 113.12 29.3181C113.12 29.3249 113.1 29.3318 113.073 29.3318H112.63C112.63 29.3318 112.589 29.3318 112.582 29.3181C112.575 29.3113 112.569 29.2908 112.562 29.2703C112.528 29.1199 112.453 29.0106 112.344 28.9491C112.235 28.8807 112.112 28.8465 111.983 28.8465C111.826 28.8465 111.697 28.8807 111.601 28.9491C111.506 29.0174 111.458 29.1199 111.458 29.2566C111.458 29.3454 111.479 29.4206 111.52 29.4753C111.561 29.5368 111.622 29.5846 111.69 29.6325C111.765 29.6735 111.847 29.7145 111.942 29.7487C112.037 29.7828 112.133 29.8238 112.228 29.8648C112.385 29.9332 112.521 29.9947 112.65 30.063C112.78 30.1314 112.889 30.2134 112.984 30.3022C113.079 30.3911 113.154 30.4936 113.202 30.6166C113.256 30.7328 113.284 30.8694 113.284 31.0335C113.284 31.2043 113.25 31.3547 113.188 31.4777C113.127 31.6075 113.039 31.7169 112.923 31.8057C112.807 31.8946 112.678 31.9629 112.528 32.0039C112.378 32.0517 112.214 32.0722 112.044 32.0722C111.874 32.0722 111.724 32.0517 111.581 32.0107C111.438 31.9697 111.309 31.9014 111.2 31.8194C111.091 31.7305 111.002 31.628 110.927 31.4982C110.852 31.3683 110.811 31.218 110.784 31.0403C110.784 31.0403 110.784 31.0266 110.784 31.0198C110.784 31.0198 110.784 31.0061 110.784 30.9993C110.784 30.9856 110.784 30.972 110.791 30.9651C110.791 30.9651 110.811 30.9583 110.839 30.9583H111.288C111.288 30.9583 111.329 30.9583 111.336 30.972C111.343 30.9856 111.349 30.9993 111.356 31.0198C111.411 31.2248 111.492 31.3683 111.615 31.4572C111.738 31.546 111.881 31.587 112.044 31.587H112.031Z" fill="#B62C5B"/>
<path d="M113.903 28.4238C113.903 28.4238 113.937 28.3965 113.951 28.3965H114.38C114.38 28.3965 114.421 28.4033 114.434 28.4238C114.448 28.4375 114.455 28.458 114.455 28.4785V31.9365C114.455 31.9365 114.448 31.9707 114.434 31.9912C114.421 32.0049 114.4 32.0186 114.38 32.0186H113.951C113.951 32.0186 113.917 32.0117 113.903 31.9912C113.89 31.9776 113.883 31.9571 113.883 31.9365V28.4785C113.883 28.4785 113.89 28.4375 113.903 28.4238Z" fill="#B62C5B"/>
<path d="M117.725 28.4238C117.725 28.4238 117.745 28.458 117.745 28.4785V28.8339C117.745 28.8339 117.738 28.8749 117.725 28.8885C117.711 28.9022 117.69 28.909 117.67 28.909H116.689V31.9365C116.689 31.9365 116.682 31.9707 116.669 31.9912C116.655 32.0049 116.635 32.0186 116.614 32.0186H116.185C116.185 32.0186 116.144 32.0117 116.131 31.9912C116.117 31.9776 116.11 31.9571 116.11 31.9365V28.909H115.13C115.13 28.909 115.089 28.9022 115.075 28.8885C115.062 28.8749 115.055 28.8544 115.055 28.8339V28.4785C115.055 28.4785 115.062 28.4375 115.075 28.4238C115.089 28.4102 115.109 28.3965 115.13 28.3965H117.677C117.677 28.3965 117.718 28.4033 117.731 28.4238H117.725Z" fill="#B62C5B"/>
<path d="M120.394 28.4238C120.394 28.4238 120.428 28.3965 120.455 28.3965H120.939C120.98 28.3965 121 28.417 121 28.458C121 28.4648 121 28.4785 121 28.4785L119.897 30.6449V31.9365C119.897 31.9365 119.897 31.9707 119.877 31.9912C119.863 32.0049 119.843 32.0186 119.822 32.0186H119.366C119.366 32.0186 119.325 32.0117 119.311 31.9912C119.298 31.9776 119.291 31.9571 119.291 31.9365V30.6244L118.194 28.4785L118.188 28.458C118.188 28.4443 118.187 28.4307 118.208 28.417C118.222 28.4033 118.235 28.4033 118.249 28.4033H118.732C118.732 28.4033 118.78 28.4102 118.794 28.4307C118.807 28.4443 118.821 28.4648 118.828 28.4853L119.597 29.9957L120.367 28.4853C120.367 28.4853 120.387 28.4443 120.401 28.4307L120.394 28.4238Z" fill="#B62C5B"/>
<path d="M30.1108 8.96635L30.0495 8.95268C28.7078 8.61781 27.3592 8.33762 26.0107 8.11209C25.8745 8.09159 25.7519 8.1941 25.7519 8.33078V10.4767C25.7519 10.8389 25.4386 11.1191 25.0776 11.0849C23.0412 10.8594 20.998 10.709 18.9548 10.6475V7.62687C18.9548 7.47652 18.839 7.3535 18.6891 7.3535C18.2805 7.33984 17.4564 7.3125 16.5369 7.3125C15.6175 7.3125 14.7934 7.33984 14.3847 7.3535C14.2349 7.3535 14.1191 7.48335 14.1191 7.62687V10.6475C12.1236 10.709 10.128 10.8526 8.13927 11.0644C8.09159 11.0644 8.0371 11.0781 7.98943 11.0781C7.63527 11.1191 7.32197 10.8389 7.32197 10.4835V8.39912C7.32197 8.22827 7.16533 8.09842 7.00187 8.12576C5.66696 8.35128 4.34567 8.63148 3.02438 8.95952L2.96309 8.97319C2.84049 9.00052 2.75195 9.1167 2.75195 9.23972V17.0648C2.75195 18.5204 2.90179 19.9488 3.18784 21.3497C3.38535 22.327 3.65097 23.2906 3.97108 24.2269C5.10167 27.7875 7.19257 30.938 9.97817 33.3094C11.8784 35.0111 14.0987 36.3643 16.5437 37.239C18.9888 36.3643 21.2023 35.018 23.1093 33.3094C25.8949 30.938 27.9858 27.7875 29.1164 24.2269C29.4433 23.2906 29.7021 22.3339 29.8997 21.3497C30.1857 19.9556 30.3287 18.5204 30.3355 17.0648V9.23972C30.3355 9.10987 30.247 9.00052 30.1244 8.97319L30.1108 8.96635ZM7.77148 21.2677C7.35603 19.3474 7.30154 18.2607 7.30154 15.7458C9.37883 15.4929 11.2722 15.3494 13.3904 15.2606C12.4096 17.9805 10.4822 20.2631 7.77148 21.2746V21.2677ZM16.5233 32.38C13.8467 31.3412 11.3608 29.4003 9.45374 25.8466C12.253 24.7736 14.7389 22.7507 16.5233 19.6959C18.3077 22.7507 20.7937 24.7736 23.5929 25.8466C21.6791 29.4003 19.1931 31.3412 16.5233 32.38ZM25.282 21.2677C22.5781 20.2631 20.6438 17.9805 19.6563 15.2537C21.7812 15.3426 23.6678 15.4861 25.7519 15.7389C25.7519 18.2539 25.6974 19.3405 25.282 21.2609V21.2677Z" fill="#B62C5B"/>
<path d="M4.72019 6.86135C4.27749 6.25995 3.82798 5.66538 3.38528 5.07082V7.16889C3.16733 7.22356 2.94939 7.27823 2.73145 7.3329V3.91585C2.92896 3.86802 3.11966 3.82018 3.31717 3.7655C3.75987 4.35324 4.20257 4.9478 4.65208 5.5492V3.45797C4.87002 3.41013 5.08797 3.36229 5.31272 3.31445V6.7315C5.11521 6.77251 4.9177 6.81351 4.727 6.85452L4.72019 6.86135Z" fill="#B62C5B"/>
<path d="M7.98221 5.91158C7.74384 6.19178 7.45097 6.36947 7.06276 6.43781C6.67455 6.50615 6.38168 6.42414 6.14331 6.23279C5.80277 5.95259 5.80958 5.52204 5.80958 4.93431C5.80958 4.34657 5.80277 3.91602 6.14331 3.50598C6.38168 3.21895 6.67455 3.03443 7.06276 2.96608C7.45097 2.89774 7.73703 2.98659 7.98221 3.19161C8.32275 3.48548 8.32275 3.90919 8.32275 4.50376C8.32275 5.09832 8.32275 5.52204 7.98221 5.91842V5.91158ZM7.49184 3.66316C7.39649 3.56749 7.24665 3.51965 7.06957 3.55382C6.88568 3.58799 6.73584 3.68367 6.64049 3.81351C6.51109 3.98437 6.47704 4.14838 6.47704 4.80446C6.47704 5.46053 6.51109 5.61088 6.64049 5.7339C6.73584 5.82957 6.88568 5.87058 7.06957 5.84324C7.25346 5.80907 7.39649 5.71339 7.49184 5.59038C7.62124 5.42636 7.66211 5.26234 7.66211 4.60627C7.66211 3.9502 7.62124 3.79301 7.49184 3.67683V3.66316Z" fill="#B62C5B"/>
<path d="M10.0526 5.97366C9.88914 5.99416 9.71887 6.01466 9.55542 6.03517C9.18082 4.94171 8.80623 3.85509 8.43164 2.7753C8.66321 2.74113 8.88796 2.70696 9.11953 2.67962C9.34428 3.39037 9.57585 4.10111 9.80741 4.8187C10.039 4.04644 10.2637 3.28102 10.4953 2.50877C10.7269 2.48143 10.9584 2.46093 11.19 2.43359C10.8086 3.60906 10.434 4.79136 10.0594 5.97366H10.0526Z" fill="#B62C5B"/>
<path d="M13.1516 5.69343C13.0835 5.49524 13.0154 5.29705 12.9472 5.09886C12.5386 5.1262 12.1368 5.15353 11.7281 5.19454C11.66 5.39956 11.5919 5.61142 11.5238 5.81644C11.2922 5.83694 11.0607 5.85745 10.8291 5.88478C11.2446 4.70248 11.66 3.52702 12.0755 2.35155C12.2526 2.33788 12.4228 2.32422 12.5999 2.31055C13.0154 3.41767 13.4308 4.53163 13.8531 5.65242C13.6215 5.66609 13.3899 5.67976 13.1516 5.69343ZM12.3547 3.33566C12.2117 3.75938 12.0687 4.18992 11.9188 4.61364C12.2049 4.59314 12.4841 4.5658 12.7702 4.55213C12.634 4.14892 12.4909 3.74571 12.3547 3.33566Z" fill="#B62C5B"/>
<path d="M17.299 5.59771C17.2309 5.39269 17.1628 5.1945 17.0947 4.98948C16.686 4.98948 16.2842 4.98948 15.8756 4.98948C15.8075 5.1945 15.7393 5.39269 15.6712 5.59771C15.4397 5.59771 15.2081 5.60455 14.9697 5.61138C15.3852 4.46325 15.8006 3.31512 16.2161 2.17383C16.3932 2.17383 16.5634 2.17383 16.7405 2.17383C17.156 3.31512 17.5782 4.46325 17.9937 5.61138C17.7621 5.61138 17.5306 5.59771 17.2922 5.59771H17.299ZM16.5021 3.17844C16.3591 3.59532 16.2161 4.00537 16.0663 4.42225C16.3523 4.42225 16.6384 4.42225 16.9176 4.42225C16.7746 4.00537 16.6384 3.59532 16.4953 3.17844H16.5021Z" fill="#B62C5B"/>
<path d="M19.6562 4.39492C19.4383 4.38125 19.2135 4.37442 18.9956 4.36075V5.64556C18.7708 5.63873 18.5461 5.62506 18.3281 5.61822V2.20117C18.7708 2.21484 19.2135 2.23534 19.6562 2.26268C20.3645 2.30368 20.7868 2.82308 20.7868 3.40397C20.7868 3.98487 20.3645 4.43592 19.6562 4.39492ZM19.6222 2.85725C19.411 2.84358 19.2067 2.83674 18.9956 2.82308V3.75935C19.2067 3.76618 19.411 3.77985 19.6222 3.79352C19.9287 3.81402 20.1194 3.63633 20.1194 3.35614C20.1194 3.07594 19.9287 2.87091 19.6222 2.85725Z" fill="#B62C5B"/>
<path d="M21.1885 5.78814V2.37109C21.9377 2.4326 22.6937 2.51461 23.4428 2.61029V3.20485C22.9184 3.13651 22.3872 3.08184 21.8559 3.02717V3.82676C22.3054 3.86776 22.755 3.92244 23.2045 3.97711V4.57167C22.755 4.517 22.3054 4.46916 21.8559 4.42132V5.25509C22.3872 5.30292 22.9116 5.36443 23.4428 5.43277V6.02734C22.6937 5.93166 21.9445 5.85649 21.1885 5.78814Z" fill="#B62C5B"/>
<path d="M25.7111 6.35643C25.4932 5.86438 25.2684 5.37232 25.0505 4.8871C24.8938 4.85976 24.7304 4.83926 24.5737 4.81192V6.17191C24.349 6.13774 24.131 6.1104 23.9062 6.07623V2.66602C24.3489 2.72752 24.7985 2.78903 25.2412 2.8642C25.9359 2.97355 26.3445 3.52711 26.3445 4.10118C26.3445 4.57956 26.0516 4.82559 25.7247 4.8871C25.9767 5.42016 26.2287 5.96005 26.4807 6.49311C26.2287 6.44527 25.9699 6.40427 25.7111 6.35643ZM25.2003 3.45194C24.9892 3.41777 24.7848 3.3836 24.5737 3.35626V4.25836C24.7848 4.2857 24.9892 4.31987 25.2003 4.35404C25.4932 4.40188 25.6839 4.24469 25.6839 3.985C25.6839 3.7253 25.4932 3.49978 25.2003 3.45194Z" fill="#B62C5B"/>
<path d="M26.7734 6.54791V3.13086C26.9914 3.17186 27.2161 3.21287 27.4341 3.26071V6.67776C27.2161 6.63675 26.9914 6.58892 26.7734 6.54791Z" fill="#B62C5B"/>
<path d="M29.9813 6.90867C29.7429 7.09319 29.4569 7.1547 29.0755 7.06586C28.6941 6.97701 28.4012 6.77882 28.1628 6.48496C27.8223 6.06808 27.8291 5.64436 27.8291 5.0498C27.8291 4.46206 27.8223 4.03152 28.1628 3.75815C28.4012 3.5668 28.6941 3.49846 29.0755 3.5873C29.4569 3.67614 29.7429 3.88117 29.9813 4.18187C30.3219 4.61241 30.315 5.04296 30.315 5.6307C30.315 6.21843 30.315 6.64898 29.9813 6.90867ZM29.4977 4.46206C29.4024 4.32538 29.2594 4.22287 29.0755 4.18187C28.8984 4.14086 28.7418 4.18187 28.6532 4.26388C28.5238 4.38005 28.4898 4.53041 28.4898 5.18648C28.4898 5.84255 28.5238 6.00657 28.6532 6.18426C28.7486 6.31411 28.8984 6.42345 29.0755 6.46446C29.2526 6.50546 29.4024 6.46446 29.4977 6.38245C29.6272 6.26627 29.6612 6.12275 29.6612 5.45984C29.6612 4.79694 29.6203 4.63292 29.4977 4.46206Z" fill="#B62C5B"/>
<path d="M13.8869 28.2376V26.3173L13.4033 26.741V26.2694L13.8869 25.8457H14.3228V28.2376H13.8869Z" fill="#B62C5B"/>
<path d="M16.1418 27.1988L15.6378 28.2308H15.1678L15.665 27.2467C15.6105 27.2672 15.5424 27.274 15.4879 27.274C15.1678 27.274 14.8613 27.0075 14.8613 26.5633C14.8613 26.0917 15.1814 25.8184 15.6037 25.8184C16.026 25.8184 16.3461 26.0849 16.3461 26.5564C16.3461 26.7751 16.2575 26.9733 16.1486 27.192L16.1418 27.1988ZM15.5969 26.2147C15.4198 26.2147 15.2904 26.3446 15.2904 26.5633C15.2904 26.782 15.413 26.9118 15.5969 26.9118C15.7808 26.9118 15.9034 26.782 15.9034 26.5633C15.9034 26.3446 15.774 26.2147 15.5969 26.2147Z" fill="#B62C5B"/>
<path d="M17.9124 28.0609C17.8034 28.1703 17.6331 28.2523 17.3879 28.2523C17.1427 28.2523 16.9589 28.1634 16.8567 28.0609C16.7069 27.9106 16.6728 27.7397 16.6592 27.562H17.0951C17.1223 27.7534 17.204 27.8559 17.3879 27.8559C17.4697 27.8559 17.5446 27.8354 17.5923 27.7807C17.6672 27.7056 17.6876 27.5757 17.6876 27.4254C17.6876 27.152 17.6059 26.9948 17.3947 26.9948C17.2177 26.9948 17.1359 27.0973 17.1087 27.193H16.7137V25.8398H18.069V26.2362H17.1019V26.7488C17.1632 26.6873 17.2994 26.6258 17.4628 26.6258C17.6604 26.6258 17.8102 26.6873 17.9056 26.7898C18.0894 26.9811 18.1167 27.1998 18.1167 27.4254C18.1167 27.6919 18.0826 27.8832 17.9056 28.0541L17.9124 28.0609Z" fill="#B62C5B"/>
<path d="M19.009 28.2376V26.3173L18.5254 26.741V26.2694L19.009 25.8457H19.4448V28.2376H19.009Z" fill="#B62C5B"/>
<path d="M32.9573 2.42611C32.8483 2.39194 32.7393 2.35777 32.6304 2.33043C27.4678 0.79959 22.1145 0.0205023 16.7136 0C16.6523 0 16.5842 0 16.5229 0C16.4616 0 16.3935 0 16.3322 0C10.9313 0.0205023 5.57801 0.79959 0.422267 2.33043C0.313295 2.3646 0.204323 2.39194 0.0953507 2.42611L0 2.45344V17.0989C0 27.2749 6.25228 36.3369 15.549 39.6651L16.4752 39.9863L16.5161 40L16.557 39.9863L17.4832 39.6651C26.7867 36.3438 33.0322 27.2749 33.0322 17.0989V2.45344L32.9368 2.42611H32.9573ZM16.5229 39.5079L15.7056 39.2277C6.58601 35.9747 0.463132 27.0835 0.463132 17.0989V2.80198C5.23748 1.38049 10.1617 0.601401 15.1063 0.478387C16.053 0.457885 16.9997 0.457885 17.9464 0.478387C22.891 0.601401 27.8152 1.37365 32.5895 2.79515V17.0989C32.5895 27.0767 26.4598 35.9679 17.347 39.2277L16.5229 39.5079Z" fill="#B62C5B"/>
</g>
<defs>
<clipPath id="clip0_131_7">
<rect width="121" height="40" fill="white"/>
</clipPath>
</defs>
</svg>
