<svg width="230" height="40" viewBox="0 0 230 40" fill="none" xmlns="http://www.w3.org/2000/svg">
<path d="M39.9808 19.9967C39.9808 31.0453 31.0304 40 19.9937 40C8.95702 40 0 31.0453 0 19.9967C0 8.94815 8.95044 0 19.9871 0C31.0238 0 39.9742 8.95473 39.9742 19.9967H39.9808Z" fill="white"/>
<path d="M29.385 18.6077C26.2062 16.448 22.1325 17.3303 20.0002 20.5764C18.2166 23.2892 15.5249 23.625 14.4785 23.625C11.076 23.625 8.74629 21.2349 8.06185 18.7592C8.06185 18.7592 8.04868 18.7131 8.0421 18.6867C8.03552 18.6604 8.02894 18.634 8.02236 18.6011C7.75253 17.5674 7.68672 17.0736 7.68672 15.974C7.68672 10.048 13.7612 3.45709 22.5076 3.45709C31.254 3.45709 36.5914 10.2785 37.9076 14.0711C37.8879 14.0052 37.8615 13.9394 37.8418 13.867C35.2949 6.46615 28.2661 1.13281 19.9936 1.13281C9.57552 1.13281 1.13184 9.58055 1.13184 20.0036C1.13184 29.3205 7.85125 37.2941 17.1637 37.2941C24.5938 37.2941 29.5824 33.1262 31.8727 27.3847C33.1297 24.2439 32.2412 20.5501 29.385 18.6143V18.6077Z" fill="#003562"/>
<path d="M38.019 14.4456C36.92 10.7452 31.7537 3.46289 22.5006 3.46289C13.7541 3.46289 7.67969 10.0538 7.67969 15.9798C7.67969 17.0794 7.7455 17.5732 8.01533 18.6069C7.89687 18.1526 7.84422 17.7049 7.84422 17.2637C7.84422 11.0942 14.0174 6.82091 20.3617 6.82091C28.9501 6.82091 35.9131 13.7872 35.9131 22.3732C35.9131 29.109 32.0367 34.9427 26.4098 37.7411C33.6689 35.1139 38.8483 28.1608 38.8483 19.9962C38.8483 18.0604 38.5916 16.3617 38.019 14.4456Z" fill="#E00522"/>
<path d="M52.2222 31.2627L50.0241 26.5154V31.2627H49.0566V25.4355H50.4913L52.6895 30.2026V25.4355H53.6569V31.2627H52.2222Z" fill="#595857"/>
<path d="M56.5723 28.5646H57.5595C57.5595 28.2881 57.4542 28.084 57.2436 27.9523C57.033 27.814 56.7237 27.7482 56.3222 27.7482H56.2959C55.9142 27.7482 55.5193 27.8403 55.0915 28.0181L54.848 27.2741C55.289 27.0831 55.776 26.9844 56.3025 26.9844H56.3222C57.0264 26.9844 57.5595 27.1226 57.9412 27.3926C58.3163 27.6626 58.5072 28.0905 58.5072 28.6831V31.2774H57.6056V30.8165C57.4279 30.9943 57.2107 31.1325 56.9474 31.2313C56.6908 31.3301 56.4275 31.3761 56.1577 31.3761C55.6575 31.3761 55.2495 31.2445 54.9402 30.9811C54.6309 30.7177 54.4795 30.3885 54.4795 30.0066C54.4795 29.5786 54.6704 29.2231 55.0586 28.9465C55.414 28.7029 55.9208 28.5778 56.5789 28.5778L56.5723 28.5646ZM56.3156 30.6124C56.5592 30.6124 56.8027 30.5531 57.0396 30.4346C57.2765 30.3161 57.4542 30.1778 57.5595 30.0198V29.3087H56.7171C56.2367 29.3087 55.901 29.3679 55.7168 29.493C55.5325 29.6313 55.4403 29.8025 55.4403 29.9934C55.4403 30.1712 55.5193 30.3226 55.6773 30.4346C55.8352 30.5465 56.0458 30.6124 56.3222 30.6124H56.3156Z" fill="#595857"/>
<path d="M60.8108 25.7324V27.0756H61.719V27.846H60.8108V29.9793C60.8108 30.1769 60.8568 30.3151 60.9556 30.3941C61.0543 30.4732 61.1925 30.5061 61.3702 30.5061H61.719V31.2699H61.1398C60.6857 31.2699 60.3632 31.1711 60.1526 30.967C59.942 30.7629 59.8433 30.4666 59.8433 30.0715V27.846H59.126V27.0756H59.8433V25.7324H60.8042H60.8108Z" fill="#595857"/>
<path d="M63.5947 25.7718C63.5947 25.9298 63.5355 26.0681 63.417 26.1866C63.2986 26.3051 63.1538 26.3644 62.9893 26.3644C62.8247 26.3644 62.6799 26.3051 62.5615 26.1866C62.443 26.0681 62.3838 25.9298 62.3838 25.7718C62.3838 25.6072 62.443 25.4623 62.5615 25.3438C62.6799 25.2253 62.8247 25.166 62.9893 25.166C63.1538 25.166 63.2986 25.2253 63.417 25.3438C63.5355 25.4623 63.5947 25.6072 63.5947 25.7718ZM62.522 31.2631V27.0755H63.4763V31.2631H62.522Z" fill="#595857"/>
<path d="M66.5365 31.3696C65.9244 31.3696 65.4045 31.1589 64.9702 30.7375C64.5358 30.3161 64.3252 29.7959 64.3252 29.177C64.3252 28.558 64.5424 28.0379 64.9702 27.6165C65.4045 27.1951 65.9244 26.9844 66.5365 26.9844C67.1485 26.9844 67.6816 27.1951 68.1094 27.6165C68.5372 28.0379 68.7543 28.558 68.7543 29.177C68.7543 29.7959 68.5372 30.3161 68.1094 30.7375C67.6816 31.1589 67.1551 31.3696 66.5365 31.3696ZM66.5365 30.5794C66.8787 30.5794 67.1814 30.4478 67.4249 30.1844C67.675 29.921 67.8001 29.5852 67.8001 29.177C67.8001 28.7687 67.675 28.4395 67.4249 28.1696C67.1749 27.8996 66.8787 27.7613 66.5365 27.7613C66.1943 27.7613 65.9047 27.8996 65.6546 28.1696C65.4045 28.4395 65.2861 28.7753 65.2861 29.177C65.2861 29.5786 65.4111 29.921 65.6546 30.1844C65.9047 30.4478 66.1943 30.5794 66.5365 30.5794Z" fill="#595857"/>
<path d="M70.4919 29.156V31.263H69.5508V27.0753H70.459V27.635C70.5709 27.4375 70.7354 27.2794 70.946 27.1609C71.1566 27.0424 71.3869 26.9766 71.6304 26.9766C72.124 26.9766 72.5255 27.1478 72.8216 27.4836C73.1178 27.8194 73.2692 28.2737 73.2692 28.8334V31.263H72.3149V29.0704C72.3149 28.6227 72.2425 28.2934 72.0977 28.0827C71.9529 27.8655 71.7292 27.7601 71.4264 27.7601C71.2685 27.7601 71.1171 27.8128 70.9723 27.9115C70.8275 28.0169 70.7091 28.1552 70.6367 28.3329C70.5445 28.5371 70.4919 28.8136 70.4919 29.1494V29.156Z" fill="#595857"/>
<path d="M76.1583 28.5646H77.1454C77.1454 28.2881 77.0401 28.084 76.8295 27.9523C76.6189 27.814 76.3096 27.7482 75.9082 27.7482H75.8818C75.5001 27.7482 75.1053 27.8403 74.6775 28.0181L74.434 27.2741C74.8749 27.0831 75.3619 26.9844 75.8884 26.9844H75.9082C76.6124 26.9844 77.1454 27.1226 77.5271 27.3926C77.9023 27.6626 78.0931 28.0905 78.0931 28.6831V31.2774H77.1915V30.8165C77.0138 30.9943 76.7966 31.1325 76.5334 31.2313C76.2767 31.3301 76.0135 31.3761 75.7436 31.3761C75.2435 31.3761 74.8354 31.2445 74.5261 30.9811C74.2168 30.7177 74.0654 30.3885 74.0654 30.0066C74.0654 29.5786 74.2563 29.2231 74.6446 28.9465C75 28.7029 75.5067 28.5778 76.1648 28.5778L76.1583 28.5646ZM75.895 30.6124C76.1385 30.6124 76.382 30.5531 76.6189 30.4346C76.8559 30.3161 77.0336 30.1778 77.1389 30.0198V29.3087H76.2965C75.816 29.3087 75.4804 29.3679 75.2961 29.493C75.1118 29.6313 75.0197 29.8025 75.0197 29.9934C75.0197 30.1712 75.0987 30.3226 75.2566 30.4346C75.4146 30.5465 75.6252 30.6124 75.9016 30.6124H75.895Z" fill="#595857"/>
<path d="M79.1719 31.2637V25.0547H80.113V31.2637H79.1719Z" fill="#595857"/>
<path d="M86.3257 28.9648L88.0039 31.2627H86.8522L85.2924 29.0306H84.7067V31.2627H83.7393V25.4355H85.6215C86.3257 25.4355 86.8653 25.6002 87.2405 25.9294C87.6156 26.2586 87.8064 26.6932 87.8064 27.2331C87.8064 27.773 87.6222 28.2076 87.247 28.5368C87.0035 28.7409 86.6942 28.8858 86.3257 28.9648ZM86.8193 27.2397C86.8193 26.917 86.7074 26.6734 86.4902 26.5022C86.273 26.3376 85.9045 26.252 85.3977 26.252H84.7067V28.2273H85.3977C85.9045 28.2273 86.2664 28.1417 86.4902 27.9771C86.7074 27.8125 86.8193 27.5623 86.8193 27.2397Z" fill="#595857"/>
<path d="M89.2945 29.5984C89.3472 29.8552 89.4722 30.0659 89.6565 30.2239C89.9263 30.4675 90.2751 30.5926 90.7161 30.5926C91.1768 30.5926 91.6111 30.4214 92.0126 30.0856L92.2956 30.7901C91.8415 31.1786 91.3084 31.3761 90.6898 31.3761C89.979 31.3761 89.4064 31.1786 88.9655 30.777C88.5245 30.3753 88.3008 29.8486 88.3008 29.1967C88.3008 28.5449 88.4982 28.0247 88.8931 27.6099C89.288 27.1951 89.8013 26.9844 90.4331 26.9844C91.0649 26.9844 91.5651 27.1885 91.9665 27.6033C92.3614 28.0181 92.5654 28.5251 92.5654 29.1309C92.5654 29.2955 92.5522 29.4535 92.5259 29.5984H89.3011H89.2945ZM89.2748 28.8412H91.598C91.5848 28.5646 91.4729 28.321 91.2557 28.0905C91.0386 27.8667 90.7621 27.7547 90.4265 27.7547C90.0909 27.7547 89.7947 27.8798 89.5775 28.1235C89.413 28.3078 89.3143 28.5449 89.2748 28.8412Z" fill="#595857"/>
<path d="M92.9668 30.4868L93.5591 29.8744C93.7236 30.1049 93.9079 30.2826 94.1119 30.4077C94.3094 30.5263 94.5134 30.5855 94.7371 30.5855C94.9477 30.5855 95.1254 30.5394 95.2768 30.4538C95.4216 30.3682 95.5006 30.2497 95.5006 30.1049C95.5006 29.96 95.4282 29.8481 95.29 29.7691C95.1452 29.69 94.9807 29.611 94.7832 29.5386C94.5529 29.4662 94.3225 29.3872 94.079 29.295C93.7565 29.1765 93.5196 29.025 93.3683 28.8407C93.2169 28.6563 93.1445 28.4456 93.1445 28.2151C93.1445 27.8728 93.309 27.5765 93.6315 27.3328C93.954 27.0892 94.3357 26.9707 94.7766 26.9707C95.2439 26.9707 95.6256 27.0826 95.9218 27.3065C96.0731 27.425 96.1916 27.5699 96.2837 27.7411L95.698 28.3073C95.619 28.1756 95.5269 28.0637 95.4216 27.9781C95.2373 27.8135 95.007 27.7345 94.7306 27.7345C94.566 27.7345 94.4278 27.774 94.3094 27.853C94.1909 27.932 94.1317 28.0308 94.1317 28.1427C94.1317 28.2678 94.1975 28.3666 94.3291 28.4522C94.4607 28.5378 94.6582 28.6168 94.9214 28.6958C95.0136 28.7221 95.1254 28.7551 95.2505 28.7946C95.6585 28.9263 95.9678 29.104 96.1719 29.3147C96.3824 29.5254 96.4877 29.7822 96.4877 30.0785C96.4877 30.4209 96.3232 30.7238 95.9876 30.9806C95.6519 31.2308 95.2242 31.3625 94.7108 31.3625C94.2765 31.3625 93.8948 31.2637 93.5591 31.0596C93.3354 30.9279 93.1445 30.7304 92.98 30.4802L92.9668 30.4868Z" fill="#595857"/>
<path d="M97.9088 29.5984C97.9615 29.8552 98.0865 30.0659 98.2708 30.2239C98.5406 30.4675 98.8894 30.5926 99.3303 30.5926C99.791 30.5926 100.225 30.4214 100.627 30.0856L100.91 30.7901C100.456 31.1786 99.9227 31.3761 99.304 31.3761C98.5932 31.3761 98.0207 31.1786 97.5797 30.777C97.1388 30.3753 96.915 29.8486 96.915 29.1967C96.915 28.5449 97.1125 28.0247 97.5074 27.6099C97.9022 27.1951 98.4156 26.9844 99.0474 26.9844C99.6791 26.9844 100.179 27.1885 100.581 27.6033C100.976 28.0181 101.18 28.5251 101.18 29.1309C101.18 29.2955 101.166 29.4535 101.14 29.5984H97.9154H97.9088ZM97.8956 28.8412H100.219C100.206 28.5646 100.094 28.321 99.8766 28.0905C99.6594 27.8667 99.383 27.7547 99.0474 27.7547C98.7117 27.7547 98.4156 27.8798 98.1984 28.1235C98.0339 28.3078 97.9351 28.5449 97.8956 28.8412Z" fill="#595857"/>
<path d="M103.773 28.5646H104.76C104.76 28.2881 104.654 28.084 104.444 27.9523C104.233 27.814 103.924 27.7482 103.522 27.7482H103.496C103.114 27.7482 102.72 27.8403 102.292 28.0181L102.048 27.2741C102.489 27.0831 102.976 26.9844 103.503 26.9844H103.522C104.227 26.9844 104.76 27.1226 105.141 27.3926C105.517 27.6626 105.707 28.0905 105.707 28.6831V31.2774H104.806V30.8165C104.628 30.9943 104.411 31.1325 104.148 31.2313C103.891 31.3301 103.628 31.3761 103.358 31.3761C102.858 31.3761 102.45 31.2445 102.14 30.9811C101.831 30.7177 101.68 30.3885 101.68 30.0066C101.68 29.5786 101.871 29.2231 102.259 28.9465C102.614 28.7029 103.121 28.5778 103.779 28.5778L103.773 28.5646ZM103.516 30.6124C103.759 30.6124 104.003 30.5531 104.24 30.4346C104.477 30.3161 104.654 30.1778 104.76 30.0198V29.3087H103.917C103.437 29.3087 103.101 29.3679 102.917 29.493C102.733 29.6313 102.641 29.8025 102.641 29.9934C102.641 30.1712 102.72 30.3226 102.877 30.4346C103.035 30.5465 103.246 30.6124 103.522 30.6124H103.516Z" fill="#595857"/>
<path d="M106.787 31.2633V27.0756H107.682V27.7011C107.82 27.497 107.991 27.339 108.189 27.227C108.426 27.0822 108.709 27.0098 109.031 27.0098H109.097V27.8591H108.998C108.604 27.8591 108.288 27.9777 108.057 28.2213C107.84 28.4583 107.728 28.8205 107.728 29.3143V31.2633H106.787Z" fill="#595857"/>
<path d="M109.38 29.177C109.38 28.5778 109.604 28.0576 110.058 27.6296C110.512 27.1951 111.084 26.9844 111.782 26.9844C112.328 26.9844 112.842 27.1622 113.322 27.5111L113.013 28.2552C112.598 27.9325 112.183 27.7679 111.782 27.7679C111.354 27.7679 111.005 27.9062 110.736 28.1761C110.466 28.4461 110.334 28.7819 110.334 29.177C110.334 29.572 110.466 29.9078 110.736 30.1778C111.005 30.4478 111.354 30.586 111.782 30.586C112.21 30.586 112.605 30.428 113.026 30.1119L113.335 30.856C112.875 31.1984 112.355 31.3761 111.782 31.3761C111.084 31.3761 110.512 31.1589 110.058 30.7309C109.604 30.3029 109.38 29.7893 109.38 29.1836V29.177Z" fill="#595857"/>
<path d="M115.119 31.2637H114.178V25.0547H115.119V27.5765C115.231 27.4053 115.389 27.2604 115.586 27.1485C115.784 27.0366 116.007 26.9773 116.257 26.9773C116.751 26.9773 117.152 27.1485 117.449 27.4843C117.745 27.8201 117.896 28.2744 117.896 28.8341V31.2637H116.942V29.0712C116.942 28.6234 116.869 28.2942 116.725 28.0835C116.58 27.8662 116.356 27.7609 116.053 27.7609C115.895 27.7609 115.744 27.8135 115.599 27.9123C115.454 28.0177 115.336 28.1559 115.264 28.3337C115.171 28.5378 115.119 28.8144 115.119 29.1502V31.2572V31.2637Z" fill="#595857"/>
<path d="M121.489 31.2627V25.4355H122.47V31.2627H121.489Z" fill="#595857"/>
<path d="M124.563 29.156V31.263H123.622V27.0753H124.53V27.635C124.642 27.4375 124.807 27.2794 125.017 27.1609C125.228 27.0424 125.458 26.9766 125.702 26.9766C126.195 26.9766 126.597 27.1478 126.893 27.4836C127.189 27.8194 127.34 28.2737 127.34 28.8334V31.263H126.386V29.0704C126.386 28.6227 126.314 28.2934 126.169 28.0827C126.024 27.8655 125.8 27.7601 125.498 27.7601C125.34 27.7601 125.188 27.8128 125.044 27.9115C124.899 28.0169 124.78 28.1552 124.708 28.3329C124.616 28.5371 124.563 28.8136 124.563 29.1494V29.156Z" fill="#595857"/>
<path d="M128.038 30.4868L128.63 29.8744C128.795 30.1049 128.979 30.2826 129.183 30.4077C129.381 30.5263 129.585 30.5855 129.808 30.5855C130.019 30.5855 130.197 30.5394 130.348 30.4538C130.493 30.3682 130.572 30.2497 130.572 30.1049C130.572 29.96 130.499 29.8481 130.361 29.7691C130.216 29.69 130.052 29.611 129.854 29.5386C129.624 29.4662 129.394 29.3872 129.15 29.295C128.828 29.1765 128.591 29.025 128.44 28.8407C128.288 28.6563 128.216 28.4456 128.216 28.2151C128.216 27.8728 128.38 27.5765 128.703 27.3328C129.025 27.0892 129.407 26.9707 129.848 26.9707C130.315 26.9707 130.697 27.0826 130.993 27.3065C131.144 27.425 131.263 27.5699 131.355 27.7411L130.769 28.3073C130.69 28.1756 130.598 28.0637 130.493 27.9781C130.309 27.8135 130.078 27.7345 129.802 27.7345C129.637 27.7345 129.499 27.774 129.381 27.853C129.262 27.932 129.203 28.0308 129.203 28.1427C129.203 28.2678 129.269 28.3666 129.4 28.4522C129.532 28.5378 129.729 28.6168 129.993 28.6958C130.085 28.7221 130.197 28.7551 130.322 28.7946C130.73 28.9263 131.039 29.104 131.243 29.3147C131.454 29.5254 131.559 29.7822 131.559 30.0785C131.559 30.4209 131.394 30.7238 131.059 30.9806C130.723 31.2308 130.295 31.3625 129.782 31.3625C129.348 31.3625 128.966 31.2637 128.63 31.0596C128.407 30.9279 128.216 30.7304 128.051 30.4802L128.038 30.4868Z" fill="#595857"/>
<path d="M133.5 25.7324V27.0756H134.408V27.846H133.5V29.9793C133.5 30.1769 133.546 30.3151 133.645 30.3941C133.744 30.4732 133.882 30.5061 134.06 30.5061H134.408V31.2699H133.829C133.375 31.2699 133.053 31.1711 132.842 30.967C132.632 30.7629 132.533 30.4666 132.533 30.0715V27.846H131.815V27.0756H132.533V25.7324H133.494H133.5Z" fill="#595857"/>
<path d="M136.29 25.7718C136.29 25.9298 136.231 26.0681 136.112 26.1866C135.994 26.3051 135.849 26.3644 135.685 26.3644C135.52 26.3644 135.375 26.3051 135.257 26.1866C135.138 26.0681 135.079 25.9298 135.079 25.7718C135.079 25.6072 135.138 25.4623 135.257 25.3438C135.375 25.2253 135.52 25.166 135.685 25.166C135.849 25.166 135.994 25.2253 136.112 25.3438C136.231 25.4623 136.29 25.6072 136.29 25.7718ZM135.211 31.2631V27.0755H136.165V31.2631H135.211Z" fill="#595857"/>
<path d="M138.529 25.7324V27.0756H139.437V27.846H138.529V29.9793C138.529 30.1769 138.575 30.3151 138.673 30.3941C138.772 30.4732 138.91 30.5061 139.088 30.5061H139.437V31.2699H138.858C138.404 31.2699 138.081 31.1711 137.87 30.967C137.66 30.7629 137.561 30.4666 137.561 30.0715V27.846H136.844V27.0756H137.561V25.7324H138.522H138.529Z" fill="#595857"/>
<path d="M142.977 29.1832V27.0762H143.931V31.2638H143.023V30.7107C142.905 30.9149 142.747 31.0729 142.556 31.1782C142.325 31.3033 142.089 31.3626 141.845 31.3626C141.351 31.3626 140.963 31.198 140.66 30.8622C140.364 30.5264 140.213 30.0786 140.213 29.5058V27.0762H141.154V29.2753C141.154 29.7165 141.226 30.0457 141.378 30.2564C141.523 30.4737 141.746 30.5791 142.049 30.5791C142.2 30.5791 142.352 30.5264 142.503 30.421C142.655 30.3157 142.766 30.1774 142.845 30.0062C142.938 29.8021 142.977 29.5256 142.977 29.1766V29.1832Z" fill="#595857"/>
<path d="M146.235 25.7324V27.0756H147.143V27.846H146.235V29.9793C146.235 30.1769 146.281 30.3151 146.379 30.3941C146.478 30.4732 146.616 30.5061 146.794 30.5061H147.143V31.2699H146.564C146.11 31.2699 145.787 31.1711 145.576 30.967C145.366 30.7629 145.267 30.4666 145.267 30.0715V27.846H144.55V27.0756H145.267V25.7324H146.228H146.235Z" fill="#595857"/>
<path d="M148.624 29.5984C148.676 29.8552 148.801 30.0659 148.986 30.2239C149.255 30.4675 149.604 30.5926 150.045 30.5926C150.506 30.5926 150.94 30.4214 151.342 30.0856L151.625 30.7901C151.171 31.1786 150.637 31.3761 150.019 31.3761C149.308 31.3761 148.736 31.1786 148.295 30.777C147.854 30.3753 147.63 29.8486 147.63 29.1967C147.63 28.5449 147.827 28.0247 148.222 27.6099C148.617 27.1951 149.13 26.9844 149.762 26.9844C150.394 26.9844 150.894 27.1885 151.296 27.6033C151.69 28.0181 151.895 28.5251 151.895 29.1309C151.895 29.2955 151.881 29.4535 151.855 29.5984H148.63H148.624ZM148.604 28.8412H150.927C150.914 28.5646 150.802 28.321 150.585 28.0905C150.368 27.8667 150.091 27.7547 149.756 27.7547C149.42 27.7547 149.124 27.8798 148.907 28.1235C148.742 28.3078 148.643 28.5449 148.604 28.8412Z" fill="#595857"/>
<path d="M156.929 31.3696C156.317 31.3696 155.797 31.1589 155.363 30.7375C154.928 30.3161 154.718 29.7959 154.718 29.177C154.718 28.558 154.935 28.0379 155.363 27.6165C155.797 27.1951 156.317 26.9844 156.929 26.9844C157.541 26.9844 158.074 27.1951 158.502 27.6165C158.93 28.0379 159.147 28.558 159.147 29.177C159.147 29.7959 158.93 30.3161 158.502 30.7375C158.074 31.1589 157.548 31.3696 156.929 31.3696ZM156.929 30.5794C157.271 30.5794 157.574 30.4478 157.818 30.1844C158.068 29.921 158.193 29.5852 158.193 29.177C158.193 28.7687 158.068 28.4395 157.818 28.1696C157.567 27.8996 157.271 27.7613 156.929 27.7613C156.587 27.7613 156.297 27.8996 156.047 28.1696C155.797 28.4395 155.679 28.7753 155.679 29.177C155.679 29.5786 155.804 29.921 156.047 30.1844C156.297 30.4478 156.587 30.5794 156.929 30.5794Z" fill="#595857"/>
<path d="M160.161 26.2394C160.161 25.8443 160.273 25.548 160.49 25.3439C160.707 25.1464 161.043 25.041 161.497 25.041H161.957V25.8048H161.681C161.503 25.8048 161.365 25.8443 161.266 25.9167C161.168 25.9892 161.122 26.1274 161.122 26.3316V27.0756H161.957V27.846H161.122V31.2632H160.161V27.846H159.443V27.0756H160.161V26.2394Z" fill="#595857"/>
<path d="M167.979 30.5461C168.585 30.5461 169.138 30.3486 169.644 29.9601L170.046 30.6712C169.526 31.1321 168.841 31.3626 167.979 31.3626C167.117 31.3626 166.426 31.0729 165.847 30.5C165.268 29.9206 164.972 29.2095 164.972 28.3535C164.972 27.4976 165.261 26.7799 165.847 26.2004C166.426 25.621 167.143 25.3379 167.979 25.3379C168.815 25.3379 169.5 25.5749 170.006 26.0424L169.611 26.7535C169.118 26.3585 168.572 26.1609 167.973 26.1609C167.413 26.1609 166.939 26.3651 166.545 26.7799C166.143 27.2078 165.946 27.7346 165.946 28.3601C165.946 28.9856 166.143 29.5058 166.545 29.9338C166.939 30.3486 167.413 30.5527 167.973 30.5527L167.979 30.5461Z" fill="#595857"/>
<path d="M173.567 29.1832V27.0762H174.521V31.2638H173.613V30.7107C173.494 30.9149 173.336 31.0729 173.146 31.1782C172.915 31.3033 172.678 31.3626 172.435 31.3626C171.941 31.3626 171.553 31.198 171.25 30.8622C170.954 30.5264 170.803 30.0786 170.803 29.5058V27.0762H171.744V29.2753C171.744 29.7165 171.816 30.0457 171.968 30.2564C172.112 30.4737 172.336 30.5791 172.639 30.5791C172.79 30.5791 172.942 30.5264 173.093 30.421C173.244 30.3157 173.356 30.1774 173.435 30.0062C173.527 29.8021 173.567 29.5256 173.567 29.1766V29.1832Z" fill="#595857"/>
<path d="M175.6 31.2637V25.0547H176.541V31.2637H175.6Z" fill="#595857"/>
<path d="M178.877 25.7324V27.0756H179.785V27.846H178.877V29.9793C178.877 30.1769 178.923 30.3151 179.022 30.3941C179.121 30.4732 179.259 30.5061 179.437 30.5061H179.785V31.2699H179.206C178.752 31.2699 178.43 31.1711 178.219 30.967C178.008 30.7629 177.91 30.4666 177.91 30.0715V27.846H177.192V27.0756H177.91V25.7324H178.871H178.877Z" fill="#595857"/>
<path d="M183.327 29.1832V27.0762H184.281V31.2638H183.373V30.7107C183.254 30.9149 183.096 31.0729 182.905 31.1782C182.675 31.3033 182.438 31.3626 182.195 31.3626C181.701 31.3626 181.313 31.198 181.01 30.8622C180.714 30.5264 180.562 30.0786 180.562 29.5058V27.0762H181.504V29.2753C181.504 29.7165 181.576 30.0457 181.727 30.2564C181.872 30.4737 182.096 30.5791 182.399 30.5791C182.55 30.5791 182.701 30.5264 182.853 30.421C183.004 30.3157 183.116 30.1774 183.195 30.0062C183.287 29.8021 183.327 29.5256 183.327 29.1766V29.1832Z" fill="#595857"/>
<path d="M185.366 31.2633V27.0756H186.261V27.7011C186.399 27.497 186.571 27.339 186.768 27.227C187.005 27.0822 187.288 27.0098 187.61 27.0098H187.676V27.8591H187.577C187.183 27.8591 186.867 27.9777 186.636 28.2213C186.419 28.4583 186.307 28.8205 186.307 29.3143V31.2633H185.366Z" fill="#595857"/>
<path d="M190.099 28.5646H191.086C191.086 28.2881 190.981 28.084 190.77 27.9523C190.559 27.814 190.25 27.7482 189.849 27.7482H189.822C189.441 27.7482 189.046 27.8403 188.618 28.0181L188.374 27.2741C188.815 27.0831 189.302 26.9844 189.829 26.9844H189.849C190.553 26.9844 191.086 27.1226 191.468 27.3926C191.843 27.6626 192.034 28.0905 192.034 28.6831V31.2774H191.132V30.8165C190.954 30.9943 190.737 31.1325 190.474 31.2313C190.217 31.3301 189.954 31.3761 189.684 31.3761C189.184 31.3761 188.776 31.2445 188.467 30.9811C188.157 30.7177 188.006 30.3885 188.006 30.0066C188.006 29.5786 188.197 29.2231 188.585 28.9465C188.94 28.7029 189.447 28.5778 190.105 28.5778L190.099 28.5646ZM189.842 30.6124C190.086 30.6124 190.329 30.5531 190.566 30.4346C190.803 30.3161 190.981 30.1778 191.086 30.0198V29.3087H190.243C189.763 29.3087 189.427 29.3679 189.243 29.493C189.059 29.6313 188.967 29.8025 188.967 29.9934C188.967 30.1712 189.046 30.3226 189.204 30.4346C189.362 30.5465 189.572 30.6124 189.849 30.6124H189.842Z" fill="#595857"/>
<path d="M193.112 31.2637V25.0547H194.053V31.2637H193.112Z" fill="#595857"/>
<path d="M198.647 31.2627H197.68V25.4355H198.647V27.9442H201.306V25.4355H202.287V31.2627H201.306V28.7541H198.647V31.2627Z" fill="#595857"/>
<path d="M204.096 29.5984C204.149 29.8552 204.274 30.0659 204.458 30.2239C204.728 30.4675 205.077 30.5926 205.518 30.5926C205.979 30.5926 206.413 30.4214 206.814 30.0856L207.097 30.7901C206.643 31.1786 206.11 31.3761 205.492 31.3761C204.781 31.3761 204.208 31.1786 203.767 30.777C203.326 30.3753 203.103 29.8486 203.103 29.1967C203.103 28.5449 203.3 28.0247 203.695 27.6099C204.09 27.1951 204.603 26.9844 205.235 26.9844C205.867 26.9844 206.367 27.1885 206.768 27.6033C207.163 28.0181 207.367 28.5251 207.367 29.1309C207.367 29.2955 207.354 29.4535 207.328 29.5984H204.103H204.096ZM204.077 28.8412H206.4C206.387 28.5646 206.275 28.321 206.058 28.0905C205.84 27.8667 205.564 27.7547 205.228 27.7547C204.893 27.7547 204.596 27.8798 204.379 28.1235C204.215 28.3078 204.116 28.5449 204.077 28.8412Z" fill="#595857"/>
<path d="M208.15 31.2633V27.0756H209.045V27.7011C209.184 27.497 209.355 27.339 209.552 27.227C209.789 27.0822 210.072 27.0098 210.395 27.0098H210.46V27.8591H210.362C209.967 27.8591 209.651 27.9777 209.421 28.2213C209.203 28.4583 209.091 28.8205 209.091 29.3143V31.2633H208.15Z" fill="#595857"/>
<path d="M212.218 25.7718C212.218 25.9298 212.159 26.0681 212.04 26.1866C211.922 26.3051 211.777 26.3644 211.612 26.3644C211.448 26.3644 211.303 26.3051 211.185 26.1866C211.066 26.0681 211.007 25.9298 211.007 25.7718C211.007 25.6072 211.066 25.4623 211.185 25.3438C211.303 25.2253 211.448 25.166 211.612 25.166C211.777 25.166 211.922 25.2253 212.04 25.3438C212.159 25.4623 212.218 25.6072 212.218 25.7718ZM211.138 31.2631V27.0755H212.093V31.2631H211.138Z" fill="#595857"/>
<path d="M214.455 25.7324V27.0756H215.364V27.846H214.455V29.9793C214.455 30.1769 214.501 30.3151 214.6 30.3941C214.699 30.4732 214.837 30.5061 215.015 30.5061H215.364V31.2699H214.784C214.33 31.2699 214.008 31.1711 213.797 30.967C213.587 30.7629 213.488 30.4666 213.488 30.0715V27.846H212.771V27.0756H213.488V25.7324H214.449H214.455Z" fill="#595857"/>
<path d="M217.95 28.5646H218.937C218.937 28.2881 218.832 28.084 218.622 27.9523C218.411 27.814 218.102 27.7482 217.7 27.7482H217.674C217.292 27.7482 216.897 27.8403 216.469 28.0181L216.226 27.2741C216.667 27.0831 217.154 26.9844 217.68 26.9844H217.7C218.404 26.9844 218.937 27.1226 219.319 27.3926C219.694 27.6626 219.885 28.0905 219.885 28.6831V31.2774H218.983V30.8165C218.806 30.9943 218.589 31.1325 218.325 31.2313C218.069 31.3301 217.805 31.3761 217.536 31.3761C217.035 31.3761 216.627 31.2445 216.318 30.9811C216.009 30.7177 215.857 30.3885 215.857 30.0066C215.857 29.5786 216.048 29.2231 216.437 28.9465C216.792 28.7029 217.299 28.5778 217.957 28.5778L217.95 28.5646ZM217.687 30.6124C217.931 30.6124 218.174 30.5531 218.411 30.4346C218.648 30.3161 218.826 30.1778 218.931 30.0198V29.3087H218.088C217.608 29.3087 217.272 29.3679 217.088 29.493C216.904 29.6313 216.812 29.8025 216.812 29.9934C216.812 30.1712 216.891 30.3226 217.049 30.4346C217.207 30.5465 217.417 30.6124 217.694 30.6124H217.687Z" fill="#595857"/>
<path d="M222.675 32.9349C222.037 32.9349 221.484 32.7703 221.03 32.4477L221.313 31.6839C221.734 31.9933 222.188 32.1514 222.675 32.1514C223.097 32.1514 223.432 32.0328 223.676 31.7892C223.919 31.5522 224.038 31.2822 224.038 30.9794V30.7291C223.696 31.144 223.255 31.3547 222.728 31.3547C222.116 31.3547 221.623 31.1374 221.241 30.7028C220.859 30.2682 220.675 29.7547 220.675 29.1621C220.675 28.5695 220.866 28.0559 221.241 27.6213C221.623 27.1868 222.116 26.9629 222.728 26.9629C223.222 26.9629 223.65 27.1604 224.005 27.5621V27.0617H224.959V30.5382C224.959 31.3349 224.762 31.9341 224.367 32.3291C223.972 32.7242 223.406 32.9217 222.682 32.9217L222.675 32.9349ZM223.992 29.4518C224.011 29.2608 224.011 29.0765 223.992 28.8987C223.959 28.5826 223.84 28.3193 223.643 28.102C223.419 27.8649 223.143 27.753 222.814 27.753C222.445 27.753 222.156 27.8913 221.945 28.1612C221.734 28.4312 221.629 28.7736 221.629 29.1752C221.629 29.5769 221.734 29.9193 221.945 30.1892C222.156 30.4592 222.445 30.5909 222.814 30.5909C223.143 30.5909 223.419 30.4724 223.643 30.2419C223.84 30.0312 223.959 29.7678 223.992 29.4584V29.4518Z" fill="#595857"/>
<path d="M226.729 29.5984C226.782 29.8552 226.907 30.0659 227.091 30.2239C227.361 30.4675 227.71 30.5926 228.151 30.5926C228.611 30.5926 229.046 30.4214 229.447 30.0856L229.73 30.7901C229.276 31.1786 228.743 31.3761 228.124 31.3761C227.414 31.3761 226.841 31.1786 226.4 30.777C225.959 30.3753 225.735 29.8486 225.735 29.1967C225.735 28.5449 225.933 28.0247 226.328 27.6099C226.723 27.1951 227.236 26.9844 227.868 26.9844C228.499 26.9844 229 27.1885 229.401 27.6033C229.796 28.0181 230 28.5251 230 29.1309C230 29.2955 229.987 29.4535 229.96 29.5984H226.736H226.729ZM226.716 28.8412H229.039C229.026 28.5646 228.914 28.321 228.697 28.0905C228.48 27.8667 228.203 27.7547 227.868 27.7547C227.532 27.7547 227.236 27.8798 227.019 28.1235C226.854 28.3078 226.755 28.5449 226.716 28.8412Z" fill="#595857"/>
<path d="M55.0387 14.9536V12.8664H49.3525V11.2927H62.5281V12.8664H56.8222V14.9536H61.462V19.9511H59.6785V16.5141H50.2476V14.9536H55.0387ZM61.4356 5.86719V10.1404H59.6521V7.44085H50.3792V5.86719H61.4356Z" fill="#595857"/>
<path d="M72.617 13.3147H64.8906V8.94273H70.6887V7.51393H64.8906V6.00611H72.459V10.3979H66.661V11.8464H72.6235V13.3279L72.617 13.3147ZM65.6935 14.0654H67.4441V15.2571H75.1705V14.0654H76.9211V19.6292H65.6935V14.0654ZM75.1705 16.7057H67.4441V18.1543H75.1705V16.7057ZM75.1441 5.57812H76.9277V13.5847H75.1441V5.57812Z" fill="#595857"/>
<path d="M92.5447 12.7346V14.3082H86.9046V16.5272H85.1211V14.3082H79.3691V12.7346H92.5447ZM80.4287 11.2728V5.76172H91.4851V11.2728H80.4287ZM82.2122 15.4473V18.1008H91.6628V19.6745H80.4287V15.4473H82.2122ZM89.7148 7.29587H82.1793V9.73867H89.7148V7.29587Z" fill="#595857"/>
<path d="M102.312 12.0114C102.312 12.4526 102.22 12.8674 102.035 13.2625C101.851 13.6575 101.601 14.0065 101.279 14.3094C100.969 14.5991 100.601 14.8295 100.173 15.0007C100.022 15.0534 99.8636 15.1061 99.6925 15.1456V16.9629H103.45V18.5234H94.1445V16.9629H97.9221V15.1456C97.7379 15.1061 97.5799 15.0534 97.4417 15.0007C97.0139 14.8295 96.6388 14.5991 96.3163 14.3094C95.9939 14.0065 95.7438 13.6641 95.5727 13.2625C95.395 12.8674 95.3094 12.446 95.3094 12.0114C95.3094 11.5769 95.395 11.1555 95.5727 10.767C95.7503 10.3785 96.0004 10.0295 96.3163 9.73324C96.6388 9.43036 97.0139 9.19991 97.4417 9.04188C97.8695 8.88386 98.3236 8.79826 98.8106 8.79826C99.2976 8.79826 99.7451 8.87727 100.179 9.04188C100.607 9.19991 100.976 9.43036 101.285 9.73324C101.608 10.0361 101.858 10.3785 102.042 10.767C102.226 11.1555 102.318 11.5769 102.318 12.0114H102.312ZM97.83 7.0139V5.48633H99.7583V7.0139H103.134V8.54147H94.4407V7.0139H97.83ZM100.574 12.0114C100.574 11.5374 100.403 11.1357 100.061 10.7999C99.7188 10.4641 99.2976 10.2929 98.8106 10.2929C98.3236 10.2929 97.9024 10.4641 97.5602 10.7999C97.218 11.1357 97.0468 11.5439 97.0468 12.0114C97.0468 12.4789 97.218 12.8872 97.5602 13.2361C97.9024 13.5785 98.3236 13.7497 98.8106 13.7497C99.2976 13.7497 99.7188 13.5785 100.061 13.2361C100.403 12.8937 100.574 12.4855 100.574 12.0114ZM106.326 19.9192H104.543V5.57851H106.326V11.6098H108.156V13.2822H106.326V19.9192Z" fill="#595857"/>
<path d="M109.38 14.8353H122.555V16.4287H119.633V19.9184H117.883V16.4287H114.059V19.9184H112.309V16.4287H109.386V14.8353H109.38ZM120.245 9.45585C120.245 10.0155 120.134 10.5357 119.91 11.0229C119.686 11.5102 119.377 11.9447 118.995 12.3201C118.6 12.6954 118.146 12.9917 117.626 13.2024C117.113 13.4196 116.56 13.525 115.974 13.525C115.389 13.525 114.829 13.4196 114.309 13.2024C113.789 12.9851 113.335 12.6954 112.953 12.3201C112.565 11.9447 112.262 11.5168 112.039 11.0229C111.815 10.5357 111.703 10.0155 111.703 9.45585C111.703 8.89618 111.815 8.36285 112.039 7.87561C112.262 7.38836 112.572 6.9538 112.953 6.57849C113.342 6.21635 113.789 5.92664 114.309 5.70935C114.829 5.49207 115.382 5.38672 115.974 5.38672C116.567 5.38672 117.113 5.49207 117.626 5.70935C118.139 5.92664 118.594 6.21635 118.995 6.57849C119.383 6.9538 119.686 7.38836 119.91 7.87561C120.134 8.36285 120.245 8.8896 120.245 9.45585ZM118.495 9.45585C118.495 9.11347 118.422 8.79083 118.284 8.49454C118.146 8.19166 117.968 7.92828 117.751 7.69125C117.514 7.46738 117.244 7.2896 116.942 7.15133C116.639 7.01964 116.31 6.94721 115.968 6.94721C115.625 6.94721 115.303 7.01306 114.994 7.15133C114.691 7.28301 114.415 7.46738 114.184 7.69125C113.967 7.92828 113.796 8.19824 113.651 8.49454C113.513 8.79742 113.44 9.11347 113.44 9.45585C113.44 9.79824 113.513 10.1077 113.651 10.4106C113.789 10.7135 113.967 10.9834 114.184 11.2073C114.421 11.4443 114.691 11.6221 114.994 11.7538C115.296 11.8855 115.625 11.9447 115.968 11.9447C116.31 11.9447 116.632 11.8789 116.942 11.7538C117.244 11.6221 117.514 11.4443 117.751 11.2073C117.968 10.9834 118.139 10.7201 118.284 10.4106C118.422 10.1077 118.495 9.78507 118.495 9.45585Z" fill="#595857"/>
<path d="M128.294 5.49805L132.697 12.8462L131.249 13.7153L128.294 8.60587L125.372 13.8273L123.892 12.9581L128.294 5.49805ZM126.735 14.8347V18.0478H136.376V19.6215H124.951V14.8281H126.735V14.8347ZM136.008 14.7557H134.237V5.57706H136.008V8.95484H138.061V10.7063H136.008V14.7557Z" fill="#595857"/>
<path d="M147.636 9.60117C147.636 10.1345 147.531 10.6415 147.313 11.109C147.096 11.5831 146.807 11.9979 146.445 12.36C146.07 12.7156 145.642 12.9921 145.155 13.2028C144.668 13.4135 144.141 13.5189 143.569 13.5189C142.996 13.5189 142.489 13.4135 142.002 13.2028C141.515 12.9921 141.081 12.7156 140.706 12.36C140.331 11.9979 140.041 11.5765 139.831 11.109C139.62 10.6349 139.515 10.1345 139.515 9.60117C139.515 9.06784 139.62 8.56084 139.831 8.09335C140.041 7.61928 140.331 7.20446 140.706 6.84232C141.081 6.48677 141.509 6.21022 142.002 5.99952C142.489 5.78882 143.009 5.68347 143.569 5.68347C144.128 5.68347 144.661 5.78882 145.155 5.99952C145.642 6.21022 146.07 6.48677 146.445 6.84232C146.807 7.20446 147.096 7.62586 147.313 8.09335C147.531 8.56743 147.636 9.06784 147.636 9.60117ZM140.344 19.6292V14.8357H142.114V18.0489H152.091V19.6226H140.344V19.6292ZM145.931 9.61434C145.931 9.29171 145.866 8.98882 145.74 8.7057C145.609 8.42257 145.444 8.16578 145.24 7.94191C145.017 7.7378 144.766 7.57319 144.483 7.4415C144.207 7.30981 143.904 7.25055 143.582 7.25055C143.259 7.25055 142.976 7.3164 142.687 7.4415C142.404 7.57319 142.147 7.7378 141.923 7.94191C141.719 8.16578 141.555 8.42257 141.423 8.7057C141.292 8.98882 141.232 9.29171 141.232 9.61434C141.232 9.93697 141.298 10.2333 141.423 10.5164C141.555 10.7929 141.719 11.0431 141.923 11.2538C142.147 11.4711 142.404 11.6357 142.687 11.7608C142.97 11.8859 143.266 11.9452 143.582 11.9452C143.898 11.9452 144.2 11.8859 144.483 11.7608C144.76 11.6357 145.017 11.4711 145.24 11.2538C145.444 11.0366 145.609 10.7929 145.74 10.5164C145.872 10.2399 145.931 9.93697 145.931 9.61434ZM150.176 14.7567V12.0571H148.09V10.5954H150.176V8.52133H148.09V7.03985H150.176V5.57812H151.96V14.7567H150.176Z" fill="#595857"/>
<path d="M154.401 15.2886V13.6952H167.577V15.2886H161.871V19.9174H160.088V15.2886H154.401ZM164.701 12.4771V7.62444H155.428V6.05078H166.484V12.4837H164.701V12.4771Z" fill="#595857"/>
<path d="M178.87 14.1964H175.08V16.3692H173.296V14.1964H169.341V12.6227H178.87V14.1964ZM170.321 19.6746V15.5725H172.092V18.1141H181.957V19.6746H170.321ZM177.6 8.73135C177.6 9.19226 177.502 9.62024 177.311 10.0153C177.12 10.4104 176.863 10.7659 176.554 11.0754C176.225 11.3783 175.836 11.6087 175.402 11.7799C174.968 11.9511 174.507 12.0367 174.013 12.0367C173.52 12.0367 173.059 11.9511 172.625 11.7799C172.19 11.6087 171.809 11.3717 171.473 11.0754C171.164 10.7659 170.914 10.4104 170.716 10.0153C170.525 9.62024 170.427 9.19226 170.427 8.73135C170.427 8.27045 170.525 7.84246 170.716 7.43423C170.907 7.026 171.157 6.67703 171.473 6.36757C171.802 6.06469 172.19 5.83423 172.625 5.66304C173.059 5.49185 173.52 5.40625 174.013 5.40625C174.507 5.40625 174.968 5.49185 175.402 5.66304C175.836 5.83423 176.218 6.07127 176.554 6.36757C176.863 6.67703 177.113 7.03259 177.311 7.43423C177.508 7.83588 177.6 8.27045 177.6 8.73135ZM175.883 8.73135C175.883 8.21777 175.698 7.7832 175.33 7.43423C174.961 7.08526 174.52 6.91407 174.02 6.91407C173.52 6.91407 173.079 7.08526 172.71 7.43423C172.342 7.7832 172.158 8.21119 172.158 8.73135C172.158 9.25152 172.342 9.65975 172.71 10.0087C173.079 10.3577 173.513 10.5289 174.02 10.5289C174.527 10.5289 174.961 10.3577 175.33 10.0087C175.698 9.65975 175.883 9.23176 175.883 8.73135ZM180.016 5.57744H181.786V16.5272H180.016V11.24H178.021V9.69925H180.016V5.58403V5.57744Z" fill="#595857"/>
</svg>
