<svg width="146" height="40" viewBox="0 0 146 40" fill="none" xmlns="http://www.w3.org/2000/svg">
<path d="M56.7316 22.0394V19.3486H49.2188V17.3193H66.6214V19.3486H59.0888V22.0394H65.2189V28.4741H62.8617V24.043H50.4039V22.033H56.725L56.7316 22.0394ZM65.1794 10.3516V15.8551H62.8222V12.3809H50.5817V10.3516H65.1794Z" fill="#58595B"/>
<path d="M77.8862 26.0139H75.5553V13.183H68.4902V11.1152H77.8928V26.0139H77.8862ZM84.3785 17.1389H87.0913V19.4379H84.3785V28.4414H82.0476V9.97852H84.3785V17.1389Z" fill="#58595B"/>
<path d="M88.8555 21.8974H106.258V23.946H102.393V28.4349H100.082V23.946H95.0317V28.4349H92.7205V23.946H88.8555V21.8974ZM103.203 14.9618C103.203 15.681 103.051 16.3553 102.755 16.9783C102.459 17.6012 102.057 18.1599 101.544 18.6415C101.023 19.1232 100.418 19.502 99.7395 19.7782C99.0613 20.0543 98.3305 20.1892 97.5535 20.1892C96.7765 20.1892 96.0457 20.0543 95.3609 19.7782C94.6761 19.502 94.0769 19.1232 93.5699 18.6415C93.0629 18.1599 92.6547 17.6012 92.3584 16.9783C92.0621 16.3553 91.9106 15.6746 91.9106 14.9618C91.9106 14.249 92.0621 13.549 92.3584 12.926C92.6547 12.3031 93.0563 11.7444 93.5699 11.2628C94.0769 10.794 94.6761 10.4215 95.3609 10.1454C96.0457 9.86923 96.7765 9.73438 97.5535 9.73438C98.3305 9.73438 99.0613 9.86923 99.7395 10.1454C100.418 10.4215 101.017 10.794 101.544 11.2628C102.051 11.7444 102.459 12.3031 102.755 12.926C103.051 13.549 103.203 14.2361 103.203 14.9618ZM100.892 14.9618C100.892 14.5187 100.8 14.1077 100.615 13.7224C100.431 13.337 100.2 12.9903 99.9173 12.6884C99.6078 12.3995 99.2457 12.1683 98.844 11.9949C98.4424 11.8215 98.0144 11.738 97.5601 11.738C97.1058 11.738 96.6778 11.8215 96.2761 11.9949C95.8745 12.1683 95.5189 12.3995 95.2029 12.6884C94.9197 12.9903 94.6893 13.337 94.5049 13.7224C94.3205 14.1077 94.2284 14.5251 94.2284 14.9618C94.2284 15.3985 94.3205 15.7966 94.5049 16.1948C94.6893 16.5865 94.9197 16.9269 95.2029 17.2159C95.5123 17.5177 95.8745 17.7553 96.2761 17.9223C96.6778 18.0892 97.1058 18.1727 97.5601 18.1727C98.0144 18.1727 98.4424 18.0892 98.844 17.9223C99.2457 17.7553 99.6013 17.5241 99.9173 17.2159C100.2 16.9269 100.431 16.5865 100.615 16.1948C100.8 15.803 100.892 15.392 100.892 14.9618Z" fill="#58595B"/>
<path d="M113.834 9.86914L119.648 19.3286L117.738 20.446L113.834 13.8635L109.969 20.5873L108.02 19.4698L113.834 9.86914ZM111.779 21.8973V26.0394H124.514V28.0687H109.429V21.9037H111.786L111.779 21.8973ZM124.02 21.7946H121.689V9.97831H124.02V14.3259H126.732V16.58H124.02V21.7946Z" fill="#58595B"/>
<path d="M128.369 13.4903V11.5638H132.807V9.76562H135.309V11.5638H139.53V13.4903H134.947L139.701 18.1911L138.134 19.6168L134.038 15.4747L130.028 19.9443L128.415 18.493L133.149 13.4839H128.376L128.369 13.4903ZM143.48 24.5038C143.48 25.1268 143.349 25.7111 143.085 26.2506C142.822 26.7964 142.473 27.2717 142.038 27.6891C141.597 28.1001 141.077 28.4276 140.478 28.6716C139.879 28.9157 139.233 29.0313 138.555 29.0313C137.877 29.0313 137.252 28.9092 136.646 28.6716C136.04 28.434 135.513 28.1001 135.079 27.6891C134.644 27.2781 134.289 26.7964 134.032 26.2506C133.768 25.7047 133.637 25.1203 133.637 24.5038C133.637 23.8873 133.768 23.3029 134.032 22.7571C134.295 22.2112 134.644 21.736 135.079 21.3186C135.513 20.9012 136.04 20.5801 136.646 20.336C137.252 20.092 137.89 19.9764 138.555 19.9764C139.22 19.9764 139.872 20.0984 140.478 20.336C141.077 20.5801 141.597 20.9076 142.038 21.3186C142.48 21.7296 142.829 22.2112 143.085 22.7571C143.349 23.3029 143.48 23.8873 143.48 24.5038ZM141.163 24.4846C141.163 23.7974 140.906 23.2002 140.386 22.7057C139.866 22.2112 139.253 21.9608 138.529 21.9608C137.805 21.9608 137.212 22.2112 136.705 22.7057C136.198 23.2002 135.941 23.7974 135.941 24.4846C135.941 25.1717 136.198 25.7882 136.705 26.2763C137.212 26.7643 137.824 27.0084 138.529 27.0084C139.233 27.0084 139.872 26.7643 140.386 26.2763C140.899 25.7882 141.163 25.191 141.163 24.4846ZM142.736 20.3039V16.104H139.424V14.1389H142.736V9.97755H145.094V20.3039H142.736Z" fill="#58595B"/>
<path d="M40.0004 19.5032C40.0004 30.2792 31.0456 39.0129 20.0035 39.0129C8.96141 39.0129 0 30.2792 0 19.5032C0 8.72733 8.95482 0 19.9969 0C31.039 0 39.9938 8.73375 39.9938 19.5032H40.0004Z" fill="white"/>
<path d="M29.4017 18.1491C26.2214 16.0428 22.1457 16.9033 20.0123 20.0693C18.2279 22.7151 15.5349 23.0426 14.488 23.0426C11.0838 23.0426 8.75295 20.7115 8.06817 18.2968C8.06817 18.2968 8.055 18.2519 8.04842 18.2326C8.04183 18.2069 8.03525 18.1812 8.02866 18.1491C7.7587 17.1409 7.69286 16.6593 7.69286 15.5868C7.69286 9.80711 13.7703 3.37881 22.521 3.37881C31.2717 3.37881 36.6117 10.0319 37.9286 13.7309C37.9088 13.6667 37.8825 13.6024 37.8627 13.5318C35.3145 6.30719 28.2824 1.10547 20.0057 1.10547C9.58259 1.10547 1.13477 9.34474 1.13477 19.5106C1.13477 28.5975 7.85747 36.3744 17.1744 36.3744C24.6083 36.3744 29.5993 32.3094 31.8906 26.7095C33.1483 23.6463 32.2594 20.0436 29.4017 18.1556V18.1491Z" fill="#143A62"/>
<path d="M38.0378 14.0906C36.9382 10.4815 31.7694 3.37891 22.5117 3.37891C13.761 3.37891 7.68359 9.8072 7.68359 15.5869C7.68359 16.6593 7.74944 17.141 8.0194 18.1492C7.90088 17.7061 7.8482 17.2694 7.8482 16.8392C7.8482 10.8219 14.0244 6.65406 20.3718 6.65406C28.9645 6.65406 35.9308 13.4484 35.9308 21.8225C35.9308 28.3921 32.0526 34.0819 26.4229 36.8112C33.6855 34.2489 38.8675 27.4674 38.8675 19.5042C38.8675 17.6162 38.6107 15.9594 38.0378 14.0906Z" fill="#E31E30"/>
</svg>
