<svg width="94" height="30" viewBox="0 0 94 30" fill="none" xmlns="http://www.w3.org/2000/svg">
<g clip-path="url(#clip0_80_211)">
<path d="M31.3851 3.59646H34.61C34.6861 3.59646 34.7486 3.65886 34.7486 3.73481V12.4209C34.7486 12.4969 34.6861 12.5593 34.61 12.5593H31.3851C31.3091 12.5593 31.2466 12.4969 31.2466 12.4209V3.7321C31.2466 3.65614 31.3091 3.59375 31.3851 3.59375V3.59646Z" fill="#9E1313"/>
<path d="M36.3185 12.5566H46.5474C46.6235 12.5566 46.686 12.4942 46.686 12.4182V9.852C46.686 9.77604 46.6235 9.71365 46.5474 9.71365H39.8178C39.7417 9.71365 39.6793 9.65126 39.6793 9.5753V3.7321C39.6793 3.65614 39.6168 3.59375 39.5407 3.59375H36.3158C36.2397 3.59375 36.1772 3.65614 36.1772 3.7321V12.4182C36.1772 12.4942 36.2397 12.5566 36.3158 12.5566H36.3185Z" fill="#9E1313"/>
<path d="M48.1368 12.5712H51.3617C51.4378 12.5712 51.5003 12.5088 51.5003 12.4328V10.5204C51.5003 10.4444 51.5628 10.382 51.6388 10.382H56.6487C58.4989 10.4091 60.0665 8.8412 60.042 6.99383C60.0692 5.14104 58.4989 3.58665 56.6487 3.60564H48.1395C48.0635 3.60564 48.001 3.66803 48.001 3.74399V12.4301C48.001 12.5061 48.0635 12.5685 48.1395 12.5685L48.1368 12.5712ZM51.4976 6.36719C51.4976 6.29124 51.56 6.22884 51.6361 6.22884H55.7711C55.9776 6.22884 56.1597 6.30209 56.3064 6.45671C56.4612 6.6032 56.5346 6.78224 56.5346 6.99654C56.5346 7.30308 56.3743 7.54994 56.0292 7.73983C56.0075 7.75068 55.9858 7.75611 55.9613 7.75611H51.6361C51.56 7.75611 51.4976 7.69371 51.4976 7.61776V6.36448V6.36719Z" fill="#9E1313"/>
<path d="M66.9731 12.7763C70.3392 12.7709 73.1158 11.797 73.1023 8.40883V3.7321C73.1023 3.65614 73.0398 3.59375 72.9637 3.59375H69.7334C69.6573 3.59375 69.5948 3.65614 69.5948 3.7321V8.1891C69.6138 9.66211 68.3994 9.91711 66.9703 9.9361C65.5359 9.91711 64.3269 9.66211 64.3404 8.1891V3.7321C64.3404 3.65614 64.278 3.59375 64.2019 3.59375H60.977C60.9009 3.59375 60.8384 3.65614 60.8384 3.7321V8.40883C60.8248 11.797 63.6042 12.7709 66.9676 12.7763H66.9731Z" fill="#9E1313"/>
<path d="M74.6695 12.5573H77.8944C77.9704 12.5573 78.0329 12.495 78.0329 12.419V8.19529C78.0329 8.06236 78.2041 8.00811 78.2829 8.11391L81.4996 12.5004C81.5268 12.5356 81.5675 12.5573 81.611 12.5573H83.2221C83.2656 12.5573 83.3063 12.5356 83.3335 12.5004L86.5502 8.11391C86.629 8.0054 86.8002 8.06236 86.8002 8.19529V12.419C86.8002 12.495 86.8627 12.5573 86.9387 12.5573H90.1636C90.2397 12.5573 90.3022 12.495 90.3022 12.419V3.73286C90.3022 3.6569 90.2397 3.59451 90.1636 3.59451H85.9933C85.9498 3.59451 85.9118 3.6135 85.8846 3.64605L82.5293 7.93487C82.475 8.0054 82.3663 8.0054 82.312 7.93487L78.9621 3.64605C78.9349 3.6135 78.8969 3.5918 78.8534 3.5918H74.6776C74.6016 3.5918 74.5391 3.65419 74.5391 3.73015V12.4163C74.5391 12.4922 74.6016 12.5546 74.6776 12.5546L74.6695 12.5573Z" fill="#9E1313"/>
<path d="M80.1196 22.5042H82.5593C82.6625 22.5042 82.7304 22.3984 82.687 22.3034L81.4698 19.6829C81.4182 19.5744 81.2661 19.5744 81.2144 19.6829L79.9919 22.3034C79.9484 22.3957 80.0163 22.5042 80.1196 22.5042Z" fill="#9E1313"/>
<path d="M6.02876 19.2148H4.89855C4.62415 19.2148 4.40137 19.4373 4.40137 19.7113C4.40137 19.9853 4.62415 20.2077 4.89855 20.2077H6.02876C6.30316 20.2077 6.52594 19.9853 6.52594 19.7113C6.52594 19.4373 6.30316 19.2148 6.02876 19.2148Z" fill="#9E1313"/>
<path d="M7.58794 21.1953H6.95763C6.68323 21.1953 6.46045 21.4178 6.46045 21.6917C6.46045 21.9657 6.68323 22.1882 6.95763 22.1882H7.58794C7.86234 22.1882 8.08512 21.9657 8.08512 21.6917C8.08512 21.4178 7.86234 21.1953 7.58794 21.1953Z" fill="#9E1313"/>
<path d="M10.3863 23.1777H10.0494C9.77503 23.1777 9.55225 23.4002 9.55225 23.6742C9.55225 23.9481 9.77503 24.1706 10.0494 24.1706H10.3863C10.6607 24.1706 10.8835 23.9481 10.8835 23.6742C10.8835 23.4002 10.6607 23.1777 10.3863 23.1777Z" fill="#9E1313"/>
<path d="M28.372 19.2148H27.2418C26.9674 19.2148 26.7446 19.4373 26.7446 19.7113C26.7446 19.9853 26.9674 20.2077 27.2418 20.2077H28.372C28.6464 20.2077 28.8692 19.9853 28.8692 19.7113C28.8692 19.4373 28.6464 19.2148 28.372 19.2148Z" fill="#9E1313"/>
<path d="M26.3125 21.1953H25.6822C25.4078 21.1953 25.1851 21.4178 25.1851 21.6917C25.1851 21.9657 25.4078 22.1882 25.6822 22.1882H26.3125C26.5869 22.1882 26.8097 21.9657 26.8097 21.6917C26.8097 21.4178 26.5869 21.1953 26.3125 21.1953Z" fill="#9E1313"/>
<path d="M23.2183 23.1777H22.8815C22.6071 23.1777 22.3843 23.4002 22.3843 23.6742C22.3843 23.9481 22.6071 24.1706 22.8815 24.1706H23.2183C23.4927 24.1706 23.7155 23.9481 23.7155 23.6742C23.7155 23.4002 23.4927 23.1777 23.2183 23.1777Z" fill="#9E1313"/>
<path d="M29.043 17.2311H28.1709C28.2007 16.8893 28.2171 16.5475 28.2171 16.203C28.2171 9.8254 23.0197 4.63867 16.6352 4.63867C10.2506 4.63867 5.39286 9.49173 5.06956 15.5818C5.05326 15.9073 5.31407 16.1786 5.63738 16.1786C5.93895 16.1786 6.18618 15.9426 6.20248 15.6415C6.4959 10.1509 11.0629 5.77259 16.6324 5.77259C22.202 5.77259 27.0787 10.452 27.0787 16.203C27.0787 16.5475 27.0597 16.8893 27.0271 17.2311H23.0224C23.0523 16.9843 23.0686 16.7347 23.0686 16.4878C23.0686 12.945 20.1806 10.0614 16.6324 10.0614C13.413 10.0614 10.7369 12.435 10.2696 15.5221C10.218 15.8666 10.4815 16.1786 10.832 16.1786C11.1172 16.1786 11.3509 15.967 11.3944 15.6849C11.7829 13.1458 13.9835 11.1953 16.6324 11.1953C19.553 11.1953 21.9303 13.569 21.9303 16.4851C21.9303 16.7347 21.9113 16.9843 21.8732 17.2284H8.79978C8.76446 16.9327 8.74545 16.637 8.74545 16.3386C8.74545 11.9983 12.2828 8.46632 16.6297 8.46632C20.7457 8.46632 24.1309 11.6321 24.4814 15.6523C24.5058 15.948 24.7504 16.1759 25.0465 16.1759C25.3834 16.1759 25.6415 15.8856 25.6116 15.5492C25.2095 10.9512 21.3353 7.33241 16.627 7.33241C11.6525 7.33241 7.60709 11.3716 7.60709 16.3386C7.60709 16.637 7.62339 16.9327 7.65599 17.2284H4.21919C3.9638 17.2284 3.75732 17.4346 3.75732 17.6896V17.7547C3.75732 18.0097 3.9638 18.2158 4.21919 18.2158H9.27523C9.53061 18.2158 9.73709 18.422 9.73709 18.677V18.7421C9.73709 18.9971 9.53061 19.2033 9.27523 19.2033H7.67501C7.41963 19.2033 7.21315 19.4094 7.21315 19.6644V19.7295C7.21315 19.9845 7.41963 20.1907 7.67501 20.1907H10.6853C10.9407 20.1907 11.1471 20.3969 11.1471 20.6519V20.717C11.1471 20.972 10.9407 21.1781 10.6853 21.1781H9.18557C8.93019 21.1781 8.72371 21.3843 8.72371 21.6393V21.7044C8.72371 21.9594 8.93019 22.1656 9.18557 22.1656H12.837C13.0924 22.1656 13.2989 22.3717 13.2989 22.6267V22.6918C13.2989 22.9468 13.0924 23.153 12.837 23.153H12.0654C11.81 23.153 11.6036 23.3592 11.6036 23.6142V23.6793C11.6036 23.9343 11.81 24.1404 12.0654 24.1404H14.9507C15.2007 24.1404 15.4262 24.3276 15.4397 24.5772C15.4533 24.843 15.2414 25.0655 14.9779 25.0655H14.3666C14.1112 25.0655 13.9047 25.2716 13.9047 25.5266V25.5917C13.9047 25.8467 14.1112 26.0529 14.3666 26.0529H18.882C19.1374 26.0529 19.3438 25.8467 19.3438 25.5917V25.5266C19.3438 25.2716 19.1374 25.0655 18.882 25.0655H18.3006C18.0506 25.0655 17.8251 24.8783 17.8115 24.6287C17.798 24.3629 18.0099 24.1404 18.2734 24.1404H21.1804C21.4358 24.1404 21.6423 23.9343 21.6423 23.6793V23.6142C21.6423 23.3592 21.4358 23.153 21.1804 23.153H20.4143C20.1589 23.153 19.9524 22.9468 19.9524 22.6918V22.6267C19.9524 22.3717 20.1589 22.1656 20.4143 22.1656H24.0657C24.3211 22.1656 24.5276 21.9594 24.5276 21.7044V21.6393C24.5276 21.3843 24.3211 21.1781 24.0657 21.1781H22.566C22.3106 21.1781 22.1042 20.972 22.1042 20.717V20.6519C22.1042 20.3969 22.3106 20.1907 22.566 20.1907H25.579C25.8344 20.1907 26.0436 19.9845 26.0436 19.7295V19.6644C26.0436 19.4094 25.8371 19.2033 25.579 19.2033H23.9788C23.7234 19.2033 23.5169 18.9971 23.5169 18.7421V18.677C23.5169 18.422 23.7234 18.2158 23.9788 18.2158H29.0348C29.2902 18.2158 29.4967 18.0097 29.4967 17.7547V17.6896C29.4967 17.4346 29.2902 17.2284 29.0348 17.2284L29.043 17.2311Z" fill="#9E1313"/>
<path d="M0 0V30H94V0H0ZM2.02133 2.01827H91.976V14.0872C91.7613 14.079 91.563 14.0736 91.5494 14.0736H31.3034C31.2708 14.0736 31.2464 14.098 31.2464 14.1306V27.9817H2.02133V2.01827ZM47.6833 21.3898L43.7058 26.8153C43.695 26.8288 43.6787 26.8397 43.6596 26.8397H41.6736C41.6546 26.8397 41.6383 26.8315 41.6274 26.8153L37.65 21.3898C37.6174 21.3464 37.5468 21.3681 37.5468 21.4224V26.78C37.5468 26.8126 37.5223 26.837 37.4897 26.837H33.5122C33.4796 26.837 33.4552 26.8126 33.4552 26.78V16.4201C33.4552 16.3876 33.4796 16.3631 33.5122 16.3631H38.5466C38.5629 16.3631 38.5819 16.3713 38.59 16.3848L42.5512 21.4576C42.6082 21.5309 42.7169 21.5309 42.774 21.4576L46.7188 16.4174C46.746 16.3821 46.7867 16.3631 46.8302 16.3631H51.8183C51.8509 16.3631 51.8754 16.3876 51.8754 16.4201V26.78C51.8754 26.8126 51.8509 26.837 51.8183 26.837H47.8409C47.8083 26.837 47.7838 26.8126 47.7838 26.78V21.4224C47.7838 21.3681 47.7132 21.3437 47.6806 21.3898H47.6833ZM52.9947 26.7827V16.4228C52.9947 16.3903 53.0192 16.3659 53.0518 16.3659H57.0292C57.0618 16.3659 57.0863 16.3903 57.0863 16.4228V26.7827C57.0863 26.8153 57.0618 26.8397 57.0292 26.8397H53.0518C53.0192 26.8397 52.9947 26.8153 52.9947 26.7827ZM65.3672 23.7689C66.9158 23.7689 67.9292 23.6821 68.5514 22.974C68.584 22.9388 68.5568 22.8791 68.5079 22.8791H65.3917C65.3591 22.8791 65.3346 22.8547 65.3346 22.8221V21.143C65.3346 21.1104 65.3591 21.086 65.3917 21.086H72.4038C72.4364 21.086 72.4609 21.1104 72.4609 21.143V27.0377C72.4609 27.0703 72.4364 27.0947 72.4038 27.0947H70.263C70.2304 27.0947 70.2059 27.0703 70.2059 27.0377V25.6027C70.2059 25.5538 70.1488 25.5294 70.1108 25.562C68.8937 26.6878 67.0951 27.0947 65.3645 27.0947C61.4142 27.0784 58.1839 25.9418 58.2002 21.9812V21.2162C58.1839 17.2502 61.4169 16.1109 65.3645 16.1027C68.9752 16.1027 71.9583 17.0793 72.45 20.2532C72.4555 20.2885 72.4283 20.321 72.393 20.321H68.1411C68.1248 20.321 68.1085 20.3129 68.0976 20.2993C67.8395 19.9602 67.4728 19.7351 66.9973 19.613C66.5137 19.4882 65.9676 19.4258 65.3672 19.4258C63.6882 19.4502 62.27 19.7622 62.2917 21.4685V21.7262C62.2673 23.4488 63.6882 23.7445 65.3672 23.7689ZM73.3248 26.7691L78.8916 16.4093C78.9025 16.3903 78.9215 16.3794 78.9406 16.3794H83.7358C83.7575 16.3794 83.7765 16.3903 83.7847 16.4093L89.3515 26.7691C89.3705 26.8071 89.3433 26.8532 89.3026 26.8532H84.8279C84.8062 26.8532 84.7845 26.8397 84.7763 26.8207L83.9803 25.0954C83.9721 25.0764 83.9504 25.0628 83.9287 25.0628H78.7477C78.7259 25.0628 78.7042 25.0764 78.696 25.0954L77.9 26.8207C77.8919 26.8397 77.8701 26.8532 77.8484 26.8532H73.3737C73.3303 26.8532 73.3031 26.8071 73.3248 26.7691Z" fill="#9E1313"/>
</g>
<defs>
<clipPath id="clip0_80_211">
<rect width="94" height="30" fill="white"/>
</clipPath>
</defs>
</svg>
