<svg width="150" height="67" viewBox="0 0 150 67" fill="none" xmlns="http://www.w3.org/2000/svg">
<g clip-path="url(#clip0_45_3941)">
<path d="M5.19765 59.9375H4.39294L2.60778 62.2824H2.58928V59.9375H1.91406V65.3409H2.58928V62.7272H2.60778L4.49469 65.3409H5.36415L3.18125 62.4955L5.19765 59.9375Z" fill="white" fill-opacity="0.8"/>
<path d="M6.97425 61.3379C5.92905 61.3379 5.39258 62.1257 5.39258 63.3676C5.39258 64.6096 5.92905 65.3974 6.97425 65.3974C8.01945 65.3974 8.55593 64.6096 8.55593 63.3676C8.55593 62.1257 8.01945 61.3379 6.97425 61.3379ZM6.97425 64.8691C6.35453 64.8691 6.0678 64.3593 6.0678 63.3676C6.0678 62.3759 6.35453 61.8662 6.97425 61.8662C7.59397 61.8662 7.87146 62.3759 7.87146 63.3676C7.87146 64.3593 7.58472 64.8691 6.97425 64.8691Z" fill="white" fill-opacity="0.8"/>
<path d="M9.9428 62.0135H9.9243L9.89655 61.3925H9.26758C9.26758 61.6706 9.29533 61.9579 9.29533 62.2452V65.3408H9.9428V63.2555C9.9428 62.3935 10.2943 61.9672 10.803 61.9672C10.8862 61.9672 10.9695 61.9672 11.0527 61.995V61.3555C10.4793 61.3555 10.137 61.5501 9.93355 62.0321L9.9428 62.0135Z" fill="white" fill-opacity="0.8"/>
<path d="M12.9115 61.3379C11.931 61.3379 11.3945 62.1257 11.3945 63.3676C11.3945 64.6096 11.931 65.3974 12.9762 65.3974C13.3647 65.3974 13.7717 65.314 14.0769 65.1657L14.0492 64.5818C13.8272 64.7486 13.4757 64.9062 13.1519 64.9062C12.4305 64.9062 12.079 64.4798 12.079 63.5715H14.2989V63.2193C14.2989 62.0608 13.8087 61.3472 12.9207 61.3472L12.9115 61.3379ZM12.0697 63.0618C12.0882 62.1442 12.4582 61.8291 12.8745 61.8291C13.3924 61.8291 13.6422 62.2369 13.6422 63.0618H12.0697Z" fill="white" fill-opacity="0.8"/>
<path d="M17.6658 62.6725C17.6658 62.1164 17.4993 61.8754 17.3236 61.7086C17.2033 61.5881 16.8518 61.3379 16.2784 61.3379C15.8899 61.3379 15.4921 61.4584 15.1684 61.6623L15.2332 62.274C15.4551 62.0237 15.8436 61.8662 16.2506 61.8662C16.5188 61.8662 16.7778 61.9311 16.9073 62.1164C17.0276 62.2832 17.0553 62.4593 17.0553 62.7467V62.9228H16.6761C15.3256 62.9228 14.8262 63.4881 14.8262 64.2574C14.8262 65.0266 15.3164 65.3974 15.9639 65.3974C16.5651 65.3974 16.8888 65.1101 17.0646 64.8135H17.0831L17.1201 65.351H17.712C17.6935 65.212 17.675 64.9803 17.675 64.7486V62.6911L17.6658 62.6725ZM17.0461 63.8959C17.0461 64.4427 16.6946 64.8969 16.1304 64.8969C15.6771 64.8969 15.4644 64.6281 15.4644 64.211C15.4644 63.7569 15.8251 63.3954 16.5928 63.3954C16.7686 63.3954 16.9351 63.3954 17.0461 63.414V63.9145V63.8959Z" fill="white" fill-opacity="0.8"/>
<path d="M21.9297 62.2911C21.162 61.8462 21.0233 61.6238 21.0233 61.2809C21.0233 60.8267 21.3563 60.4745 21.865 60.4745C22.198 60.4745 22.531 60.5672 22.7899 60.7248V60.0667C22.5495 59.9648 22.1702 59.8906 21.8187 59.8906C21.0048 59.8906 20.3203 60.354 20.3203 61.2438C20.3203 61.9389 20.5331 62.2726 21.5135 62.8565C22.235 63.2921 22.346 63.533 22.346 63.9501C22.346 64.395 21.9945 64.8028 21.384 64.8028C21.0695 64.8028 20.6625 64.6452 20.3573 64.4506V65.155C20.644 65.294 21.051 65.3867 21.4858 65.3867C22.5217 65.3867 23.0582 64.7101 23.0582 63.8574C23.0582 63.2365 22.7807 62.7638 21.9482 62.2911H21.9297Z" fill="white" fill-opacity="0.8"/>
<path d="M25.4734 61.3379C24.8999 61.3379 24.6132 61.6623 24.4375 61.9774H24.419L24.3912 61.4028H23.7715C23.7715 61.6437 23.7992 61.8847 23.7992 62.1257V67.01H24.4467V64.8042H24.4652C24.7242 65.2213 25.0202 65.3974 25.4642 65.3974C26.2689 65.3974 26.8238 64.7301 26.8238 63.3676C26.8238 62.0052 26.2781 61.3379 25.4642 61.3379H25.4734ZM25.3162 64.8691C24.7242 64.8691 24.456 64.3593 24.456 63.3676C24.456 62.3759 24.7242 61.8662 25.3162 61.8662C25.9081 61.8662 26.1764 62.3759 26.1764 63.3676C26.1764 64.3593 25.9081 64.8691 25.3162 64.8691Z" fill="white" fill-opacity="0.8"/>
<path d="M28.9606 61.3379C27.9154 61.3379 27.3789 62.1257 27.3789 63.3676C27.3789 64.6096 27.9154 65.3974 28.9606 65.3974C30.0058 65.3974 30.5423 64.6096 30.5423 63.3676C30.5423 62.1257 30.0058 61.3379 28.9606 61.3379ZM28.9606 64.8691C28.3409 64.8691 28.0541 64.3593 28.0541 63.3676C28.0541 62.3759 28.3409 61.8662 28.9606 61.8662C29.5803 61.8662 29.8578 62.3759 29.8578 63.3676C29.8578 64.3593 29.571 64.8691 28.9606 64.8691Z" fill="white" fill-opacity="0.8"/>
<path d="M31.9291 62.0135H31.9106L31.8829 61.3925H31.2539C31.2539 61.6706 31.2909 61.9579 31.2909 62.2452V65.3408H31.9384V63.2555C31.9384 62.3935 32.2899 61.9672 32.7893 61.9672C32.8726 61.9672 32.9651 61.9672 33.0391 61.995V61.3555C32.4656 61.3555 32.1326 61.5501 31.9199 62.0321L31.9291 62.0135Z" fill="white" fill-opacity="0.8"/>
<path d="M34.501 60.4004L33.8536 60.595V61.4014H33.2246V61.9296H33.8536V64.4691C33.8536 65.1643 34.1681 65.4052 34.76 65.4052C34.9358 65.4052 35.1578 65.3589 35.3058 65.3033V64.775C35.1855 64.8306 35.0653 64.8769 34.8988 64.8769C34.612 64.8769 34.4918 64.7101 34.4918 64.256V61.9296H35.3058V61.4014H34.4918V60.4004H34.501Z" fill="white" fill-opacity="0.8"/>
<path d="M37.2004 63.1637L36.9692 63.0711C36.5437 62.9042 36.3032 62.7189 36.3032 62.4037C36.3032 62.0886 36.5252 61.8662 36.9507 61.8662C37.2467 61.8662 37.5241 61.9403 37.7276 62.033L37.7554 61.4769C37.5334 61.3935 37.2467 61.3379 36.9229 61.3379C36.1645 61.3379 35.6557 61.8384 35.6557 62.4779C35.6557 62.9784 35.8592 63.2379 36.4234 63.4881L36.8582 63.6828C37.2189 63.8496 37.3577 64.0349 37.3577 64.3037C37.3577 64.6003 37.0987 64.8598 36.6084 64.8598C36.2847 64.8598 35.9795 64.7486 35.6835 64.5632L35.6465 65.1471C35.9332 65.2954 36.3032 65.3788 36.7102 65.3788C37.6074 65.3788 37.9774 64.8413 37.9774 64.1554C37.9774 63.6642 37.6814 63.3398 37.2004 63.1452V63.1637Z" fill="white" fill-opacity="0.8"/>
<path d="M41.9824 59.937H40.6875V65.3311H41.3627V63.0697H41.8252C42.9629 63.0697 43.5734 62.5136 43.5734 61.457C43.5734 60.9843 43.4161 60.6043 43.1479 60.3448C42.8611 60.076 42.5189 59.9277 41.9824 59.9277V59.937ZM41.7327 62.5228H41.3627V60.5024H41.7512C42.4449 60.5024 42.8611 60.7989 42.8611 61.5404C42.8611 62.1428 42.5652 62.5321 41.7327 62.5321V62.5228Z" fill="white" fill-opacity="0.8"/>
<path d="M44.9062 62.0135H44.8877L44.86 61.3925H44.2402C44.2402 61.6706 44.268 61.9579 44.268 62.2452V65.3408H44.9155V63.2555C44.9155 62.3935 45.2669 61.9672 45.7757 61.9672C45.8589 61.9672 45.9421 61.9672 46.0254 61.995V61.3555C45.4427 61.3555 45.1189 61.5501 44.9062 62.0321V62.0135Z" fill="white" fill-opacity="0.8"/>
<path d="M47.9494 61.3379C46.9134 61.3379 46.377 62.1257 46.377 63.3676C46.377 64.6096 46.9134 65.3974 47.9494 65.3974C48.9853 65.3974 49.5311 64.6096 49.5311 63.3676C49.5311 62.1257 48.9946 61.3379 47.9494 61.3379ZM47.9494 64.8691C47.3389 64.8691 47.0522 64.3593 47.0522 63.3676C47.0522 62.3759 47.3389 61.8662 47.9494 61.8662C48.5598 61.8662 48.8558 62.3759 48.8558 63.3676C48.8558 64.3593 48.5691 64.8691 47.9494 64.8691Z" fill="white" fill-opacity="0.8"/>
<path d="M53.7668 61.3379C53.3228 61.3379 53.0176 61.5696 52.8141 61.9589C52.6106 61.5603 52.3054 61.3379 51.8891 61.3379C51.4729 61.3379 51.1307 61.5325 50.9179 61.9774H50.8994L50.8809 61.3935H50.252C50.2612 61.6715 50.2797 61.9589 50.2797 62.2462V65.3418H50.9272V62.9042C50.9272 62.1906 51.1862 61.9033 51.6671 61.9033C52.0464 61.9033 52.2684 62.135 52.2684 62.6354V65.3418H52.9158V62.9042C52.9158 62.1906 53.1748 61.9033 53.6558 61.9033C54.0443 61.9033 54.257 62.135 54.257 62.6354V65.3418H54.9045V62.5984C54.9045 61.7364 54.442 61.3379 53.7575 61.3379H53.7668Z" fill="white" fill-opacity="0.8"/>
<path d="M57.236 61.3379C56.2 61.3379 55.6543 62.1257 55.6543 63.3676C55.6543 64.6096 56.2 65.3974 57.236 65.3974C58.2719 65.3974 58.8176 64.6096 58.8176 63.3676C58.8176 62.1257 58.2812 61.3379 57.236 61.3379ZM57.236 64.8691C56.6163 64.8691 56.3295 64.3593 56.3295 63.3676C56.3295 62.3759 56.6163 61.8662 57.236 61.8662C57.8557 61.8662 58.1332 62.3759 58.1332 63.3676C58.1332 64.3593 57.8464 64.8691 57.236 64.8691Z" fill="white" fill-opacity="0.8"/>
<path d="M60.4913 60.4004L59.8438 60.595V61.4014H59.2148V61.9296H59.8438V64.4691C59.8438 65.1643 60.1583 65.4052 60.7503 65.4052C60.926 65.4052 61.148 65.3589 61.296 65.3033V64.775C61.1757 64.8306 61.0555 64.8769 60.8983 64.8769C60.6023 64.8769 60.4913 64.7101 60.4913 64.256V61.9296H61.296V61.4014H60.4913V60.4004Z" fill="white" fill-opacity="0.8"/>
<path d="M62.5911 59.7715H61.8789V60.5407H62.5911V59.7715Z" fill="white" fill-opacity="0.8"/>
<path d="M62.5537 61.3926H61.9062V65.3316H62.5537V61.3926Z" fill="white" fill-opacity="0.8"/>
<path d="M64.9489 61.3379C63.9037 61.3379 63.3672 62.1257 63.3672 63.3676C63.3672 64.6096 63.9037 65.3974 64.9489 65.3974C65.9941 65.3974 66.5305 64.6096 66.5305 63.3676C66.5305 62.1257 65.9941 61.3379 64.9489 61.3379ZM64.9489 64.8691C64.3291 64.8691 64.0517 64.3593 64.0517 63.3676C64.0517 62.3759 64.3384 61.8662 64.9489 61.8662C65.5593 61.8662 65.8553 62.3759 65.8553 63.3676C65.8553 64.3593 65.5686 64.8691 64.9489 64.8691Z" fill="white" fill-opacity="0.8"/>
<path d="M68.9091 61.3379C68.4558 61.3379 68.1228 61.5325 67.9101 61.9774H67.8916L67.8731 61.3935H67.2441C67.2441 61.6715 67.2719 61.9589 67.2719 62.2462V65.3418H67.9194V62.9691C67.9194 62.2554 68.2431 61.9033 68.7518 61.9033C69.1681 61.9033 69.3993 62.172 69.3993 62.8023V65.351H70.0468V62.6076C70.0468 61.7457 69.5843 61.3472 68.8998 61.3472L68.9091 61.3379Z" fill="white" fill-opacity="0.8"/>
<path d="M72.9785 65.3409H73.6537V62.8292H75.2909V62.2453H73.6537V60.5307H75.3834V59.9375H72.9785V65.3409Z" fill="white" fill-opacity="0.8"/>
<path d="M77.2418 61.3379C76.1966 61.3379 75.6602 62.1257 75.6602 63.3676C75.6602 64.6096 76.1966 65.3974 77.2418 65.3974C78.287 65.3974 78.8235 64.6096 78.8235 63.3676C78.8235 62.1257 78.287 61.3379 77.2418 61.3379ZM77.2418 64.8691C76.6221 64.8691 76.3354 64.3593 76.3354 63.3676C76.3354 62.3759 76.6221 61.8662 77.2418 61.8662C77.8615 61.8662 78.139 62.3759 78.139 63.3676C78.139 64.3593 77.8523 64.8691 77.2418 64.8691Z" fill="white" fill-opacity="0.8"/>
<path d="M82.3491 61.3921H81.7016V63.7647C81.7016 64.4784 81.3779 64.8306 80.8692 64.8306C80.4529 64.8306 80.2217 64.5618 80.2217 63.9316V61.3921H79.5742V64.1262C79.5742 64.9882 80.0367 65.3867 80.7212 65.3867C81.1744 65.3867 81.5074 65.1921 81.7201 64.7472H81.7386L81.7664 65.3311H82.3953C82.3861 65.053 82.3676 64.7657 82.3676 64.4784V61.3828L82.3491 61.3921Z" fill="white" fill-opacity="0.8"/>
<path d="M84.911 61.3379C84.4578 61.3379 84.1248 61.5325 83.9213 61.9774H83.9028L83.8751 61.3935H83.2461C83.2461 61.6715 83.2738 61.9589 83.2738 62.2462V65.3418H83.9213V62.9691C83.9213 62.2554 84.245 61.9033 84.7538 61.9033C85.17 61.9033 85.4012 62.172 85.4012 62.8023V65.351H86.0487V62.6076C86.0487 61.7457 85.5862 61.3472 84.8925 61.3472L84.911 61.3379Z" fill="white" fill-opacity="0.8"/>
<path d="M89.8405 59.5391H89.193V61.9303H89.1745C88.9063 61.5132 88.6196 61.3371 88.1663 61.3371C87.3616 61.3371 86.8066 62.0044 86.8066 63.3668C86.8066 64.7293 87.3524 65.3966 88.1663 65.3966C88.7398 65.3966 89.0358 65.0722 89.2023 64.7663H89.2208L89.2393 65.341H89.8682C89.8682 65.1 89.8405 64.8498 89.8405 64.6088V59.5391ZM88.3236 64.8683C87.7316 64.8683 87.4634 64.3585 87.4634 63.3668C87.4634 62.3751 87.7316 61.8654 88.3236 61.8654C88.9155 61.8654 89.1838 62.3751 89.1838 63.3668C89.1838 64.3585 88.9155 64.8683 88.3236 64.8683Z" fill="white" fill-opacity="0.8"/>
<path d="M93.3728 62.6725C93.3728 62.1164 93.2063 61.8754 93.0306 61.7086C92.9103 61.5881 92.5589 61.3379 91.9854 61.3379C91.5969 61.3379 91.1992 61.4584 90.8754 61.6623L90.9494 62.274C91.1714 62.0237 91.5599 61.8662 91.9576 61.8662C92.2259 61.8662 92.4849 61.9311 92.6144 62.1164C92.7346 62.2832 92.7623 62.4593 92.7623 62.7467V62.9228H92.3831C91.0327 62.9228 90.5332 63.4881 90.5332 64.2574C90.5332 65.0266 91.0234 65.3974 91.6709 65.3974C92.2721 65.3974 92.5959 65.1101 92.7716 64.8135H92.7901L92.8271 65.351H93.4098C93.3913 65.212 93.3821 64.9803 93.3821 64.7486V62.6911L93.3728 62.6725ZM92.7531 63.8959C92.7531 64.4427 92.4016 64.8969 91.8374 64.8969C91.3934 64.8969 91.1807 64.6281 91.1807 64.211C91.1807 63.7569 91.5414 63.3954 92.2999 63.3954C92.4756 63.3954 92.6421 63.3954 92.7531 63.414V63.9145V63.8959Z" fill="white" fill-opacity="0.8"/>
<path d="M95.2145 60.4004L94.567 60.595V61.4014H93.9473V61.9296H94.567V64.4691C94.567 65.1643 94.8907 65.4052 95.4827 65.4052C95.6584 65.4052 95.8712 65.3589 96.0284 65.3033V64.775C95.9082 64.8306 95.7879 64.8769 95.6307 64.8769C95.3347 64.8769 95.2145 64.7101 95.2145 64.256V61.9296H96.0284V61.4014H95.2145V60.4004Z" fill="white" fill-opacity="0.8"/>
<path d="M97.2861 61.3926H96.6387V65.3316H97.2861V61.3926Z" fill="white" fill-opacity="0.8"/>
<path d="M97.3138 59.7715H96.6016V60.5407H97.3138V59.7715Z" fill="white" fill-opacity="0.8"/>
<path d="M99.6735 61.3379C98.6283 61.3379 98.0918 62.1257 98.0918 63.3676C98.0918 64.6096 98.6283 65.3974 99.6735 65.3974C100.719 65.3974 101.255 64.6096 101.255 63.3676C101.255 62.1257 100.719 61.3379 99.6735 61.3379ZM99.6735 64.8691C99.0537 64.8691 98.767 64.3593 98.767 63.3676C98.767 62.3759 99.0537 61.8662 99.6735 61.8662C100.293 61.8662 100.571 62.3759 100.571 63.3676C100.571 64.3593 100.284 64.8691 99.6735 64.8691Z" fill="white" fill-opacity="0.8"/>
<path d="M103.632 61.3379C103.178 61.3379 102.846 61.5325 102.633 61.9774H102.614L102.587 61.3935H101.967C101.967 61.6715 102.004 61.9589 102.004 62.2462V65.3418H102.651V62.9691C102.651 62.2554 102.975 61.9033 103.484 61.9033C103.9 61.9033 104.131 62.172 104.131 62.8023V65.351H104.779V62.6076C104.779 61.7457 104.316 61.3472 103.632 61.3472V61.3379Z" fill="white" fill-opacity="0.8"/>
<path d="M39.2188 43.6055H37.4336V57.3039H39.2188V43.6055Z" fill="white" fill-opacity="0.8"/>
<path d="M34.862 48.2303H32.8086V49.5464H34.862V57.3132H36.6472V43.6055H34.862V48.2303Z" fill="white" fill-opacity="0.8"/>
<path d="M31.439 46.9794V46.3399H33.6867V45.0146H31.439V43.4297H29.5521V45.0146H27.2952V46.3399H29.5521V46.9794C29.5521 49.7135 28.5717 51.2891 26.916 52.7628L27.989 53.6525C28.9324 52.9667 30.1071 51.7618 30.4863 50.4921C30.8563 51.734 32.0403 52.9667 32.9837 53.6525L34.0567 52.7628C32.4102 51.2891 31.4298 49.7135 31.4298 46.9794H31.439Z" fill="white" fill-opacity="0.8"/>
<path d="M70.0288 47.2583C70.0288 48.8524 71.4532 49.8719 73.5806 49.8719C75.708 49.8719 77.1324 48.8524 77.1324 47.2583C77.1324 46.6929 76.9567 46.2017 76.6329 45.8032H78.5938V44.4778H74.524V43.2637H72.6186V44.4778H68.5488V45.8032H70.5375C70.2137 46.2017 70.0288 46.6929 70.0288 47.2583ZM73.5806 45.97C74.5148 45.97 75.1808 46.4705 75.1808 47.2583C75.1808 48.0461 74.5148 48.5373 73.5806 48.5373C72.6464 48.5373 71.9804 48.0368 71.9804 47.2583C71.9804 46.4797 72.6371 45.97 73.5806 45.97Z" fill="white" fill-opacity="0.8"/>
<path d="M79.9446 50.3633H67.1895V51.6886H79.9446V50.3633Z" fill="white" fill-opacity="0.8"/>
<path d="M73.5809 52.207C71.1946 52.207 69.6406 53.2821 69.6406 54.9597C69.6406 56.6372 71.1853 57.7124 73.5809 57.7124C75.9766 57.7124 77.512 56.6372 77.512 54.9597C77.512 53.2821 75.9673 52.207 73.5809 52.207ZM73.5809 56.4055C72.4062 56.4055 71.6385 55.8494 71.6385 54.969C71.6385 54.0885 72.4062 53.5324 73.5809 53.5324C74.7556 53.5324 75.5233 54.0977 75.5233 54.969C75.5233 55.8402 74.7556 56.4055 73.5809 56.4055Z" fill="white" fill-opacity="0.8"/>
<path d="M47.099 49.1209C49.4021 49.1209 50.8913 47.9253 50.8913 46.0624C50.8913 44.1995 49.4021 43.0039 47.099 43.0039C44.7958 43.0039 43.3066 44.1995 43.3066 46.0624C43.3066 47.9253 44.7958 49.1209 47.099 49.1209ZM47.099 44.3663C48.2089 44.3663 48.9396 45.0244 48.9396 46.0624C48.9396 47.1005 48.2182 47.7585 47.099 47.7585C45.9798 47.7585 45.2583 47.1005 45.2583 46.0624C45.2583 45.0244 45.9798 44.3663 47.099 44.3663Z" fill="white" fill-opacity="0.8"/>
<path d="M40.7266 51.1325H43.9639V52.5783H42.3175V53.9037H49.5136C49.6246 53.9037 49.7079 53.9871 49.7079 54.0983V57.4442H51.6133V53.5052C51.6133 53.0047 51.2063 52.5876 50.6976 52.5876H50.2536V51.1418H53.4909V49.8164H40.7358V51.1418L40.7266 51.1325ZM45.8693 51.1325H48.3389V52.5783H45.8693V51.1325Z" fill="white" fill-opacity="0.8"/>
<path d="M65.6446 43.6055H63.7207V53.0127H65.6446V43.6055Z" fill="white" fill-opacity="0.8"/>
<path d="M58.4472 48.8235C59.5571 50.844 61.8325 51.604 61.8325 51.604L62.554 50.3899C59.6034 49.2684 59.4276 46.0338 59.4276 45.4777H61.9805V44.1523H54.9231V45.4777H57.476C57.476 46.0338 57.291 49.2684 54.3496 50.3899L55.0711 51.604C55.0711 51.604 57.3465 50.8347 58.4564 48.8235H58.4472Z" fill="white" fill-opacity="0.8"/>
<path d="M59.1783 55.5716V52.4297H57.2637V56.1741C57.2637 56.6838 57.6707 57.0916 58.1794 57.0916H65.875V55.7662H59.3726C59.2708 55.7662 59.1783 55.6828 59.1783 55.5716Z" fill="white" fill-opacity="0.8"/>
<path d="M86.7338 51.6699C84.3474 51.6699 82.8027 52.847 82.8027 54.7006C82.8027 56.5543 84.3474 57.7313 86.7338 57.7313C89.1202 57.7313 90.6649 56.5543 90.6649 54.7006C90.6649 52.847 89.1202 51.6699 86.7338 51.6699ZM86.7338 56.406C85.5221 56.406 84.7266 55.7387 84.7266 54.6914C84.7266 53.6441 85.5221 52.986 86.7338 52.986C87.9455 52.986 88.741 53.6533 88.741 54.6914C88.741 55.7294 87.9547 56.406 86.7338 56.406Z" fill="white" fill-opacity="0.8"/>
<path d="M91.2749 45.8488V44.9683C91.2749 44.4586 90.8587 44.0508 90.3592 44.0508H82.2566V45.3761H89.166C89.2677 45.3761 89.3602 45.4596 89.3602 45.5708V46.1454C89.3602 48.1473 88.7775 49.6395 88.7775 49.6395H86.5299V47.1H84.6244V49.6395H80.3789V50.9649H93.134V49.6395H90.6459C90.6459 49.6395 91.2934 48.101 91.2934 45.8581L91.2749 45.8488Z" fill="white" fill-opacity="0.8"/>
<path d="M104.436 46.8772V43.6055H102.512V48.4713C101.319 49.3425 99.0807 49.6205 96.8516 49.6205H96.3706C96.2596 49.6205 96.1764 49.5371 96.1764 49.4259V45.6445C96.1764 45.5425 96.2596 45.4498 96.3706 45.4498H100.339V44.1245H95.1774C94.6687 44.1245 94.2617 44.5323 94.2617 45.042V50.0098C94.2617 50.5196 94.6687 50.9274 95.1774 50.9274H96.1856C97.5268 50.9274 100.894 50.983 102.503 49.9171V52.9849H104.427V48.1654H106.61V46.8401H104.427L104.436 46.8772Z" fill="white" fill-opacity="0.8"/>
<path d="M98.0915 55.571V52.3086H96.1953V56.1642C96.1953 56.6739 96.6115 57.0817 97.111 57.0817H104.779V55.7564H98.2765C98.1747 55.7564 98.0822 55.673 98.0822 55.5617L98.0915 55.571Z" fill="white" fill-opacity="0.8"/>
<path d="M25.149 43.6055H23.2344V53.0034H25.149V43.6055Z" fill="white" fill-opacity="0.8"/>
<path d="M10.8867 45.1533V44.5601C10.8867 44.0504 10.4797 43.6426 9.97102 43.6426H1.84066V44.9679H8.78708C8.88882 44.9679 8.98132 45.0513 8.98132 45.1626V45.626C8.98132 47.3406 8.48184 48.666 8.48184 48.666H0V49.9913H5.41099V52.1415H1.90541V53.4669H8.75008C8.86107 53.4669 8.94432 53.5503 8.94432 53.6615V57.3966H10.859V53.0591C10.859 52.5493 10.452 52.1415 9.94327 52.1415H7.32565V49.9913H12.7459V48.666H10.3225C10.3225 48.666 10.8775 47.1645 10.8775 45.1626L10.8867 45.1533Z" fill="white" fill-opacity="0.8"/>
<path d="M18.4908 55.571V52.3086H16.5762V56.1642C16.5762 56.6647 16.9924 57.0817 17.4919 57.0817H25.391V55.7564H18.6758C18.5741 55.7564 18.4816 55.673 18.4816 55.5617L18.4908 55.571Z" fill="white" fill-opacity="0.8"/>
<path d="M21.0145 49.7324V44.7183C21.0145 44.2179 20.6075 43.8008 20.0988 43.8008H15.0485C14.549 43.8008 14.1328 44.2086 14.1328 44.7183V49.7324C14.1328 50.2422 14.549 50.65 15.0485 50.65H20.0988C20.5982 50.65 21.0145 50.2422 21.0145 49.7324ZM19.0998 49.1393C19.0998 49.2412 19.0166 49.3246 18.9056 49.3246H16.2325C16.1307 49.3246 16.0475 49.2412 16.0475 49.1393V45.3115C16.0475 45.2096 16.1307 45.1261 16.2325 45.1169H18.9056C19.0073 45.1169 19.0998 45.2003 19.0998 45.3115V49.1393Z" fill="white" fill-opacity="0.8"/>
<path d="M79.0285 14.9311H68.2435C63.2025 14.9311 60.9179 18.1936 60.2889 20.5292L56.0156 36.5076H57.6713C59.9744 36.5076 61.6579 35.8032 62.0463 34.4964C62.9343 31.1691 64.7102 24.5516 65.5982 21.2243C65.9496 19.9267 67.2538 19.2409 68.1603 19.2409C71.0646 19.2409 76.0594 19.2409 76.0594 19.2409C77.4283 19.2409 79.1118 19.4633 78.3533 21.9935C77.9278 23.495 76.5774 24.255 74.3112 24.255H70.7687C68.4378 24.255 66.7359 24.9686 66.3751 26.3125L65.7647 28.5647H73.451C78.1868 28.5647 82.3584 27.5637 83.903 21.8267C85.198 16.9794 82.9133 14.9219 79.0193 14.9219L79.0285 14.9311Z" fill="white" fill-opacity="0.8"/>
<path d="M99.7558 14.3203H98.6551C92.4394 14.3203 86.2885 18.4447 84.679 24.469L84.0131 26.9714C82.4037 32.9865 86.344 37.1201 92.5597 37.1201H93.6604C100.94 37.1201 106.027 32.9865 107.636 26.9714L108.312 24.469C109.921 18.4539 105.981 14.3203 99.7558 14.3203ZM102.484 25.3588L102.244 26.2485C101.088 30.5768 97.6284 32.9309 94.7888 32.9309H93.7159C90.8855 32.9309 88.6656 30.586 89.831 26.2485L90.0623 25.3588C91.2185 21.0305 94.6778 18.6856 97.5174 18.6856H98.5904C101.43 18.6856 103.631 21.0305 102.475 25.3588H102.484Z" fill="white" fill-opacity="0.8"/>
<path d="M34.1863 12.105H28.8864C26.722 12.105 24.9553 12.8372 23.9656 13.6806L11.1642 22.9303C12.1909 19.1025 13.1899 15.3396 14.0593 12.0957H10.3595C8.06561 12.0957 6.39144 12.7908 5.99371 14.0884L0 36.5082H3.69057C6.03071 36.5082 7.73263 35.7946 8.09336 34.4507C8.83332 31.6887 9.64728 28.6488 10.4705 25.581L17.8794 34.8585C18.6008 35.7575 19.3963 36.5082 22.0139 36.5082H27.6747L18.0181 24.5059L34.2048 12.105H34.1863Z" fill="white" fill-opacity="0.8"/>
<path d="M50.5397 23.3657H43.066C41.0404 23.3657 40.0877 22.9672 40.6056 21.2248C41.0311 19.7233 42.3076 19.2414 44.5737 19.2414H54.0175C56.3484 19.2414 58.0503 18.5184 58.411 17.1838L59.0123 14.9316H45.4247C40.6889 14.9316 36.4896 16.0253 35.0559 21.3916C34.057 25.1174 35.8791 27.694 40.0969 27.6754H47.5706C49.6517 27.6754 50.5304 28.1296 49.9939 29.9369C49.5685 31.4383 48.218 32.1891 45.9519 32.1891H36.3971C34.0662 32.1891 32.3643 32.912 32.0036 34.2466L31.4023 36.4988H45.1009C50.2252 36.4988 54.073 35.2847 55.5437 29.7701C56.6999 25.414 54.2395 23.3657 50.5397 23.3657Z" fill="white" fill-opacity="0.8"/>
<path d="M119.188 7.93387C118.763 7.69289 118.578 7.68363 118.226 8.06362C116.848 9.55581 114.388 12.3641 113.148 13.7729C114.823 16.1919 116.081 20.0845 115.35 25.0708C115.248 25.4137 115.461 25.6362 115.766 25.3303C118.902 22.1513 122.407 18.6572 125.552 16.266C124.303 12.4475 121.538 9.26849 119.188 7.9246V7.93387Z" fill="white" fill-opacity="0.8"/>
<path d="M99.7186 7.10949C99.5521 7.20217 99.5521 7.45241 99.7186 7.45241C104.177 7.35046 107.146 8.36997 109.616 10.168C112.437 7.86021 117.2 4.2456 119.513 3.05927C120.428 2.83683 122.066 2.6422 123.175 2.60513C122.214 3.64317 120.854 5.15389 120.077 6.00657C119.883 6.229 120.077 6.42364 120.308 6.33096C126.635 3.8378 135.043 1.92855 141.887 1.43733C126.256 -1.83435 111.114 0.686606 99.7186 7.11875V7.10949Z" fill="white" fill-opacity="0.8"/>
<path d="M144.172 1.96484C138.086 2.69703 129.928 5.38482 125.775 7.54432C125.192 7.85017 125.303 8.06334 125.747 8.25797C127.097 8.86967 129.502 10.3619 130.871 12.4657C139.815 7.11798 147.418 4.47653 149.999 3.59605C148.075 2.96581 146.05 2.40972 144.181 1.96484H144.172Z" fill="white" fill-opacity="0.8"/>
</g>
<defs>
<clipPath id="clip0_45_3941">
<rect width="150" height="67" fill="white"/>
</clipPath>
</defs>
</svg>
