<svg width="303" height="73" viewBox="0 0 303 73" fill="none" xmlns="http://www.w3.org/2000/svg">
<path d="M203.133 4.88281H200.768V3.23096H203.133V4.88281ZM195.978 6.06982C197.168 6.06982 198.139 6.05322 198.892 6.02002C199.65 5.98128 200.422 5.89827 201.208 5.771L201.415 7.38135C200.557 7.51969 199.722 7.61377 198.908 7.66357C198.1 7.71338 197.124 7.74105 195.978 7.74658H194.94V6.06982H195.978ZM200.693 2.49219H196.924V7.19873H194.94V0.865234H200.693V2.49219ZM200.128 5.03223H196.36V3.45508H200.128V5.03223ZM207.317 8.03711H205.3V0.0351562H207.317V8.03711ZM204.312 7.9292H202.303V0.267578H204.312V7.9292ZM207.317 12.5195H199.099V14.4287H196.991V11.0005H205.217V10.2036H196.982V8.57666H207.317V12.5195ZM207.823 15.0181H196.991V13.3911H207.823V15.0181Z" fill="#111111"/>
<path d="M190.799 3.04785H181.22V1.33789H190.799V3.04785ZM193.431 13.3076H179.651V11.5811H193.431V13.3076ZM192.003 3.18066C192.003 4.12695 191.992 4.93766 191.97 5.61279C191.948 6.28239 191.887 7.04053 191.787 7.88721C191.688 8.73389 191.53 9.66081 191.314 10.668L189.206 10.4854C189.427 9.55566 189.59 8.67855 189.695 7.854C189.8 7.02393 189.864 6.28239 189.886 5.62939C189.908 4.97087 189.922 4.15739 189.928 3.18896V3.10596V1.33789H192.003V3.10596V3.18066ZM181.021 7.51367L180.764 5.82861L190.368 5.48828V7.05713L181.021 7.51367Z" fill="#111111"/>
<path d="M173.566 3.11279H165.141V1.41113H173.566V3.11279ZM164.759 9.91943C166.557 9.91943 168.215 9.89453 169.731 9.84473C171.253 9.79492 172.683 9.68701 174.022 9.521L174.122 11.0317C172.75 11.2752 171.319 11.4385 169.831 11.5215C168.347 11.599 166.734 11.6432 164.991 11.6543L164.759 9.91943ZM168.519 10.3926H166.469V2.74756H168.519V10.3926ZM172.213 10.3926H170.179V2.74756H172.213V10.3926ZM176.87 15.124H174.745V0H176.87V15.124ZM179.111 7.49561H176.405V5.76904H179.111V7.49561Z" fill="#111111"/>
<path d="M159.123 2.82227H150.914V1.0957H159.123V2.82227ZM150.507 6.94775C152.289 6.94222 153.938 6.91732 155.454 6.87305C156.97 6.82878 158.39 6.7347 159.712 6.59082L159.845 8.13477C158.467 8.35059 157.026 8.49447 155.521 8.56641C154.015 8.63835 152.422 8.67432 150.739 8.67432L150.507 6.94775ZM154.159 7.54541H152.125V2.44043H154.159V7.54541ZM157.87 7.54541H155.844V2.44043H157.87V7.54541ZM162.9 15.124H160.783V11.5547H152.524V9.86133H162.9V15.124ZM162.9 9.26367H160.783V0H162.9V9.26367Z" fill="#111111"/>
<path d="M148.208 8.9917H146.091V0.0351562H148.208V8.9917ZM137.69 6.73389C139.312 6.74495 140.634 6.72282 141.658 6.66748C142.688 6.61214 143.728 6.4987 144.779 6.32715L145.037 8.02881C143.935 8.20036 142.837 8.31657 141.741 8.37744C140.646 8.43831 139.295 8.46875 137.69 8.46875H136.362V6.73389H137.69ZM143.343 5.43066H138.446V7.79639H136.362V3.81201H141.251V2.55859H136.346V0.898438H143.343V5.43066ZM148.208 14.96H138.089V9.64746H148.208V14.96ZM140.172 13.2583H146.132V11.3325H140.172V13.2583Z" fill="#111111"/>
<path d="M128.776 6.81592H126.676V4.79883H128.776V6.81592ZM127.763 0.150391C128.92 0.155924 129.908 0.258301 130.727 0.45752C131.551 0.651204 132.176 0.941732 132.603 1.3291C133.034 1.71647 133.25 2.18408 133.25 2.73193C133.25 3.28532 133.034 3.7557 132.603 4.14307C132.176 4.5249 131.554 4.81543 130.735 5.01465C129.916 5.21387 128.925 5.31348 127.763 5.31348C126.601 5.31348 125.608 5.21387 124.783 5.01465C123.964 4.81543 123.336 4.5249 122.899 4.14307C122.467 3.7557 122.251 3.28532 122.251 2.73193C122.251 2.18408 122.467 1.71647 122.899 1.3291C123.336 0.941732 123.964 0.651204 124.783 0.45752C125.608 0.258301 126.601 0.155924 127.763 0.150391ZM127.763 1.71094C127.016 1.71094 126.402 1.74967 125.92 1.82715C125.439 1.90462 125.076 2.01807 124.833 2.16748C124.59 2.31689 124.471 2.50505 124.476 2.73193C124.471 2.97542 124.587 3.17188 124.825 3.32129C125.068 3.4707 125.428 3.58138 125.904 3.65332C126.38 3.72526 127 3.764 127.763 3.76953C128.532 3.764 129.158 3.72526 129.639 3.65332C130.121 3.58138 130.478 3.4707 130.71 3.32129C130.948 3.17188 131.067 2.97542 131.067 2.73193C131.067 2.50505 130.948 2.31689 130.71 2.16748C130.472 2.01807 130.11 1.90462 129.623 1.82715C129.136 1.74967 128.516 1.71094 127.763 1.71094ZM134.661 7.83691H120.882V6.16846H134.661V7.83691ZM132.976 12.5103H124.559V13.9048H122.476V11.041H130.884V10.2358H122.467V8.65869H132.976V12.5103ZM133.375 15.0171H122.476V13.4316H133.375V15.0171Z" fill="#111111"/>
<path d="M114.107 9.31445H111.982V7.20605H114.107V9.31445ZM113.07 0.150391C114.226 0.155924 115.214 0.258301 116.033 0.45752C116.858 0.651204 117.483 0.941732 117.909 1.3291C118.341 1.71647 118.557 2.18408 118.557 2.73193C118.557 3.28532 118.341 3.7557 117.909 4.14307C117.483 4.5249 116.861 4.81543 116.042 5.01465C115.222 5.21387 114.232 5.31348 113.07 5.31348C111.908 5.31348 110.914 5.21387 110.09 5.01465C109.271 4.81543 108.643 4.5249 108.206 4.14307C107.774 3.7557 107.558 3.28532 107.558 2.73193C107.558 2.18408 107.774 1.71647 108.206 1.3291C108.643 0.941732 109.271 0.651204 110.09 0.45752C110.914 0.258301 111.908 0.155924 113.07 0.150391ZM113.07 1.71094C112.323 1.71094 111.708 1.74967 111.227 1.82715C110.746 1.90462 110.383 2.01807 110.14 2.16748C109.896 2.31689 109.777 2.50505 109.783 2.73193C109.777 2.97542 109.893 3.17188 110.131 3.32129C110.375 3.4707 110.735 3.58138 111.21 3.65332C111.686 3.72526 112.306 3.764 113.07 3.76953C113.839 3.764 114.464 3.72526 114.946 3.65332C115.427 3.58138 115.784 3.4707 116.017 3.32129C116.255 3.17188 116.374 2.97542 116.374 2.73193C116.374 2.50505 116.255 2.31689 116.017 2.16748C115.779 2.01807 115.416 1.90462 114.929 1.82715C114.442 1.74967 113.822 1.71094 113.07 1.71094ZM119.968 7.6543H106.188V6.00244H119.968V7.6543ZM118.283 12.5186H109.866V13.8799H107.782V11.041H116.191V10.2109H107.774V8.65869H118.283V12.5186ZM118.681 15.0171H107.782V13.4316H118.681V15.0171Z" fill="#111111"/>
<path d="M103.201 6.47461H99.1748V4.77295H103.201V6.47461ZM96.7759 3.42822C96.7703 4.72314 96.6154 5.93783 96.311 7.07227C96.0067 8.20671 95.5418 9.21387 94.9165 10.0938C94.2912 10.9681 93.5192 11.6349 92.6006 12.0942L91.2725 10.3594C92.1081 9.98861 92.8081 9.44352 93.3726 8.72412C93.937 7.99919 94.3576 7.18571 94.6343 6.28369C94.911 5.37614 95.0521 4.42432 95.0576 3.42822V1.17041H96.7759V3.42822ZM97.2075 3.42822C97.2075 4.41878 97.3403 5.354 97.606 6.23389C97.8716 7.10824 98.2783 7.88851 98.8262 8.57471C99.374 9.25537 100.055 9.77279 100.868 10.127L99.5732 11.8203C98.6602 11.3721 97.902 10.7329 97.2988 9.90283C96.6956 9.06722 96.2446 8.10433 95.9458 7.01416C95.6525 5.91846 95.5059 4.72314 95.5059 3.42822V1.17041H97.2075V3.42822ZM104.238 15.1655H102.138V0H104.238V15.1655Z" fill="#111111"/>
<path d="M295.512 63.5984C295.469 63.5984 295.448 63.5344 295.448 63.4064C295.448 63.2784 295.469 63.2144 295.512 63.2144C296.173 63.2144 296.621 63.0651 296.856 62.7664C297.112 62.4464 297.24 61.8598 297.24 61.0064L297.272 44.7504C297.272 44.0038 297.197 43.4704 297.048 43.1504C296.92 42.8304 296.685 42.6704 296.344 42.6704C296.067 42.6704 295.661 42.7878 295.128 43.0224H295.096C295.032 43.0224 294.968 42.9691 294.904 42.8624C294.861 42.7344 294.861 42.6598 294.904 42.6384L299.608 40.4304L299.736 40.3984C299.843 40.3984 299.96 40.4518 300.088 40.5584C300.216 40.6438 300.28 40.7291 300.28 40.8144V61.0064C300.28 61.8598 300.397 62.4464 300.632 62.7664C300.867 63.0651 301.315 63.2144 301.976 63.2144C302.061 63.2144 302.104 63.2784 302.104 63.4064C302.104 63.5344 302.061 63.5984 301.976 63.5984C301.443 63.5984 301.016 63.5878 300.696 63.5664L298.744 63.5344L296.824 63.5664C296.504 63.5878 296.067 63.5984 295.512 63.5984Z" fill="#111111"/>
<path d="M288.537 63.981C287.193 63.981 286.03 63.7037 285.049 63.149C284.068 62.573 283.321 61.8157 282.809 60.877C282.297 59.917 282.041 58.8824 282.041 57.773C282.041 56.5357 282.35 55.3944 282.969 54.349C283.588 53.3037 284.441 52.4824 285.529 51.885C286.638 51.2664 287.886 50.957 289.273 50.957C290.596 50.957 291.62 51.2557 292.345 51.853C293.07 52.4504 293.433 53.3784 293.433 54.637C293.433 55.2984 293.316 55.629 293.081 55.629H290.009C290.052 54.3277 289.924 53.3357 289.625 52.653C289.326 51.949 288.804 51.597 288.057 51.597C287.204 51.597 286.521 52.0344 286.009 52.909C285.518 53.7837 285.273 54.9464 285.273 56.397C285.273 58.2744 285.7 59.7464 286.553 60.813C287.428 61.8797 288.676 62.413 290.297 62.413C290.873 62.413 291.364 62.349 291.769 62.221C292.174 62.0717 292.708 61.837 293.369 61.517L293.433 61.485C293.476 61.485 293.518 61.5277 293.561 61.613C293.625 61.6984 293.636 61.7624 293.593 61.805C292.804 62.573 292.004 63.1277 291.193 63.469C290.382 63.8104 289.497 63.981 288.537 63.981ZM284.121 55.053L291.129 54.925V55.629L284.153 55.661L284.121 55.053Z" fill="#111111"/>
<path d="M276.155 63.9825C275.216 63.9825 274.416 63.7585 273.755 63.3105C273.094 62.8625 272.763 62.1051 272.763 61.0385V53.9345C272.763 53.2731 272.646 52.8145 272.411 52.5585C272.176 52.3025 271.75 52.1745 271.131 52.1745C271.11 52.1745 271.078 52.1425 271.035 52.0785C271.014 52.0145 271.003 51.9505 271.003 51.8865C271.003 51.8011 271.014 51.7371 271.035 51.6945C271.056 51.6305 271.088 51.5985 271.131 51.5985C272.219 51.5558 273.094 51.3211 273.755 50.8945C274.438 50.4678 274.96 49.8171 275.323 48.9425C275.366 48.8571 275.451 48.8145 275.579 48.8145C275.728 48.8145 275.803 48.8571 275.803 48.9425V59.9825C275.803 60.7931 276.006 61.3905 276.411 61.7745C276.838 62.1585 277.392 62.3505 278.075 62.3505C278.928 62.3505 279.76 62.0305 280.571 61.3905L280.635 61.3585C280.72 61.3585 280.784 61.4011 280.827 61.4865C280.891 61.5718 280.891 61.6358 280.827 61.6785C280.038 62.4678 279.27 63.0545 278.523 63.4385C277.776 63.8011 276.987 63.9825 276.155 63.9825ZM279.835 52.8785C278.278 52.5371 276.56 52.3665 274.683 52.3665V51.5345C276.07 51.5345 277.83 51.4278 279.963 51.2145C280.006 51.2145 280.048 51.2998 280.091 51.4705C280.155 51.6198 280.187 51.7905 280.187 51.9825C280.187 52.1958 280.144 52.4091 280.059 52.6225C279.995 52.8145 279.92 52.8998 279.835 52.8785Z" fill="#111111"/>
<path d="M255.22 63.5984C255.177 63.5984 255.156 63.5344 255.156 63.4064C255.156 63.2784 255.177 63.2144 255.22 63.2144C255.881 63.2144 256.329 63.0651 256.564 62.7664C256.82 62.4464 256.948 61.8598 256.948 61.0064V44.7504C256.948 44.0038 256.873 43.4704 256.724 43.1504C256.596 42.8304 256.361 42.6704 256.02 42.6704C255.721 42.6704 255.316 42.7878 254.804 43.0224H254.772C254.708 43.0224 254.644 42.9691 254.58 42.8624C254.537 42.7344 254.537 42.6598 254.58 42.6384L259.252 40.4304L259.412 40.3984C259.519 40.3984 259.625 40.4518 259.732 40.5584C259.86 40.6438 259.924 40.7291 259.924 40.8144V61.0064C259.924 61.8598 260.041 62.4464 260.276 62.7664C260.532 63.0651 260.991 63.2144 261.652 63.2144C261.737 63.2144 261.78 63.2784 261.78 63.4064C261.78 63.5344 261.737 63.5984 261.652 63.5984C261.097 63.5984 260.649 63.5878 260.308 63.5664L258.452 63.5344L256.532 63.5664C256.212 63.5878 255.775 63.5984 255.22 63.5984ZM263.284 63.5984C263.22 63.5984 263.188 63.5344 263.188 63.4064C263.188 63.2784 263.22 63.2144 263.284 63.2144C264.052 63.2144 264.436 62.9904 264.436 62.5424C264.436 62.3078 264.35 62.0944 264.18 61.9024L260.308 56.9424L262.484 55.2784L266.964 61.0064C267.583 61.7744 268.169 62.3398 268.724 62.7024C269.3 63.0438 269.876 63.2144 270.452 63.2144C270.516 63.2144 270.548 63.2784 270.548 63.4064C270.548 63.5344 270.516 63.5984 270.452 63.5984C269.897 63.5984 269.46 63.5878 269.14 63.5664L267.22 63.5344L264.756 63.5664C264.393 63.5878 263.902 63.5984 263.284 63.5984ZM258.58 58.3184L262.9 54.1584C263.454 53.6464 263.732 53.1238 263.732 52.5904C263.732 52.3131 263.625 52.0891 263.412 51.9184C263.199 51.7264 262.9 51.6304 262.516 51.6304C262.473 51.6304 262.452 51.5664 262.452 51.4384C262.452 51.3104 262.473 51.2464 262.516 51.2464C263.134 51.2464 263.614 51.2571 263.956 51.2784L266.484 51.3104L268.82 51.2784C269.119 51.2571 269.534 51.2464 270.068 51.2464C270.132 51.2464 270.164 51.3104 270.164 51.4384C270.164 51.5664 270.132 51.6304 270.068 51.6304C269.15 51.6304 268.094 51.8651 266.9 52.3344C265.726 52.7824 264.67 53.4438 263.732 54.3184L258.772 58.8304L258.58 58.3184Z" fill="#111111"/>
<path d="M247.319 54.5098C248.492 53.1658 249.431 52.2378 250.135 51.7258C250.86 51.1924 251.479 50.9258 251.991 50.9258C252.482 50.9258 252.951 51.1071 253.399 51.4698C253.869 51.8111 254.103 52.2271 254.103 52.7178C254.103 53.1658 253.964 53.5391 253.687 53.8378C253.41 54.1151 253.047 54.2538 252.599 54.2538C252.279 54.2538 252.012 54.1898 251.799 54.0618C251.607 53.9338 251.404 53.7418 251.191 53.4858C250.999 53.2724 250.828 53.1231 250.679 53.0378C250.551 52.9311 250.391 52.8778 250.199 52.8778C249.964 52.8778 249.666 53.0058 249.303 53.2618C248.962 53.5178 248.386 54.0724 247.575 54.9258L247.319 54.5098ZM243.671 63.5978C243.607 63.5978 243.575 63.5338 243.575 63.4058C243.575 63.2778 243.607 63.2138 243.671 63.2138C244.332 63.2138 244.78 63.0644 245.015 62.7658C245.25 62.4458 245.367 61.8591 245.367 61.0058V54.9898C245.367 54.3284 245.282 53.8484 245.111 53.5498C244.962 53.2298 244.716 53.0698 244.375 53.0698C244.012 53.0698 243.5 53.2191 242.839 53.5178H242.775C242.711 53.5178 242.658 53.4644 242.615 53.3578C242.594 53.2511 242.604 53.1871 242.647 53.1658L247.095 50.9898C247.223 50.9471 247.298 50.9258 247.319 50.9258C247.575 50.9258 247.81 51.2031 248.023 51.7578C248.258 52.2911 248.375 53.0058 248.375 53.9018V61.0058C248.375 61.8591 248.578 62.4458 248.983 62.7658C249.388 63.0644 250.135 63.2138 251.223 63.2138C251.308 63.2138 251.351 63.2778 251.351 63.4058C251.351 63.5338 251.308 63.5978 251.223 63.5978C250.476 63.5978 249.89 63.5871 249.463 63.5658L246.871 63.5338L244.983 63.5658C244.663 63.5871 244.226 63.5978 243.671 63.5978Z" fill="#111111"/>
<path d="M232.56 64.0141C231.685 64.0141 230.874 63.8007 230.128 63.3741C229.402 62.9261 228.826 62.2754 228.4 61.4221C227.973 60.5687 227.76 59.5447 227.76 58.3501C227.76 56.8354 228.112 55.5127 228.816 54.3821C229.52 53.2301 230.448 52.3554 231.6 51.7581C232.752 51.1607 233.989 50.8621 235.312 50.8621C236.869 50.8621 238.202 51.3527 239.312 52.3341L236.976 54.3821C236.976 53.5501 236.741 52.8674 236.272 52.3341C235.824 51.8007 235.226 51.5341 234.48 51.5341C233.413 51.5341 232.57 52.0674 231.952 53.1341C231.354 54.2007 231.056 55.5767 231.056 57.2621C231.056 58.8621 231.322 60.1101 231.856 61.0061C232.41 61.8807 233.189 62.3181 234.192 62.3181C235.194 62.3181 236.304 61.8487 237.52 60.9101L237.776 61.1341C236.88 62.0514 236.037 62.7661 235.248 63.2781C234.48 63.7687 233.584 64.0141 232.56 64.0141ZM237.84 64.0461C237.605 64.0461 237.402 63.7687 237.232 63.2141C237.061 62.6594 236.976 61.9127 236.976 60.9741V52.1101C237.68 51.9394 238.213 51.7794 238.576 51.6301C238.96 51.4594 239.322 51.2034 239.664 50.8621C239.685 50.8407 239.717 50.8301 239.76 50.8301C239.802 50.8301 239.845 50.8514 239.888 50.8941C239.952 50.9154 239.984 50.9474 239.984 50.9901V60.1101C239.984 60.7501 240.048 61.2087 240.176 61.4861C240.325 61.7421 240.56 61.8701 240.88 61.8701C241.157 61.8701 241.594 61.7527 242.192 61.5181H242.256C242.32 61.5181 242.373 61.5714 242.416 61.6781C242.48 61.7847 242.48 61.8487 242.416 61.8701L238 64.0141C237.957 64.0354 237.904 64.0461 237.84 64.0461Z" fill="#111111"/>
<path d="M213.266 60.1985C213.266 61.0518 213.36 61.6785 213.546 62.0785C213.733 62.4518 214.08 62.7185 214.586 62.8785C215.12 63.0385 215.96 63.1185 217.106 63.1185C217.186 63.1185 217.226 63.1985 217.226 63.3585C217.226 63.5185 217.186 63.5985 217.106 63.5985C216.013 63.5985 215.16 63.5852 214.546 63.5585L211.066 63.5185L208.146 63.5585C207.613 63.5852 206.893 63.5985 205.986 63.5985C205.906 63.5985 205.866 63.5185 205.866 63.3585C205.866 63.1985 205.906 63.1185 205.986 63.1185C206.84 63.1185 207.453 63.0518 207.826 62.9185C208.226 62.7852 208.493 62.5319 208.626 62.1585C208.76 61.7585 208.826 61.1585 208.826 60.3585V41.8385C208.826 41.0385 208.76 40.4518 208.626 40.0785C208.493 39.7052 208.226 39.4518 207.826 39.3185C207.426 39.1585 206.813 39.0785 205.986 39.0785C205.906 39.0785 205.866 38.9985 205.866 38.8385C205.866 38.6785 205.906 38.5985 205.986 38.5985L208.106 38.6385C209.333 38.6918 210.306 38.7185 211.026 38.7185C211.666 38.7185 212.426 38.6785 213.306 38.5985C213.653 38.5718 214.093 38.5452 214.626 38.5185C215.16 38.4918 215.773 38.4785 216.466 38.4785C219.186 38.4785 221.333 39.0518 222.906 40.1985C224.48 41.3185 225.266 43.0652 225.266 45.4385C225.266 47.0918 224.84 48.4918 223.986 49.6385C223.133 50.7852 222.026 51.6518 220.666 52.2385C219.333 52.8252 217.96 53.1185 216.546 53.1185C215.826 53.1185 215.2 53.0518 214.666 52.9185C214.613 52.9185 214.586 52.8518 214.586 52.7185C214.586 52.6385 214.6 52.5585 214.626 52.4785C214.68 52.3985 214.733 52.3718 214.786 52.3985C215.186 52.5052 215.64 52.5585 216.146 52.5585C217.373 52.5585 218.386 51.9852 219.186 50.8385C220.013 49.6918 220.426 48.0652 220.426 45.9585C220.426 43.8518 219.973 42.2252 219.066 41.0785C218.186 39.9318 216.893 39.3585 215.186 39.3585C214.44 39.3585 213.933 39.5318 213.666 39.8785C213.4 40.2252 213.266 40.9052 213.266 41.9185V60.1985Z" fill="#111111"/>
<path d="M191.021 63.981C189.613 63.981 188.418 63.6824 187.437 63.085C186.477 62.4664 185.751 61.677 185.261 60.717C184.791 59.7357 184.557 58.7117 184.557 57.645C184.557 56.301 184.93 55.1277 185.677 54.125C186.423 53.101 187.373 52.3224 188.525 51.789C189.698 51.2344 190.893 50.957 192.109 50.957C193.133 50.957 194.05 51.1704 194.861 51.597C195.693 52.0237 196.109 52.6104 196.109 53.357C196.109 53.7624 195.949 54.1144 195.629 54.413C195.33 54.6904 194.903 54.829 194.349 54.829C193.837 54.829 193.431 54.701 193.133 54.445C192.834 54.1677 192.589 53.7517 192.397 53.197C192.205 52.5997 192.013 52.1944 191.821 51.981C191.65 51.7464 191.33 51.629 190.861 51.629C189.943 51.629 189.207 52.0877 188.653 53.005C188.119 53.901 187.853 55.0957 187.853 56.589C187.853 58.3597 188.247 59.7784 189.037 60.845C189.826 61.8904 191.085 62.413 192.813 62.413C193.389 62.413 193.879 62.349 194.285 62.221C194.711 62.093 195.245 61.8797 195.885 61.581H195.917C195.981 61.581 196.034 61.613 196.077 61.677C196.141 61.741 196.151 61.7944 196.109 61.837C195.319 62.5624 194.53 63.1064 193.741 63.469C192.951 63.8104 192.045 63.981 191.021 63.981Z" fill="#111111"/>
<path d="M176.374 63.5984C176.31 63.5984 176.278 63.5344 176.278 63.4064C176.278 63.2784 176.31 63.2144 176.374 63.2144C177.036 63.2144 177.484 63.0651 177.718 62.7664C177.953 62.4464 178.07 61.8598 178.07 61.0064V55.2784C178.07 54.5531 177.996 54.0304 177.846 53.7104C177.697 53.3904 177.452 53.2304 177.11 53.2304C176.833 53.2304 176.438 53.3478 175.926 53.5824H175.894C175.809 53.5824 175.745 53.5291 175.702 53.4224C175.66 53.2944 175.67 53.2198 175.734 53.1984L180.566 50.9584L180.662 50.9264C180.769 50.9264 180.876 50.9798 180.982 51.0864C181.089 51.1931 181.142 51.2891 181.142 51.3744V52.0784C181.1 52.9318 181.078 53.9771 181.078 55.2144V61.0064C181.078 61.8598 181.196 62.4464 181.43 62.7664C181.686 63.0651 182.145 63.2144 182.806 63.2144C182.87 63.2144 182.902 63.2784 182.902 63.4064C182.902 63.5344 182.87 63.5984 182.806 63.5984C182.252 63.5984 181.814 63.5878 181.494 63.5664L179.574 63.5344L177.686 63.5664C177.366 63.5878 176.929 63.5984 176.374 63.5984ZM179.446 47.7584C178.828 47.7584 178.348 47.5878 178.006 47.2464C177.665 46.9051 177.494 46.4251 177.494 45.8064C177.494 45.2518 177.665 44.8144 178.006 44.4944C178.369 44.1531 178.849 43.9824 179.446 43.9824C180.044 43.9824 180.502 44.1424 180.822 44.4624C181.142 44.7824 181.302 45.2304 181.302 45.8064C181.302 46.4251 181.142 46.9051 180.822 47.2464C180.502 47.5878 180.044 47.7584 179.446 47.7584Z" fill="#111111"/>
<path d="M159.552 72.3981C159.488 72.3981 159.456 72.3341 159.456 72.2061C159.456 72.0781 159.488 72.0141 159.552 72.0141C160.064 72.0141 160.437 71.9501 160.672 71.8221C160.928 71.7154 161.099 71.5127 161.184 71.2141C161.291 70.9154 161.344 70.4461 161.344 69.8061V54.9901C161.344 54.3074 161.269 53.8167 161.12 53.5181C160.971 53.2194 160.704 53.0701 160.32 53.0701C159.979 53.0701 159.488 53.2194 158.848 53.5181H158.784C158.72 53.5181 158.667 53.4647 158.624 53.3581C158.56 53.2514 158.549 53.1874 158.592 53.1661L163.136 50.9581C163.179 50.9367 163.232 50.9261 163.296 50.9261C163.552 50.9261 163.787 51.2034 164 51.7581C164.213 52.2914 164.32 53.0061 164.32 53.9021V69.8061C164.32 70.4461 164.384 70.9154 164.512 71.2141C164.661 71.5127 164.928 71.7154 165.312 71.8221C165.717 71.9501 166.336 72.0141 167.168 72.0141C167.232 72.0141 167.264 72.0781 167.264 72.2061C167.264 72.3341 167.232 72.3981 167.168 72.3981C166.379 72.3981 165.76 72.3874 165.312 72.3661L162.784 72.3341L160.896 72.3661C160.576 72.3874 160.128 72.3981 159.552 72.3981ZM167.072 64.0141C166.304 64.0141 165.632 63.9501 165.056 63.8221C164.48 63.7154 163.744 63.5127 162.848 63.2141L163.968 61.1981C164.501 61.8594 165.035 62.3607 165.568 62.7021C166.123 63.0434 166.827 63.2141 167.68 63.2141C169.835 63.2141 170.912 61.3794 170.912 57.7101C170.912 56.0887 170.528 54.8407 169.76 53.9661C169.013 53.0701 168.075 52.6221 166.944 52.6221C166.197 52.6221 165.547 52.8034 164.992 53.1661C164.437 53.5074 163.84 54.0407 163.2 54.7661L162.88 54.3821C163.968 53.1447 165.003 52.2487 165.984 51.6941C166.987 51.1181 168.011 50.8301 169.056 50.8301C169.952 50.8301 170.784 51.0647 171.552 51.5341C172.341 52.0034 172.971 52.6861 173.44 53.5821C173.909 54.4781 174.144 55.5234 174.144 56.7181C174.144 58.4247 173.792 59.8327 173.088 60.9421C172.384 62.0301 171.488 62.8194 170.4 63.3101C169.333 63.7794 168.224 64.0141 167.072 64.0141Z" fill="#111111"/>
<path d="M151.701 63.5973C151.637 63.5973 151.605 63.5333 151.605 63.4053C151.605 63.2773 151.637 63.2133 151.701 63.2133C152.362 63.2133 152.81 63.064 153.045 62.7653C153.301 62.4453 153.429 61.8587 153.429 61.0053V56.3973C153.429 55.2453 153.226 54.392 152.821 53.8373C152.437 53.2827 151.84 53.0053 151.029 53.0053C150.368 53.0053 149.728 53.1653 149.109 53.4853C148.49 53.8053 147.989 54.2427 147.605 54.7973L147.445 54.4133C149.066 52.0453 150.869 50.8613 152.853 50.8613C154.005 50.8613 154.88 51.192 155.477 51.8533C156.096 52.5147 156.405 53.5173 156.405 54.8613V61.0053C156.405 61.8587 156.522 62.4453 156.757 62.7653C157.013 63.064 157.472 63.2133 158.133 63.2133C158.218 63.2133 158.261 63.2773 158.261 63.4053C158.261 63.5333 158.218 63.5973 158.133 63.5973C157.578 63.5973 157.141 63.5867 156.821 63.5653L154.901 63.5333L153.045 63.5653C152.704 63.5867 152.256 63.5973 151.701 63.5973ZM143.317 63.5973C143.253 63.5973 143.221 63.5333 143.221 63.4053C143.221 63.2773 143.253 63.2133 143.317 63.2133C143.978 63.2133 144.426 63.064 144.661 62.7653C144.917 62.4453 145.045 61.8587 145.045 61.0053V56.3973C145.045 55.2453 144.842 54.392 144.437 53.8373C144.053 53.2827 143.456 53.0053 142.645 53.0053C141.984 53.0053 141.344 53.1653 140.725 53.4853C140.106 53.8053 139.605 54.2427 139.221 54.7973L139.061 54.4133C140.682 52.0453 142.485 50.8613 144.469 50.8613C145.6 50.8613 146.474 51.1813 147.093 51.8213C147.712 52.44 148.021 53.336 148.021 54.5093V61.0053C148.021 61.8587 148.138 62.4453 148.373 62.7653C148.629 63.064 149.088 63.2133 149.749 63.2133C149.834 63.2133 149.877 63.2773 149.877 63.4053C149.877 63.5333 149.834 63.5973 149.749 63.5973C149.194 63.5973 148.757 63.5867 148.437 63.5653L146.517 63.5333L144.661 63.5653C144.32 63.5867 143.872 63.5973 143.317 63.5973ZM135.093 63.5973C135.029 63.5973 134.997 63.5333 134.997 63.4053C134.997 63.2773 135.029 63.2133 135.093 63.2133C135.754 63.2133 136.202 63.064 136.437 62.7653C136.672 62.4453 136.789 61.8587 136.789 61.0053V54.9893C136.789 54.328 136.704 53.848 136.533 53.5493C136.384 53.2293 136.138 53.0693 135.797 53.0693C135.434 53.0693 134.922 53.2187 134.261 53.5173H134.197C134.133 53.5173 134.08 53.464 134.037 53.3573C134.016 53.2507 134.026 53.1867 134.069 53.1653L138.517 50.9893C138.645 50.9467 138.72 50.9253 138.741 50.9253C138.997 50.9253 139.232 51.2027 139.445 51.7573C139.68 52.2907 139.797 53.0053 139.797 53.9013V61.0053C139.797 61.8587 139.914 62.4453 140.149 62.7653C140.405 63.064 140.864 63.2133 141.525 63.2133C141.589 63.2133 141.621 63.2773 141.621 63.4053C141.621 63.5333 141.589 63.5973 141.525 63.5973C140.97 63.5973 140.533 63.5867 140.213 63.5653L138.293 63.5333L136.405 63.5653C136.085 63.5867 135.648 63.5973 135.093 63.5973Z" fill="#111111"/>
<path d="M123.316 58.445C123.316 59.597 123.519 60.4504 123.924 61.005C124.351 61.5597 125.012 61.837 125.908 61.837C126.569 61.837 127.231 61.677 127.892 61.357C128.575 61.0157 129.108 60.5784 129.492 60.045L129.652 60.429C128.884 61.5384 128.02 62.413 127.06 63.053C126.121 63.6717 125.119 63.981 124.052 63.981C122.9 63.981 121.983 63.6184 121.3 62.893C120.639 62.1464 120.308 61.1757 120.308 59.981V55.277C120.308 54.573 120.233 54.0504 120.084 53.709C119.935 53.3677 119.689 53.197 119.348 53.197C119.092 53.197 118.815 53.2717 118.516 53.421H118.484C118.399 53.421 118.335 53.3677 118.292 53.261C118.271 53.133 118.281 53.0584 118.324 53.037L122.644 50.989L122.772 50.957C122.879 50.957 122.996 51.0104 123.124 51.117C123.252 51.2024 123.316 51.2877 123.316 51.373V58.445ZM131.828 65.837C131.828 67.885 131.252 69.517 130.1 70.733C128.969 71.9704 127.263 72.589 124.98 72.589C123.636 72.589 122.495 72.365 121.556 71.917C120.617 71.4904 120.148 70.861 120.148 70.029C120.148 69.581 120.297 69.2184 120.596 68.941C120.895 68.6637 121.3 68.525 121.812 68.525C122.345 68.525 122.761 68.6637 123.06 68.941C123.359 69.2184 123.679 69.6237 124.02 70.157C124.383 70.7544 124.724 71.1917 125.044 71.469C125.385 71.7677 125.865 71.917 126.484 71.917C127.231 71.917 127.807 71.5437 128.212 70.797C128.639 70.0717 128.852 68.6744 128.852 66.605V55.277C128.852 53.8904 128.521 53.197 127.86 53.197C127.625 53.197 127.359 53.2717 127.06 53.421H127.028C126.943 53.421 126.879 53.3677 126.836 53.261C126.793 53.133 126.804 53.0584 126.868 53.037L131.156 50.989L131.316 50.957C131.423 50.957 131.529 51.0104 131.636 51.117C131.764 51.2024 131.828 51.2877 131.828 51.373V65.837Z" fill="#111111"/>
<path d="M110.434 63.5984C110.391 63.5984 110.37 63.5344 110.37 63.4064C110.37 63.2784 110.391 63.2144 110.434 63.2144C111.095 63.2144 111.543 63.0651 111.778 62.7664C112.034 62.4464 112.162 61.8598 112.162 61.0064L112.194 44.7504C112.194 44.0038 112.119 43.4704 111.97 43.1504C111.842 42.8304 111.607 42.6704 111.266 42.6704C110.989 42.6704 110.583 42.7878 110.05 43.0224H110.018C109.954 43.0224 109.89 42.9691 109.826 42.8624C109.783 42.7344 109.783 42.6598 109.826 42.6384L114.53 40.4304L114.658 40.3984C114.765 40.3984 114.882 40.4518 115.01 40.5584C115.138 40.6438 115.202 40.7291 115.202 40.8144V61.0064C115.202 61.8598 115.319 62.4464 115.554 62.7664C115.789 63.0651 116.237 63.2144 116.898 63.2144C116.983 63.2144 117.026 63.2784 117.026 63.4064C117.026 63.5344 116.983 63.5984 116.898 63.5984C116.365 63.5984 115.938 63.5878 115.618 63.5664L113.666 63.5344L111.746 63.5664C111.426 63.5878 110.989 63.5984 110.434 63.5984Z" fill="#111111"/>
<path d="M93.3284 64.0782C90.8484 64.0782 88.6351 63.5049 86.6884 62.3582C84.7684 61.1849 83.2751 59.6115 82.2084 57.6382C81.1684 55.6382 80.6484 53.4649 80.6484 51.1182C80.6484 48.3715 81.3418 46.0249 82.7284 44.0782C84.1151 42.1049 85.8884 40.6249 88.0484 39.6382C90.2351 38.6515 92.4618 38.1582 94.7284 38.1582C97.2618 38.1582 99.4884 38.7582 101.408 39.9582C103.328 41.1315 104.795 42.6915 105.808 44.6382C106.848 46.5849 107.368 48.6515 107.368 50.8382C107.368 53.2649 106.728 55.4915 105.448 57.5182C104.168 59.5449 102.448 61.1449 100.288 62.3182C98.1551 63.4915 95.8351 64.0782 93.3284 64.0782ZM94.6484 63.0782C96.1418 63.0782 97.4751 62.6515 98.6484 61.7982C99.8484 60.9182 100.782 59.6515 101.448 57.9982C102.115 56.3182 102.448 54.3182 102.448 51.9982C102.448 49.5449 102.075 47.3582 101.328 45.4382C100.582 43.4915 99.5018 41.9715 98.0884 40.8782C96.6751 39.7849 95.0218 39.2382 93.1284 39.2382C90.7018 39.2382 88.8351 40.1582 87.5284 41.9982C86.2218 43.8115 85.5684 46.3582 85.5684 49.6382C85.5684 52.2249 85.9551 54.5449 86.7284 56.5982C87.5284 58.6249 88.6084 60.2115 89.9684 61.3582C91.3551 62.5049 92.9151 63.0782 94.6484 63.0782Z" fill="#111111"/>
<path d="M63.7464 63.5984C63.7038 63.5984 63.6824 63.5344 63.6824 63.4064C63.6824 63.2784 63.7038 63.2144 63.7464 63.2144C64.4078 63.2144 64.8558 63.0651 65.0904 62.7664C65.3464 62.4464 65.4744 61.8598 65.4744 61.0064L65.5064 44.7504C65.5064 44.0038 65.4318 43.4704 65.2824 43.1504C65.1544 42.8304 64.9198 42.6704 64.5784 42.6704C64.3011 42.6704 63.8958 42.7878 63.3624 43.0224H63.3304C63.2664 43.0224 63.2024 42.9691 63.1384 42.8624C63.0958 42.7344 63.0958 42.6598 63.1384 42.6384L67.8424 40.4304L67.9704 40.3984C68.0771 40.3984 68.1944 40.4518 68.3224 40.5584C68.4504 40.6438 68.5144 40.7291 68.5144 40.8144V61.0064C68.5144 61.8598 68.6318 62.4464 68.8664 62.7664C69.1011 63.0651 69.5491 63.2144 70.2104 63.2144C70.2958 63.2144 70.3384 63.2784 70.3384 63.4064C70.3384 63.5344 70.2958 63.5984 70.2104 63.5984C69.6771 63.5984 69.2504 63.5878 68.9304 63.5664L66.9784 63.5344L65.0584 63.5664C64.7384 63.5878 64.3011 63.5984 63.7464 63.5984Z" fill="#111111"/>
<path d="M52.6135 63.981C51.4402 63.981 50.5122 63.6184 49.8295 62.893C49.1682 62.1464 48.8375 61.1757 48.8375 59.981V55.277C48.8375 53.8904 48.5068 53.197 47.8455 53.197C47.6108 53.197 47.3442 53.2717 47.0455 53.421H47.0135C46.9282 53.421 46.8642 53.3677 46.8215 53.261C46.7788 53.133 46.7895 53.0584 46.8535 53.037L51.1415 50.989L51.3015 50.957C51.4082 50.957 51.5148 51.0104 51.6215 51.117C51.7495 51.2024 51.8135 51.2877 51.8135 51.373V58.445C51.8135 60.749 52.6988 61.901 54.4695 61.901C55.0668 61.901 55.6748 61.7304 56.2935 61.389C56.9335 61.0477 57.4348 60.5997 57.7975 60.045L57.9895 60.429C57.2215 61.5384 56.3895 62.413 55.4935 63.053C54.5975 63.6717 53.6375 63.981 52.6135 63.981ZM60.1655 59.885C60.1655 60.6104 60.2295 61.1224 60.3575 61.421C60.5068 61.7197 60.7415 61.869 61.0615 61.869C61.3602 61.869 61.7975 61.7517 62.3735 61.517H62.4375C62.5015 61.517 62.5548 61.5704 62.5975 61.677C62.6615 61.7837 62.6615 61.8477 62.5975 61.869L58.1815 64.013C58.1388 64.0344 58.0855 64.045 58.0215 64.045C57.7868 64.045 57.5842 63.7677 57.4135 63.213C57.2642 62.6584 57.1895 61.9117 57.1895 60.973V55.277C57.1895 53.8904 56.8588 53.197 56.1975 53.197C55.9628 53.197 55.6855 53.2717 55.3655 53.421H55.3335C55.2695 53.421 55.2162 53.3677 55.1735 53.261C55.1308 53.133 55.1415 53.0584 55.2055 53.037L59.4935 50.989C59.5362 50.9677 59.5895 50.957 59.6535 50.957C59.7602 50.957 59.8668 51.0104 59.9735 51.117C60.1015 51.2024 60.1655 51.2877 60.1655 51.373V59.885Z" fill="#111111"/>
<path d="M38.3979 64.0141C37.0752 64.0141 35.9126 63.7154 34.9099 63.1181C33.9286 62.4994 33.1712 61.6781 32.6379 60.6541C32.1046 59.6087 31.8379 58.4781 31.8379 57.2621C31.8379 55.8754 32.1899 54.7021 32.8939 53.7421C33.5979 52.7607 34.4939 52.0354 35.5819 51.5661C36.6699 51.0754 37.7899 50.8301 38.9419 50.8301C40.2646 50.8301 41.4166 51.1394 42.3979 51.7581C43.3792 52.3767 44.1259 53.1981 44.6379 54.2221C45.1712 55.2247 45.4379 56.3021 45.4379 57.4541C45.4379 58.7341 45.1179 59.8754 44.4779 60.8781C43.8379 61.8594 42.9739 62.6274 41.8859 63.1821C40.8192 63.7367 39.6566 64.0141 38.3979 64.0141ZM39.3579 63.3421C40.1899 63.3421 40.8192 62.9367 41.2459 62.1261C41.6939 61.2941 41.9179 60.1101 41.9179 58.5741C41.9179 57.0807 41.7259 55.8007 41.3419 54.7341C40.9579 53.6674 40.4566 52.8674 39.8379 52.3341C39.2192 51.7794 38.5579 51.5021 37.8539 51.5021C36.1472 51.5021 35.2939 53.0274 35.2939 56.0781C35.2939 57.5074 35.4752 58.7767 35.8379 59.8861C36.2006 60.9741 36.6912 61.8274 37.3099 62.4461C37.9286 63.0434 38.6112 63.3421 39.3579 63.3421Z" fill="#111111"/>
<path d="M25.1464 63.981C23.8024 63.981 22.6397 63.7037 21.6584 63.149C20.6771 62.573 19.9304 61.8157 19.4184 60.877C18.9064 59.917 18.6504 58.8824 18.6504 57.773C18.6504 56.5357 18.9597 55.3944 19.5784 54.349C20.1971 53.3037 21.0504 52.4824 22.1384 51.885C23.2477 51.2664 24.4957 50.957 25.8824 50.957C27.2051 50.957 28.2291 51.2557 28.9544 51.853C29.6797 52.4504 30.0424 53.3784 30.0424 54.637C30.0424 55.2984 29.9251 55.629 29.6904 55.629H26.6184C26.6611 54.3277 26.5331 53.3357 26.2344 52.653C25.9357 51.949 25.4131 51.597 24.6664 51.597C23.8131 51.597 23.1304 52.0344 22.6184 52.909C22.1277 53.7837 21.8824 54.9464 21.8824 56.397C21.8824 58.2744 22.3091 59.7464 23.1624 60.813C24.0371 61.8797 25.2851 62.413 26.9064 62.413C27.4824 62.413 27.9731 62.349 28.3784 62.221C28.7837 62.0717 29.3171 61.837 29.9784 61.517L30.0424 61.485C30.0851 61.485 30.1277 61.5277 30.1704 61.613C30.2344 61.6984 30.2451 61.7624 30.2024 61.805C29.4131 62.573 28.6131 63.1277 27.8024 63.469C26.9917 63.8104 26.1064 63.981 25.1464 63.981ZM20.7304 55.053L27.7384 54.925V55.629L20.7624 55.661L20.7304 55.053Z" fill="#111111"/>
<path d="M4 42.6382C4 43.5982 4.24 44.4515 4.72 45.1982C5.22667 45.9449 5.84 46.5982 6.56 47.1582C7.28 47.7182 8.25333 48.3982 9.48 49.1982C10.8133 50.0515 11.88 50.7982 12.68 51.4382C13.48 52.0782 14.16 52.8649 14.72 53.7982C15.28 54.7049 15.56 55.7582 15.56 56.9582C15.56 58.3449 15.1867 59.5849 14.44 60.6782C13.6933 61.7449 12.6533 62.5849 11.32 63.1982C10.0133 63.7849 8.54667 64.0782 6.92 64.0782C5.74667 64.0782 4.49333 63.9182 3.16 63.5982C1.85333 63.2515 0.973333 62.8782 0.52 62.4782C0.386667 62.3715 0.28 62.2782 0.2 62.1982C0.146667 62.0915 0.12 61.9315 0.12 61.7182L0 55.3582V55.3182C0 55.2115 0.0666666 55.1582 0.2 55.1582C0.333333 55.1315 0.413334 55.1715 0.44 55.2782C1.24 56.9049 1.93333 58.2249 2.52 59.2382C3.13333 60.2515 3.89333 61.1449 4.8 61.9182C5.73333 62.6915 6.78667 63.0782 7.96 63.0782C9.02667 63.0782 9.90667 62.7982 10.6 62.2382C11.2933 61.6515 11.64 60.6649 11.64 59.2782C11.64 58.1049 11.3733 57.0782 10.84 56.1982C10.3333 55.3182 9.70667 54.5715 8.96 53.9582C8.21333 53.3449 7.18667 52.6115 5.88 51.7582C4.6 50.9315 3.6 50.2249 2.88 49.6382C2.18667 49.0515 1.58667 48.3449 1.08 47.5182C0.573333 46.6915 0.32 45.7182 0.32 44.5982C0.32 43.1849 0.72 41.9982 1.52 41.0382C2.34667 40.0515 3.4 39.3315 4.68 38.8782C5.96 38.3982 7.30667 38.1582 8.72 38.1582C9.65333 38.1582 10.6 38.2515 11.56 38.4382C12.52 38.5982 13.2933 38.7982 13.88 39.0382C14.12 39.1449 14.28 39.2649 14.36 39.3982C14.44 39.5049 14.48 39.6515 14.48 39.8382V45.7182C14.48 45.7982 14.4133 45.8649 14.28 45.9182C14.1467 45.9449 14.0667 45.9182 14.04 45.8382L13.72 45.0782C13.0533 43.3982 12.2667 41.9715 11.36 40.7982C10.48 39.6249 9.24 39.0382 7.64 39.0382C6.57333 39.0382 5.69333 39.3449 5 39.9582C4.33333 40.5715 4 41.4649 4 42.6382Z" fill="#111111"/>
</svg>
