<svg width="423" height="423" viewBox="0 0 423 423" fill="none" xmlns="http://www.w3.org/2000/svg">
<path opacity="0.7" d="M183.158 233.627C181.828 236.127 178.846 237.006 176.495 235.595C174.148 234.182 173.32 231.011 174.648 228.512C175.977 226.016 178.957 225.136 181.308 226.548C183.658 227.96 184.485 231.129 183.158 233.627ZM170.124 215.509C168.77 218.439 165.439 219.646 162.683 218.21C159.928 216.769 158.79 213.228 160.144 210.296C161.498 207.368 164.827 206.157 167.582 207.598C170.34 209.036 171.478 212.579 170.124 215.509ZM155.679 197.964C154.341 201.335 150.69 202.921 147.516 201.503C144.345 200.082 142.855 196.198 144.19 192.825C145.525 189.454 149.179 187.869 152.351 189.287C155.521 190.708 157.012 194.592 155.679 197.964ZM139.84 181.109C138.567 184.93 134.622 186.932 131.029 185.581C127.434 184.228 125.552 180.034 126.822 176.214C128.095 172.392 132.041 170.39 135.633 171.741C139.228 173.095 141.111 177.289 139.84 181.109ZM122.637 165.061C121.47 169.33 117.271 171.792 113.253 170.556C109.233 169.316 106.92 164.851 108.082 160.578C109.247 156.304 113.448 153.846 117.467 155.083C121.484 156.32 123.8 160.785 122.637 165.061ZM104.107 149.923C103.094 154.645 98.6747 157.604 94.2328 156.529C89.7919 155.456 87.0128 150.756 88.021 146.036C89.0304 141.313 93.4522 138.353 97.8931 139.428C102.335 140.505 105.115 145.203 104.107 149.923ZM84.2887 135.816C83.4763 140.983 78.8798 144.471 74.0216 143.607C69.1602 142.742 65.8822 137.858 66.6924 132.692C67.5048 127.525 72.1035 124.039 76.9627 124.901C81.8199 125.765 85.0989 130.652 84.2887 135.816ZM154.242 249.721C153.533 251.229 151.808 251.838 150.39 251.084C148.97 250.327 148.398 248.494 149.109 246.986C149.822 245.478 151.546 244.869 152.962 245.624C154.379 246.38 154.953 248.215 154.242 249.721ZM141.778 233.093C141.005 235.001 138.919 235.884 137.121 235.06C135.325 234.239 134.493 232.022 135.27 230.111C136.043 228.199 138.127 227.319 139.924 228.142C141.722 228.964 142.551 231.182 141.778 233.093ZM127.966 217.023C127.173 219.349 124.753 220.549 122.566 219.704C120.377 218.858 119.246 216.289 120.043 213.962C120.836 211.635 123.255 210.436 125.443 211.28C127.63 212.125 128.761 214.695 127.966 217.023ZM112.829 201.623C112.054 204.373 109.335 205.935 106.747 205.115C104.161 204.293 102.69 201.399 103.462 198.649C104.236 195.9 106.957 194.338 109.543 195.159C112.131 195.979 113.601 198.875 112.829 201.623ZM96.3923 187.006C95.687 190.183 92.6928 192.153 89.705 191.4C86.7173 190.649 84.8659 187.467 85.5713 184.289C86.2798 181.112 89.275 179.145 92.2596 179.896C95.2506 180.646 97.0998 183.83 96.3923 187.006ZM78.6976 173.285C78.1013 176.887 74.871 179.294 71.4828 178.663C68.0937 178.029 65.826 174.594 66.4213 170.992C67.0175 167.387 70.249 164.978 73.636 165.611C77.0273 166.245 79.2917 169.679 78.6976 173.285ZM59.7827 160.557C59.3432 164.582 55.9169 167.467 52.1284 166.999C48.341 166.531 45.6307 162.888 46.0692 158.861C46.5087 154.836 49.936 151.951 53.7213 152.42C57.5098 152.888 60.2244 156.529 59.7827 160.557ZM137.671 283.979C137.626 284.074 137.516 284.112 137.425 284.064C137.335 284.016 137.301 283.899 137.347 283.802C137.391 283.706 137.503 283.667 137.593 283.717C137.683 283.766 137.719 283.883 137.671 283.979ZM127.191 268.304C127.002 268.767 126.496 268.973 126.064 268.768C125.632 268.567 125.435 268.033 125.626 267.573C125.818 267.11 126.321 266.904 126.754 267.109C127.186 267.308 127.381 267.845 127.191 268.304ZM115.412 253.063C115.119 253.905 114.241 254.328 113.45 254.017C112.659 253.704 112.257 252.771 112.552 251.929C112.847 251.09 113.726 250.661 114.514 250.975C115.306 251.288 115.709 252.223 115.412 253.063ZM102.351 238.361C101.991 239.595 100.762 240.287 99.6004 239.907C98.4417 239.527 97.7883 238.22 98.1463 236.985C98.5021 235.749 99.7339 235.057 100.894 235.44C102.055 235.817 102.707 237.124 102.351 238.361ZM88.0231 224.307C87.6461 225.943 86.0913 226.944 84.5503 226.543C83.0103 226.143 82.0677 224.489 82.4447 222.854C82.8228 221.215 84.3777 220.213 85.9176 220.615C87.4576 221.014 88.3991 222.667 88.0231 224.307ZM72.4583 211.004C72.1045 213.051 70.2585 214.407 68.333 214.028C66.4086 213.649 65.1345 211.687 65.4893 209.641C65.8451 207.596 67.6922 206.242 69.6156 206.618C71.5411 206.996 72.8131 208.959 72.4583 211.004ZM55.6945 198.567C55.4064 201.023 53.2998 202.765 50.9899 202.459C48.6799 202.154 47.0414 199.912 47.3285 197.459C47.6165 195.001 49.7242 193.259 52.0341 193.567C54.343 193.872 55.9815 196.108 55.6945 198.567ZM37.7741 187.091C37.5972 189.956 35.2704 192.123 32.5759 191.934C29.8815 191.746 27.8427 189.272 28.0207 186.408C28.1986 183.544 30.5223 181.374 33.2199 181.565C35.9122 181.753 37.951 184.229 37.7741 187.091ZM78.9793 261.825C78.9539 261.929 78.8564 261.992 78.7579 261.966C78.6584 261.939 78.598 261.833 78.6255 261.729C78.6489 261.624 78.7484 261.561 78.8469 261.589C78.9444 261.615 79.0047 261.721 78.9793 261.825ZM65.5623 248.991C65.4734 249.484 65.0264 249.805 64.5615 249.711C64.0986 249.617 63.7925 249.142 63.8825 248.647C63.9715 248.152 64.4206 247.83 64.8845 247.925C65.3484 248.023 65.6524 248.499 65.5623 248.991ZM50.9644 236.881C50.8553 237.771 50.0864 238.393 49.2529 238.275C48.4162 238.157 47.8262 237.34 47.9364 236.45C48.0497 235.562 48.8144 234.938 49.6554 235.057C50.491 235.174 51.0778 235.991 50.9644 236.881ZM35.2237 225.596C35.1337 226.883 34.0799 227.849 32.8693 227.751C31.6577 227.657 30.75 226.535 30.8379 225.249C30.9269 223.96 31.9828 222.993 33.1945 223.089C34.4072 223.185 35.3148 224.307 35.2237 225.596ZM18.3826 215.233C18.3572 216.92 17.0502 218.265 15.4647 218.239C13.8771 218.212 12.6136 216.821 12.639 215.136C12.6655 213.45 13.9703 212.109 15.5548 212.134C17.1424 212.161 18.4059 213.55 18.3826 215.233ZM17.404 254.153C17.4019 254.261 17.3193 254.344 17.2166 254.343C17.117 254.341 17.0365 254.252 17.0386 254.145C17.0397 254.036 17.1265 253.951 17.2261 253.954C17.3267 253.957 17.4061 254.045 17.404 254.153ZM1.71097 244.764C1.72684 245.266 1.35828 245.689 0.886993 245.703C0.411438 245.721 0.0184937 245.327 0.000488281 244.826C-0.0154114 244.324 0.355286 243.903 0.827667 243.887C1.29791 243.868 1.69507 244.262 1.71097 244.764ZM179.305 196.467C176.604 196.493 174.397 194.188 174.37 191.317C174.348 188.45 176.516 186.103 179.216 186.076C181.913 186.051 184.122 188.356 184.146 191.225C184.171 194.095 182.002 196.442 179.305 196.467ZM187.546 175.409C184.483 175.626 181.833 173.162 181.625 169.908C181.422 166.65 183.736 163.833 186.801 163.613C189.862 163.397 192.515 165.855 192.721 169.114C192.928 172.37 190.61 175.19 187.546 175.409ZM194.615 153.337C191.201 153.792 188.084 151.221 187.652 147.59C187.224 143.961 189.643 140.647 193.057 140.188C196.471 139.731 199.588 142.304 200.021 145.934C200.448 149.564 198.029 152.876 194.615 153.337ZM200.426 130.325C196.677 131.064 193.074 128.433 192.378 124.449C191.683 120.463 194.157 116.632 197.904 115.893C201.653 115.153 205.256 117.785 205.952 121.768C206.647 125.754 204.174 129.585 200.426 130.325ZM204.898 106.462C200.837 107.523 196.731 104.888 195.729 100.57C194.73 96.2494 197.208 91.8861 201.272 90.8209C205.334 89.7557 209.438 92.394 210.44 96.7122C211.441 101.032 208.961 105.396 204.898 106.462ZM207.963 81.832C203.61 83.2621 198.99 80.6711 197.645 76.0443C196.297 71.4198 198.737 66.5104 203.087 65.0782C207.438 63.647 212.059 66.239 213.404 70.8647C214.749 75.4915 212.313 80.4008 207.963 81.832ZM209.544 56.5329C204.93 58.3683 199.791 55.8798 198.065 50.9749C196.339 46.0677 198.679 40.6055 203.292 38.769C207.906 36.9336 213.045 39.4243 214.773 44.3292C216.498 49.233 214.156 54.6964 209.544 56.5329ZM151.737 177.894C150.155 177.993 148.795 176.707 148.7 175.026C148.608 173.343 149.815 171.897 151.398 171.799C152.983 171.7 154.341 172.982 154.433 174.666C154.527 176.349 153.319 177.795 151.737 177.894ZM159.05 158.102C157.11 158.345 155.346 156.866 155.12 154.798C154.889 152.733 156.278 150.86 158.224 150.619C160.167 150.374 161.927 151.854 162.155 153.92C162.385 155.986 160.993 157.859 159.05 158.102ZM165.233 137.35C162.942 137.782 160.754 136.154 160.35 133.72C159.943 131.28 161.473 128.955 163.764 128.525C166.058 128.092 168.244 129.719 168.651 132.156C169.057 134.593 167.526 136.917 165.233 137.35ZM170.209 115.714C167.582 116.376 164.95 114.653 164.325 111.86C163.7 109.068 165.322 106.266 167.95 105.603C170.574 104.94 173.21 106.665 173.834 109.456C174.457 112.248 172.835 115.05 170.209 115.714ZM173.898 93.2722C170.958 94.2102 167.858 92.439 166.974 89.3109C166.092 86.1852 167.758 82.8893 170.702 81.9491C173.643 81.0134 176.744 82.7869 177.625 85.9115C178.508 89.0407 176.838 92.3343 173.898 93.2722ZM176.228 70.1181C172.997 71.3703 169.42 69.6002 168.239 66.1647C167.061 62.7271 168.725 58.9234 171.958 57.669C175.193 56.4169 178.771 58.1859 179.948 61.6224C181.128 65.0612 179.463 68.8638 176.228 70.1181ZM177.14 46.3391C173.641 47.9471 169.577 46.2344 168.064 42.5129C166.552 38.7926 168.164 34.4744 171.663 32.8653C175.161 31.2574 179.225 32.97 180.736 36.6915C182.25 40.4118 180.638 44.7323 177.14 46.3391ZM115.546 179.763C115.445 179.771 115.359 179.687 115.352 179.58C115.347 179.471 115.427 179.383 115.526 179.376C115.627 179.37 115.715 179.452 115.718 179.562C115.726 179.667 115.647 179.759 115.546 179.763ZM123.073 162.277C122.602 162.334 122.181 161.971 122.132 161.472C122.079 160.972 122.416 160.525 122.886 160.47C123.36 160.416 123.779 160.776 123.829 161.277C123.882 161.775 123.542 162.223 123.073 162.277ZM129.599 143.812C128.767 143.963 127.983 143.366 127.841 142.481C127.7 141.597 128.259 140.76 129.092 140.611C129.924 140.463 130.713 141.058 130.851 141.941C130.992 142.827 130.431 143.664 129.599 143.812ZM135.044 124.435C133.859 124.72 132.681 123.935 132.409 122.676C132.14 121.419 132.879 120.164 134.063 119.874C135.247 119.585 136.427 120.373 136.696 121.633C136.971 122.89 136.23 124.144 135.044 124.435ZM139.329 104.216C137.807 104.685 136.214 103.755 135.771 102.136C135.327 100.517 136.203 98.8235 137.724 98.3539C139.248 97.8821 140.842 98.8122 141.283 100.43C141.727 102.048 140.853 103.743 139.329 104.216ZM142.382 83.2339C140.539 83.932 138.511 82.9085 137.856 80.9481C137.202 78.9855 138.165 76.8314 140.008 76.1367C141.853 75.4397 143.878 76.4643 144.533 78.4236C145.19 80.384 144.224 82.538 142.382 83.2339ZM144.131 61.5807C141.988 62.5435 139.515 61.4749 138.609 59.1948C137.705 56.9146 138.709 54.2853 140.851 53.3237C142.997 52.361 145.469 53.4296 146.376 55.7086C147.28 57.9888 146.278 60.6158 144.131 61.5807ZM144.52 39.3432C142.099 40.6122 139.169 39.5538 137.976 36.9797C136.782 34.4034 137.779 31.2878 140.2 30.021C142.62 28.7531 145.549 29.8082 146.744 32.3867C147.937 34.9597 146.941 38.0753 144.52 39.3432ZM104.245 114.648C104.147 114.677 104.047 114.619 104.02 114.516C103.992 114.411 104.047 114.303 104.146 114.273C104.244 114.243 104.345 114.305 104.372 114.409C104.399 114.511 104.343 114.619 104.245 114.648ZM107.992 95.8778C107.545 96.0434 107.059 95.7922 106.904 95.3159C106.75 94.843 106.984 94.3251 107.432 94.1595C107.879 93.994 108.365 94.2462 108.52 94.7214C108.673 95.1966 108.437 95.7157 107.992 95.8778ZM110.557 76.3832C109.779 76.7267 108.886 76.3303 108.566 75.5027C108.244 74.674 108.614 73.7225 109.395 73.3802C110.174 73.039 111.065 73.4331 111.388 74.2652C111.71 75.0929 111.339 76.0421 110.557 76.3832ZM111.879 56.248C110.786 56.8087 109.471 56.3212 108.946 55.1569C108.418 53.9937 108.876 52.5986 109.97 52.0356C111.062 51.4737 112.38 51.9624 112.908 53.1255C113.434 54.2899 112.975 55.6861 111.879 56.248ZM111.9 35.5598C110.514 36.3796 108.765 35.8503 107.993 34.3764C107.222 32.9025 107.722 31.0423 109.108 30.2237C110.495 29.4051 112.239 29.9354 113.012 31.4071C113.782 32.8811 113.284 34.7401 111.9 35.5598ZM79.708 54.1198C79.619 54.1705 79.5099 54.1356 79.4591 54.041C79.4103 53.9476 79.4421 53.8293 79.5301 53.7775C79.6211 53.7257 79.7334 53.7607 79.7811 53.8564C79.8287 53.9509 79.7969 54.0669 79.708 54.1198ZM79.5089 34.9755C79.1085 35.2423 78.58 35.1128 78.3322 34.6861C78.079 34.2582 78.2051 33.6997 78.6033 33.4317C79.0047 33.166 79.5311 33.2966 79.7821 33.7233C80.0321 34.1478 79.9103 34.7097 79.5089 34.9755ZM207.647 174.341C206.276 171.866 207.05 168.681 209.375 167.223C211.699 165.768 214.696 166.591 216.068 169.063C217.437 171.535 216.663 174.72 214.338 176.177C212.014 177.635 209.017 176.812 207.647 174.341ZM228.924 171.4C227.213 168.688 227.894 165.016 230.442 163.197C232.995 161.381 236.447 162.105 238.158 164.815C239.867 167.526 239.19 171.198 236.637 173.015C234.088 174.833 230.633 174.111 228.924 171.4ZM250.438 166.873C248.36 163.955 248.894 159.8 251.637 157.588C254.379 155.379 258.287 155.949 260.368 158.863C262.448 161.779 261.91 165.935 259.168 168.146C256.427 170.355 252.519 169.786 250.438 166.873ZM272.087 160.717C269.61 157.634 269.95 153 272.849 150.368C275.749 147.734 280.105 148.098 282.582 151.178C285.058 154.259 284.716 158.894 281.82 161.526C278.921 164.159 274.562 163.796 272.087 160.717ZM293.761 152.901C290.866 149.693 290.96 144.596 293.977 141.514C296.996 138.433 301.79 138.534 304.688 141.742C307.588 144.95 307.49 150.048 304.474 153.129C301.457 156.21 296.661 156.11 293.761 152.901ZM315.357 143.408C312.015 140.115 311.816 134.567 314.913 131.015C318.007 127.463 323.225 127.253 326.567 130.543C329.907 133.833 330.107 139.383 327.011 142.935C323.915 146.487 318.697 146.699 315.357 143.408ZM336.756 132.216C332.954 128.884 332.412 122.909 335.545 118.868C338.677 114.824 344.297 114.249 348.099 117.577C351.902 120.909 352.443 126.885 349.312 130.928C346.178 134.968 340.557 135.544 336.756 132.216ZM208.994 139.672C208.12 138.263 208.489 136.37 209.811 135.441C211.137 134.515 212.917 134.903 213.79 136.312C214.661 137.721 214.296 139.614 212.972 140.54C211.647 141.468 209.866 141.078 208.994 139.672ZM228.773 136.509C227.604 134.843 227.928 132.482 229.498 131.238C231.064 129.995 233.286 130.337 234.455 132.007C235.626 133.673 235.302 136.034 233.731 137.278C232.162 138.522 229.941 138.176 228.773 136.509ZM248.768 131.827C247.271 129.933 247.503 127.104 249.283 125.514C251.068 123.921 253.725 124.167 255.223 126.062C256.722 127.957 256.491 130.783 254.708 132.376C252.925 133.967 250.268 133.723 248.768 131.827ZM268.88 125.589C267.029 123.502 267.116 120.216 269.077 118.245C271.04 116.274 274.132 116.367 275.988 118.454C277.839 120.54 277.752 123.828 275.79 125.798C273.828 127.769 270.735 127.674 268.88 125.589ZM289.006 117.765C286.771 115.526 286.664 111.786 288.772 109.41C290.875 107.035 294.393 106.922 296.631 109.161C298.864 111.4 298.969 115.142 296.864 117.516C294.758 119.893 291.239 120.004 289.006 117.765ZM309.03 108.334C306.395 105.984 306.049 101.805 308.257 99.0002C310.468 96.1976 314.399 95.8283 317.037 98.1771C319.675 100.529 320.022 104.708 317.812 107.511C315.6 110.315 311.671 110.685 309.03 108.334ZM328.857 97.282C325.797 94.8644 325.161 90.268 327.436 87.0139C329.71 83.7609 334.033 83.0864 337.094 85.5039C340.154 87.9214 340.79 92.519 338.514 95.7697C336.24 99.0239 331.916 99.7017 328.857 97.282ZM189.375 107.284C189.32 107.195 189.343 107.074 189.429 107.014C189.514 106.957 189.626 106.985 189.68 107.074C189.736 107.164 189.713 107.285 189.627 107.342C189.543 107.403 189.43 107.377 189.375 107.284ZM207.381 105.473C207.1 105.067 207.186 104.499 207.569 104.202C207.949 103.905 208.48 103.991 208.761 104.397C209.042 104.805 208.958 105.371 208.575 105.668C208.197 105.966 207.661 105.878 207.381 105.473ZM225.687 102.248C225.148 101.556 225.243 100.536 225.891 99.9641C226.543 99.3921 227.503 99.4889 228.041 100.181C228.577 100.873 228.487 101.896 227.838 102.465C227.186 103.039 226.224 102.941 225.687 102.248ZM244.195 97.5736C243.369 96.6255 243.42 95.147 244.311 94.2676C245.199 93.3916 246.591 93.4434 247.418 94.3892C248.245 95.334 248.193 96.8147 247.302 97.693C246.415 98.5735 245.024 98.5194 244.195 97.5736ZM262.807 91.4087C261.662 90.2422 261.625 88.311 262.721 87.0916C263.818 85.8732 265.635 85.8327 266.779 86.9992C267.925 88.1669 267.964 90.0992 266.867 91.3152C265.772 92.5336 263.953 92.5753 262.807 91.4087ZM281.425 83.7293C279.934 82.3792 279.753 80.0011 281.024 78.4191C282.295 76.8359 284.532 76.6445 286.019 77.9935C287.51 79.3447 287.688 81.7205 286.419 83.3048C285.149 84.888 282.912 85.0771 281.425 83.7293ZM299.938 74.513C298.081 73.021 297.715 70.2082 299.12 68.2354C300.524 66.2616 303.168 65.872 305.024 67.364C306.881 68.8593 307.246 71.6698 305.842 73.6425C304.438 75.6164 301.797 76.0072 299.938 74.513ZM318.246 63.7517C316.002 62.1562 315.399 58.9301 316.9 56.5453C318.4 54.157 321.436 53.5163 323.679 55.113C325.923 56.7085 326.528 59.9334 325.025 62.3206C323.526 64.7066 320.489 65.3461 318.246 63.7517ZM236.766 64.3226C236.695 64.246 236.692 64.1255 236.762 64.0479C236.833 63.9702 236.95 63.9668 237.022 64.0445C237.096 64.1199 237.096 64.2426 237.025 64.3192C236.956 64.3947 236.84 64.398 236.766 64.3226ZM253.93 58.3863C253.572 58.0575 253.533 57.4854 253.843 57.1049C254.152 56.7254 254.69 56.6826 255.05 57.0125C255.408 57.3413 255.446 57.9156 255.137 58.2951C254.826 58.6745 254.284 58.7151 253.93 58.3863ZM271.093 51.0019C270.423 50.4558 270.3 49.4367 270.814 48.7274C271.328 48.0157 272.288 47.8817 272.958 48.429C273.624 48.9762 273.75 49.9941 273.233 50.7069C272.721 51.4174 271.762 51.5503 271.093 51.0019ZM288.155 42.1504C287.152 41.4252 286.892 39.9715 287.577 38.9041C288.261 37.8366 289.627 37.5619 290.631 38.2859C291.636 39.0122 291.897 40.4692 291.212 41.5367C290.529 42.603 289.161 42.8789 288.155 42.1504ZM305.017 31.826C303.656 30.9601 303.215 29.0842 304.028 27.6373C304.844 26.1903 306.608 25.7208 307.968 26.5878C309.329 27.4537 309.77 29.3263 308.956 30.7732C308.141 32.2201 306.378 32.6897 305.017 31.826ZM273.804 11.4667C273.717 11.4104 273.691 11.2921 273.744 11.1975C273.794 11.1075 273.907 11.0771 273.994 11.1323C274.081 11.1886 274.108 11.3102 274.054 11.4014C274.002 11.4926 273.89 11.523 273.804 11.4667ZM289.298 1.71094C288.881 1.47562 288.722 0.924988 288.945 0.482483C289.168 0.0365601 289.686 -0.127808 290.103 0.106384C290.519 0.341736 290.677 0.892303 290.454 1.33707C290.234 1.77847 289.715 1.94742 289.298 1.71094ZM239.843 189.372C241.173 186.874 244.154 185.992 246.505 187.404C248.852 188.817 249.681 191.989 248.352 194.486C247.024 196.984 244.043 197.865 241.693 196.453C239.342 195.04 238.515 191.87 239.843 189.372ZM252.877 207.491C254.23 204.561 257.563 203.352 260.317 204.79C263.074 206.231 264.212 209.77 262.858 212.702C261.503 215.629 258.173 216.843 255.418 215.4C252.661 213.964 251.523 210.421 252.877 207.491ZM267.322 225.034C268.658 221.665 272.311 220.079 275.485 221.497C278.655 222.918 280.144 226.801 278.81 230.174C277.475 233.547 273.822 235.13 270.65 233.712C267.479 232.291 265.988 228.409 267.322 225.034ZM283.16 241.892C284.433 238.069 288.376 236.067 291.972 237.418C295.567 238.772 297.449 242.966 296.178 246.785C294.906 250.606 290.961 252.609 287.367 251.257C283.772 249.903 281.89 245.711 283.16 241.892ZM300.364 257.94C301.53 253.669 305.729 251.207 309.749 252.445C313.768 253.683 316.081 258.148 314.918 262.421C313.753 266.694 309.553 269.153 305.535 267.917C301.516 266.679 299.2 262.213 300.364 257.94ZM318.894 273.076C319.906 268.355 324.326 265.396 328.767 266.471C333.208 267.544 335.988 272.242 334.979 276.965C333.97 281.685 329.549 284.645 325.108 283.571C320.667 282.496 317.885 277.797 318.894 273.076ZM338.711 287.182C339.524 282.016 344.12 278.53 348.979 279.392C353.839 280.257 357.118 285.142 356.308 290.308C355.495 295.475 350.898 298.96 346.038 298.1C341.18 297.234 337.901 292.347 338.711 287.182ZM268.757 173.277C269.467 171.772 271.192 171.162 272.611 171.915C274.03 172.672 274.603 174.507 273.892 176.014C273.179 177.522 271.455 178.132 270.039 177.374C268.621 176.618 268.047 174.784 268.757 173.277ZM281.224 189.907C281.994 187.998 284.081 187.116 285.878 187.939C287.676 188.76 288.508 190.976 287.73 192.889C286.958 194.798 284.873 195.68 283.076 194.858C281.277 194.036 280.449 191.818 281.224 189.907ZM295.035 205.978C295.828 203.651 298.249 202.45 300.435 203.294C302.625 204.14 303.753 206.711 302.957 209.036C302.164 211.363 299.746 212.565 297.557 211.72C295.369 210.875 294.24 208.304 295.035 205.978ZM310.172 221.375C310.945 218.626 313.665 217.064 316.253 217.884C318.839 218.707 320.31 221.6 319.537 224.351C318.765 227.1 316.043 228.662 313.457 227.843C310.87 227.021 309.4 224.123 310.172 221.375ZM326.608 235.991C327.314 232.816 330.307 230.847 333.296 231.599C336.284 232.349 338.134 235.532 337.429 238.712C336.721 241.886 333.727 243.854 330.74 243.104C327.749 242.352 325.901 239.168 326.608 235.991ZM344.303 249.715C344.9 246.113 348.129 243.705 351.518 244.335C354.907 244.969 357.174 248.405 356.58 252.009C355.982 255.612 352.752 258.022 349.364 257.387C345.974 256.754 343.708 253.32 344.303 249.715ZM363.218 262.444C363.658 258.418 367.084 255.533 370.873 256.001C374.659 256.467 377.37 260.112 376.932 264.139C376.491 268.165 373.065 271.049 369.279 270.578C365.491 270.112 362.777 266.469 363.218 262.444ZM285.329 139.021C285.374 138.925 285.485 138.888 285.577 138.935C285.665 138.985 285.7 139.102 285.655 139.196C285.609 139.293 285.499 139.332 285.408 139.282C285.318 139.235 285.282 139.118 285.329 139.021ZM295.809 154.695C295.999 154.232 296.504 154.026 296.937 154.23C297.369 154.434 297.565 154.966 297.375 155.427C297.182 155.889 296.68 156.094 296.247 155.891C295.814 155.691 295.62 155.153 295.809 154.695ZM307.588 169.936C307.882 169.094 308.76 168.67 309.552 168.983C310.343 169.296 310.744 170.229 310.449 171.071C310.154 171.91 309.275 172.338 308.486 172.025C307.694 171.711 307.291 170.776 307.588 169.936ZM320.65 184.639C321.009 183.405 322.239 182.712 323.401 183.092C324.559 183.473 325.213 184.779 324.855 186.014C324.499 187.249 323.267 187.941 322.106 187.561C320.945 187.182 320.293 185.875 320.65 184.639ZM334.977 198.694C335.355 197.056 336.911 196.055 338.451 196.456C339.991 196.856 340.933 198.51 340.555 200.145C340.177 201.786 338.622 202.787 337.083 202.385C335.545 201.985 334.601 200.332 334.977 198.694ZM350.543 211.995C350.895 209.947 352.744 208.592 354.667 208.972C356.592 209.35 357.867 211.313 357.511 213.358C357.156 215.405 355.309 216.757 353.384 216.381C351.46 216.004 350.188 214.039 350.543 211.995ZM367.306 224.433C367.594 221.977 369.7 220.233 372.01 220.541C374.32 220.847 375.96 223.086 375.672 225.541C375.383 227.999 373.277 229.74 370.967 229.434C368.658 229.127 367.018 226.89 367.306 224.433ZM385.226 235.908C385.404 233.045 387.731 230.876 390.424 231.064C393.12 231.253 395.158 233.729 394.98 236.592C394.802 239.455 392.478 241.624 389.781 241.436C387.089 241.245 385.049 238.772 385.226 235.908ZM344.023 161.174C344.048 161.069 344.145 161.007 344.243 161.033C344.342 161.06 344.402 161.166 344.375 161.271C344.352 161.377 344.251 161.437 344.154 161.409C344.057 161.384 343.996 161.279 344.023 161.174ZM357.439 174.007C357.527 173.514 357.975 173.192 358.44 173.287C358.902 173.382 359.206 173.857 359.117 174.354C359.03 174.847 358.58 175.169 358.117 175.073C357.652 174.978 357.348 174.499 357.439 174.007ZM372.036 186.119C372.145 185.23 372.915 184.605 373.748 184.724C374.585 184.844 375.175 185.659 375.064 186.548C374.951 187.438 374.186 188.06 373.346 187.941C372.509 187.825 371.923 187.009 372.036 186.119ZM387.777 197.403C387.866 196.116 388.92 195.149 390.132 195.248C391.343 195.344 392.251 196.463 392.163 197.75C392.073 199.038 391.018 200.007 389.806 199.912C388.594 199.813 387.686 198.692 387.777 197.403ZM404.617 207.766C404.643 206.08 405.95 204.735 407.535 204.761C409.122 204.788 410.387 206.178 410.361 207.865C410.336 209.548 409.03 210.89 407.445 210.866C405.859 210.838 404.594 209.45 404.617 207.766ZM405.596 168.848C405.598 168.74 405.681 168.655 405.785 168.656C405.884 168.66 405.965 168.746 405.964 168.854C405.961 168.964 405.875 169.049 405.774 169.046C405.673 169.042 405.594 168.956 405.596 168.848ZM421.29 178.235C421.272 177.733 421.642 177.312 422.114 177.295C422.589 177.278 422.982 177.672 423 178.174C423.015 178.675 422.646 179.095 422.172 179.112C421.703 179.131 421.305 178.737 421.29 178.235ZM243.695 226.532C246.397 226.506 248.604 228.812 248.631 231.681C248.653 234.549 246.485 236.898 243.784 236.924C241.087 236.947 238.878 234.644 238.854 231.775C238.83 228.904 240.998 226.558 243.695 226.532ZM235.454 247.59C238.518 247.372 241.168 249.836 241.376 253.091C241.58 256.349 239.263 259.166 236.199 259.387C233.137 259.603 230.486 257.143 230.28 253.886C230.074 250.628 232.39 247.809 235.454 247.59ZM228.385 269.665C231.799 269.209 234.916 271.778 235.349 275.41C235.776 279.039 233.358 282.353 229.944 282.81C226.529 283.268 223.412 280.694 222.98 277.065C222.553 273.436 224.971 270.122 228.385 269.665ZM222.574 292.675C226.325 291.935 229.927 294.565 230.624 298.55C231.317 302.536 228.844 306.367 225.096 307.108C221.348 307.846 217.745 305.214 217.048 301.231C216.353 297.245 218.827 293.413 222.574 292.675ZM218.103 316.538C222.164 315.476 226.269 318.112 227.271 322.431C228.271 326.75 225.793 331.113 221.729 332.177C217.666 333.244 213.562 330.605 212.561 326.287C211.559 321.968 214.04 317.603 218.103 316.538ZM215.037 341.167C219.392 339.737 224.01 342.327 225.355 346.955C226.703 351.581 224.263 356.49 219.913 357.921C215.563 359.351 210.942 356.761 209.597 352.136C208.251 347.508 210.688 342.598 215.037 341.167ZM213.456 366.465C218.071 364.631 223.209 367.12 224.935 372.024C226.661 376.932 224.322 382.394 219.708 384.231C215.094 386.066 209.955 383.575 208.228 378.67C206.503 373.765 208.845 368.303 213.456 366.465ZM271.264 245.108C272.847 245.006 274.205 246.291 274.301 247.973C274.393 249.657 273.187 251.102 271.603 251.2C270.018 251.299 268.66 250.017 268.568 248.334C268.474 246.651 269.682 245.204 271.264 245.108ZM263.951 264.898C265.892 264.654 267.653 266.134 267.881 268.2C268.111 270.266 266.723 272.14 264.776 272.381C262.834 272.625 261.073 271.145 260.845 269.078C260.616 267.012 262.007 265.14 263.951 264.898ZM257.767 285.65C260.058 285.218 262.247 286.845 262.65 289.28C263.056 291.72 261.528 294.044 259.236 294.475C256.942 294.909 254.756 293.28 254.349 290.843C253.943 288.406 255.473 286.082 257.767 285.65ZM252.792 307.286C255.418 306.625 258.051 308.346 258.677 311.139C259.299 313.931 257.678 316.732 255.051 317.397C252.425 318.059 249.792 316.335 249.166 313.543C248.543 310.752 250.166 307.95 252.792 307.286ZM249.102 329.726C252.043 328.79 255.143 330.56 256.026 333.688C256.909 336.814 255.241 340.11 252.298 341.05C249.358 341.986 246.257 340.212 245.376 337.089C244.493 333.96 246.161 330.664 249.102 329.726ZM246.773 352.881C250.004 351.629 253.581 353.399 254.762 356.835C255.94 360.271 254.275 364.075 251.042 365.33C247.808 366.584 244.23 364.813 243.053 361.378C241.874 357.938 243.538 354.136 246.773 352.881ZM245.861 376.659C249.36 375.053 253.424 376.765 254.937 380.486C256.449 384.206 254.836 388.524 251.337 390.134C247.837 391.743 243.776 390.029 242.264 386.308C240.751 382.586 242.362 378.266 245.861 376.659ZM307.454 243.237C307.555 243.228 307.642 243.313 307.648 243.42C307.653 243.527 307.574 243.617 307.475 243.622C307.373 243.629 307.286 243.548 307.282 243.44C307.275 243.332 307.352 243.241 307.454 243.237ZM299.927 260.721C300.399 260.665 300.819 261.027 300.869 261.527C300.922 262.027 300.585 262.475 300.114 262.529C299.641 262.583 299.222 262.224 299.171 261.723C299.118 261.224 299.458 260.776 299.927 260.721ZM293.402 279.187C294.233 279.036 295.018 279.633 295.16 280.518C295.301 281.402 294.741 282.24 293.907 282.387C293.077 282.537 292.288 281.942 292.149 281.059C292.008 280.173 292.568 279.335 293.402 279.187ZM287.956 298.565C289.14 298.278 290.319 299.064 290.591 300.324C290.86 301.581 290.122 302.837 288.937 303.124C287.754 303.415 286.574 302.625 286.305 301.367C286.031 300.109 286.77 298.854 287.956 298.565ZM283.672 318.783C285.194 318.313 286.786 319.245 287.229 320.863C287.674 322.482 286.798 324.175 285.276 324.645C283.752 325.118 282.158 324.186 281.718 322.568C281.273 320.95 282.149 319.257 283.672 318.783ZM280.618 339.765C282.461 339.067 284.491 340.091 285.144 342.052C285.798 344.013 284.836 346.167 282.992 346.864C281.148 347.56 279.123 346.535 278.466 344.577C277.811 342.615 278.777 340.461 280.618 339.765ZM278.869 361.419C281.012 360.455 283.486 361.524 284.391 363.803C285.297 366.084 284.291 368.713 282.149 369.676C280.003 370.638 277.531 369.569 276.626 367.291C275.719 365.011 276.722 362.382 278.869 361.419ZM278.481 383.656C280.903 382.388 283.832 383.446 285.024 386.021C286.219 388.596 285.222 391.71 282.801 392.978C280.38 394.245 277.449 393.191 276.256 390.614C275.063 388.041 276.06 384.924 278.481 383.656ZM318.755 308.351C318.854 308.323 318.953 308.381 318.981 308.485C319.008 308.587 318.953 308.697 318.854 308.726C318.756 308.755 318.655 308.694 318.629 308.591C318.602 308.488 318.658 308.38 318.755 308.351ZM315.009 327.12C315.456 326.955 315.941 327.208 316.096 327.682C316.252 328.156 316.017 328.674 315.568 328.84C315.123 329.005 314.634 328.752 314.48 328.278C314.326 327.803 314.564 327.282 315.009 327.12ZM312.443 346.616C313.221 346.273 314.114 346.669 314.435 347.497C314.757 348.326 314.387 349.278 313.607 349.619C312.826 349.96 311.936 349.566 311.613 348.734C311.291 347.906 311.661 346.958 312.443 346.616ZM311.122 366.752C312.214 366.191 313.529 366.678 314.055 367.842C314.582 369.006 314.125 370.401 313.032 370.963C311.938 371.526 310.621 371.038 310.093 369.875C309.566 368.711 310.025 367.313 311.122 366.752ZM311.101 387.438C312.487 386.621 314.236 387.15 315.007 388.624C315.779 390.097 315.279 391.957 313.893 392.776C312.508 393.595 310.761 393.064 309.989 391.593C309.218 390.117 309.717 388.26 311.101 387.438ZM343.293 368.881C343.382 368.829 343.492 368.863 343.542 368.958C343.589 369.051 343.558 369.17 343.47 369.223C343.38 369.274 343.268 369.238 343.219 369.144C343.172 369.048 343.204 368.931 343.293 368.881ZM343.491 388.024C343.893 387.757 344.42 387.885 344.669 388.313C344.92 388.742 344.797 389.3 344.397 389.568C343.996 389.833 343.469 389.703 343.218 389.275C342.968 388.851 343.09 388.29 343.491 388.024ZM215.353 248.659C216.725 251.134 215.95 254.318 213.626 255.778C211.301 257.231 208.303 256.41 206.932 253.938C205.564 251.464 206.337 248.278 208.662 246.821C210.987 245.364 213.984 246.187 215.353 248.659ZM194.078 251.601C195.787 254.312 195.106 257.983 192.557 259.802C190.006 261.619 186.553 260.895 184.842 258.184C183.133 255.473 183.81 251.801 186.365 249.984C188.913 248.165 192.368 248.888 194.078 251.601ZM172.562 256.128C174.64 259.042 174.107 263.199 171.363 265.412C168.622 267.621 164.714 267.051 162.633 264.136C160.553 261.221 161.09 257.065 163.832 254.852C166.574 252.644 170.482 253.214 172.562 256.128ZM150.914 262.284C153.391 265.367 153.049 269.997 150.152 272.632C147.251 275.264 142.895 274.902 140.419 271.821C137.942 268.738 138.283 264.106 141.181 261.473C144.079 258.84 148.437 259.203 150.914 262.284ZM129.24 270.097C132.135 273.307 132.041 278.405 129.024 281.487C126.005 284.566 121.211 284.465 118.312 281.257C115.412 278.048 115.51 272.952 118.527 269.871C121.543 266.789 126.339 266.89 129.24 270.097ZM107.643 279.592C110.985 282.884 111.184 288.433 108.088 291.983C104.993 295.536 99.7762 295.746 96.4337 292.456C93.0932 289.165 92.8941 283.616 95.9888 280.064C99.0847 276.513 104.303 276.3 107.643 279.592ZM86.2449 290.783C90.0461 294.115 90.5884 300.091 87.4565 304.133C84.3236 308.175 78.7039 308.751 74.9006 305.421C71.0984 302.091 70.5582 296.115 73.689 292.072C76.8219 288.03 82.4426 287.454 86.2449 290.783ZM214.007 283.328C214.879 284.735 214.512 286.628 213.189 287.557C211.863 288.485 210.084 288.096 209.211 286.688C208.339 285.278 208.704 283.385 210.029 282.458C211.354 281.533 213.135 281.921 214.007 283.328ZM194.228 286.492C195.396 288.155 195.073 290.518 193.503 291.761C191.936 293.005 189.715 292.662 188.546 290.992C187.376 289.325 187.699 286.965 189.269 285.722C190.839 284.476 193.059 284.823 194.228 286.492ZM174.232 291.173C175.73 293.065 175.498 295.895 173.716 297.485C171.933 299.079 169.275 298.833 167.777 296.938C166.28 295.045 166.511 292.217 168.293 290.623C170.076 289.031 172.733 289.277 174.232 291.173ZM154.12 297.411C155.972 299.497 155.885 302.784 153.923 304.756C151.96 306.725 148.868 306.634 147.013 304.546C145.161 302.46 145.249 299.173 147.21 297.201C149.173 295.232 152.266 295.324 154.12 297.411ZM133.994 305.233C136.23 307.474 136.337 311.213 134.231 313.588C132.125 315.965 128.606 316.078 126.37 313.838C124.138 311.599 124.031 307.858 126.136 305.484C128.243 303.106 131.761 302.995 133.994 305.233ZM113.97 314.666C116.605 317.016 116.951 321.193 114.744 323.999C112.533 326.802 108.602 327.171 105.963 324.822C103.324 322.47 102.978 318.292 105.188 315.49C107.4 312.685 111.33 312.316 113.97 314.666ZM94.1438 325.717C97.2026 328.134 97.8402 332.731 95.5641 335.985C93.2923 339.24 88.9668 339.912 85.906 337.497C82.8462 335.077 82.2107 330.48 84.4857 327.23C86.7617 323.974 91.0851 323.296 94.1438 325.717ZM233.625 315.714C233.681 315.804 233.657 315.927 233.572 315.985C233.487 316.042 233.376 316.016 233.321 315.926C233.264 315.836 233.288 315.715 233.374 315.656C233.458 315.598 233.571 315.623 233.625 315.714ZM215.619 317.527C215.9 317.932 215.815 318.501 215.433 318.796C215.051 319.095 214.52 319.009 214.239 318.603C213.958 318.193 214.042 317.628 214.425 317.331C214.804 317.034 215.339 317.123 215.619 317.527ZM197.313 320.752C197.852 321.442 197.758 322.462 197.109 323.036C196.458 323.607 195.497 323.51 194.96 322.819C194.423 322.128 194.513 321.102 195.163 320.533C195.814 319.961 196.776 320.058 197.313 320.752ZM178.807 325.427C179.632 326.373 179.58 327.852 178.689 328.732C177.802 329.608 176.409 329.556 175.582 328.609C174.755 327.664 174.806 326.184 175.698 325.306C176.586 324.426 177.978 324.479 178.807 325.427ZM160.195 331.592C161.339 332.757 161.377 334.689 160.279 335.908C159.184 337.125 157.366 337.165 156.222 336C155.076 334.832 155.035 332.9 156.134 331.683C157.229 330.466 159.048 330.425 160.195 331.592ZM141.576 339.271C143.067 340.619 143.247 342.998 141.976 344.58C140.705 346.163 138.47 346.355 136.981 345.005C135.491 343.656 135.313 341.278 136.582 339.694C137.851 338.11 140.088 337.922 141.576 339.271ZM123.063 348.486C124.92 349.979 125.285 352.791 123.881 354.764C122.476 356.738 119.831 357.126 117.977 355.635C116.119 354.141 115.754 351.33 117.159 349.357C118.562 347.382 121.203 346.991 123.063 348.486ZM104.754 359.248C106.998 360.843 107.601 364.069 106.101 366.455C104.599 368.843 101.564 369.482 99.3219 367.887C97.0776 366.291 96.4729 363.066 97.9747 360.679C99.4755 358.294 102.511 357.653 104.754 359.248ZM186.235 358.677C186.306 358.754 186.31 358.874 186.239 358.951C186.167 359.029 186.051 359.031 185.977 358.954C185.904 358.879 185.905 358.757 185.975 358.68C186.046 358.604 186.162 358.601 186.235 358.677ZM169.072 364.612C169.428 364.942 169.467 365.515 169.157 365.894C168.849 366.274 168.31 366.318 167.951 365.987C167.593 365.659 167.556 365.084 167.864 364.704C168.177 364.325 168.716 364.284 169.072 364.612ZM151.907 371.996C152.577 372.542 152.701 373.564 152.187 374.273C151.673 374.982 150.711 375.118 150.044 374.57C149.376 374.022 149.251 373.005 149.767 372.292C150.281 371.581 151.24 371.448 151.907 371.996ZM134.845 380.849C135.848 381.574 136.109 383.028 135.423 384.095C134.74 385.163 133.373 385.437 132.369 384.713C131.364 383.987 131.105 382.53 131.787 381.463C132.472 380.395 133.841 380.119 134.845 380.849ZM117.984 391.173C119.344 392.039 119.786 393.914 118.972 395.361C118.155 396.81 116.392 397.28 115.031 396.411C113.671 395.547 113.231 393.673 114.044 392.226C114.859 390.778 116.623 390.309 117.984 391.173ZM149.197 411.534C149.284 411.59 149.309 411.707 149.257 411.802C149.206 411.892 149.093 411.921 149.006 411.867C148.919 411.811 148.892 411.688 148.945 411.597C148.998 411.506 149.11 411.476 149.197 411.534ZM132.546 421.663C132.322 422.106 132.481 422.658 132.897 422.894C133.316 423.128 133.832 422.962 134.055 422.518C134.279 422.074 134.12 421.524 133.702 421.287C133.285 421.052 132.765 421.22 132.546 421.663Z" fill="url(#paint0_linear_21_689)"/>
<defs>
<linearGradient id="paint0_linear_21_689" x1="423" y1="211.499" x2="8.84262e-05" y2="211.499" gradientUnits="userSpaceOnUse">
<stop stop-color="#FF5F00"/>
<stop offset="0.297753" stop-color="#FF5F00"/>
<stop offset="0.646067" stop-color="#111111"/>
<stop offset="0.955056" stop-color="#222222"/>
<stop offset="1" stop-color="#333333"/>
</linearGradient>
</defs>
</svg>
