<svg width="50" height="50" viewBox="0 0 50 50" fill="none" xmlns="http://www.w3.org/2000/svg">
<path d="M0 11.4256C0 5.11551 5.11551 0 11.4256 0H38.5741C44.8845 0 50 5.11551 50 11.4256V38.5741C50 44.8845 44.8845 50 38.5741 50H11.4256C5.11551 50 0 44.8845 0 38.5741V11.4256Z" fill="black"/>
<path d="M13.2812 36.7188C13.2812 33.4827 15.9046 30.8594 19.1407 30.8594H24.9998V36.7188C24.9998 39.9548 22.3767 42.5782 19.1407 42.5782C15.9046 42.5782 13.2812 39.9548 13.2812 36.7188Z" fill="#24CB71"/>
<path d="M25 7.42188V19.1404H30.8594C34.0955 19.1404 36.7188 16.5173 36.7188 13.2813C36.7188 10.0452 34.0955 7.42188 30.8594 7.42188H25Z" fill="#FF7237"/>
<path d="M30.8105 30.8593C34.0466 30.8593 36.6699 28.236 36.6699 25C36.6699 21.7639 34.0466 19.1406 30.8105 19.1406C27.5745 19.1406 24.9512 21.7639 24.9512 25C24.9512 28.236 27.5745 30.8593 30.8105 30.8593Z" fill="#00B6FF"/>
<path d="M13.2812 13.2813C13.2812 16.5173 15.9046 19.1407 19.1407 19.1407H24.9998V7.42188H19.1407C15.9046 7.42188 13.2812 10.0452 13.2812 13.2813Z" fill="#FF3737"/>
<path d="M13.2812 24.9998C13.2812 28.2358 15.9046 30.8592 19.1407 30.8592H24.9998V19.1406H19.1407C15.9046 19.1406 13.2812 21.7637 13.2812 24.9998Z" fill="#874FFF"/>
</svg>
