<svg width="50" height="48" viewBox="0 0 50 48" fill="none" xmlns="http://www.w3.org/2000/svg">
<path fill-rule="evenodd" clip-rule="evenodd" d="M25 0C38.8125 0 50 10.9917 50 24.5625C49.9979 35.1187 43.1458 44.4937 32.9688 47.8687C31.7188 48.1146 31.25 47.3479 31.25 46.7021C31.25 45.8729 31.2813 43.2333 31.2813 39.9479C31.2813 37.6458 30.5 36.1708 29.5938 35.4042C35.1563 34.7896 41 32.7021 41 23.275C41 20.5729 40.0313 18.3917 38.4375 16.6729C38.6875 16.0583 39.5625 13.5417 38.1875 10.1625C38.1875 10.1625 36.0938 9.4875 31.3125 12.6812C29.2757 12.1264 27.1736 11.8475 25.0625 11.8521C22.9375 11.8521 20.8125 12.1292 18.8125 12.6812C14.0313 9.51875 11.9375 10.1625 11.9375 10.1625C10.5625 13.5417 11.4375 16.0583 11.6875 16.6729C10.0938 18.3917 9.125 20.6042 9.125 23.275C9.125 32.6708 14.9375 34.7896 20.5 35.4042C19.7813 36.0167 19.125 37.0917 18.9063 38.6896C17.4688 39.3354 13.875 40.3771 11.625 36.6625C11.1563 35.925 9.75 34.1146 7.78125 34.1437C5.6875 34.175 6.9375 35.3104 7.8125 35.7708C8.875 36.3542 10.0938 38.5354 10.375 39.2417C10.875 40.6229 12.5 43.2625 18.7813 42.1271C18.7813 44.1854 18.8125 46.1187 18.8125 46.7021C18.8125 47.3479 18.3438 48.0854 17.0938 47.8687C6.88125 44.5292 -0.00624575 35.1396 4.25011e-06 24.5646C4.25011e-06 10.9917 11.1875 0 25 0Z" fill="white"/>
</svg>
