<svg width="51" height="50" viewBox="0 0 51 50" fill="none" xmlns="http://www.w3.org/2000/svg">
<mask id="mask0_41_205" style="mask-type:alpha" maskUnits="userSpaceOnUse" x="0" y="0" width="51" height="50">
<path fill-rule="evenodd" clip-rule="evenodd" d="M35.6397 49.7863C36.4313 50.0947 37.3339 50.0749 38.1328 49.6904L48.4803 44.7114C49.5676 44.1882 50.2591 43.0878 50.2591 41.8806V8.11957C50.2591 6.91235 49.5677 5.81193 48.4804 5.28873L38.1328 0.309537C37.0843 -0.195007 35.8572 -0.0714253 34.9369 0.597619C34.8054 0.693192 34.6802 0.799902 34.5627 0.917498L14.7536 18.9897L6.12518 12.44C5.32194 11.8303 4.19846 11.8803 3.45246 12.5589L0.685047 15.0762C-0.227448 15.9063 -0.228494 17.3418 0.682785 18.1733L8.16565 25L0.682785 31.8267C-0.228494 32.6581 -0.227448 34.0937 0.685047 34.9238L3.45246 37.4411C4.19846 38.1197 5.32194 38.1697 6.12518 37.56L14.7536 31.0103L34.5627 49.0825C34.876 49.396 35.244 49.6321 35.6397 49.7863ZM37.702 13.5906L22.6714 25L37.702 36.4094V13.5906Z" fill="white"/>
</mask>
<g mask="url(#mask0_41_205)">
<path d="M48.4804 5.29703L38.1248 0.310997C36.9261 -0.266136 35.4936 -0.0226886 34.5529 0.918021L0.652441 31.8273C-0.259396 32.6586 -0.258348 34.0942 0.654703 34.9243L3.4238 37.4417C4.17025 38.1202 5.29443 38.1702 6.09813 37.5605L46.9221 6.59055C48.2918 5.55154 50.2589 6.52838 50.2589 8.24749V8.12727C50.2589 6.92055 49.5676 5.82053 48.4804 5.29703Z" fill="#0065A9"/>
<g filter="url(#filter0_d_41_205)">
<path d="M48.4804 44.7039L38.1248 49.6899C36.9261 50.2672 35.4936 50.0236 34.5529 49.0829L0.652441 18.1737C-0.259396 17.3423 -0.258348 15.9067 0.654703 15.0766L3.4238 12.5593C4.17025 11.8807 5.29443 11.8307 6.09813 12.4404L46.9221 43.4104C48.2918 44.4494 50.2589 43.4725 50.2589 41.7535V41.8737C50.2589 43.0804 49.5676 44.1804 48.4804 44.7039Z" fill="#007ACC"/>
</g>
<g filter="url(#filter1_d_41_205)">
<path d="M38.1251 49.6904C36.926 50.2673 35.4935 50.0233 34.5527 49.0825C35.7119 50.2416 37.6939 49.4207 37.6939 47.7814V2.21863C37.6939 0.579306 35.7119 -0.241674 34.5527 0.9175C35.4935 -0.0232946 36.926 -0.267085 38.1251 0.309537L48.4789 5.28874C49.5668 5.81194 50.2587 6.91236 50.2587 8.11958V41.8806C50.2587 43.0878 49.5668 44.1882 48.4788 44.7114L38.1251 49.6904Z" fill="#1F9CF0"/>
</g>
<g style="mix-blend-mode:overlay" opacity="0.25">
<path fill-rule="evenodd" clip-rule="evenodd" d="M35.6089 49.7863C36.4005 50.0947 37.3032 50.0749 38.1021 49.6905L48.4496 44.7115C49.5369 44.1883 50.2283 43.0878 50.2283 41.8806V8.1196C50.2283 6.91233 49.5369 5.81191 48.4496 5.28871L38.1021 0.309537C37.0536 -0.195007 35.8264 -0.071425 34.9061 0.597615C34.7747 0.693192 34.6494 0.799903 34.5319 0.917499L14.7228 18.9897L6.09441 12.44C5.29122 11.8303 4.1677 11.8803 3.4217 12.5588L0.654286 15.0762C-0.25821 15.9063 -0.259256 17.3418 0.652024 18.1732L8.13488 25L0.652024 31.8268C-0.259256 32.6582 -0.25821 34.0937 0.654286 34.9237L3.4217 37.4411C4.1677 38.1197 5.29122 38.1697 6.09441 37.56L14.7228 31.0103L34.5319 49.0825C34.8453 49.396 35.2132 49.6322 35.6089 49.7863ZM37.6712 13.5906L22.6407 25L37.6712 36.4094V13.5906Z" fill="url(#paint0_linear_41_205)"/>
</g>
</g>
<defs>
<filter id="filter0_d_41_205" x="-8.3641" y="3.68131" width="66.9562" height="54.652" filterUnits="userSpaceOnUse" color-interpolation-filters="sRGB">
<feFlood flood-opacity="0" result="BackgroundImageFix"/>
<feColorMatrix in="SourceAlpha" type="matrix" values="0 0 0 0 0 0 0 0 0 0 0 0 0 0 0 0 0 0 127 0" result="hardAlpha"/>
<feOffset/>
<feGaussianBlur stdDeviation="4.16667"/>
<feColorMatrix type="matrix" values="0 0 0 0 0 0 0 0 0 0 0 0 0 0 0 0 0 0 0.25 0"/>
<feBlend mode="overlay" in2="BackgroundImageFix" result="effect1_dropShadow_41_205"/>
<feBlend mode="normal" in="SourceGraphic" in2="effect1_dropShadow_41_205" result="shape"/>
</filter>
<filter id="filter1_d_41_205" x="26.2194" y="-8.33334" width="32.3727" height="66.6667" filterUnits="userSpaceOnUse" color-interpolation-filters="sRGB">
<feFlood flood-opacity="0" result="BackgroundImageFix"/>
<feColorMatrix in="SourceAlpha" type="matrix" values="0 0 0 0 0 0 0 0 0 0 0 0 0 0 0 0 0 0 127 0" result="hardAlpha"/>
<feOffset/>
<feGaussianBlur stdDeviation="4.16667"/>
<feColorMatrix type="matrix" values="0 0 0 0 0 0 0 0 0 0 0 0 0 0 0 0 0 0 0.25 0"/>
<feBlend mode="overlay" in2="BackgroundImageFix" result="effect1_dropShadow_41_205"/>
<feBlend mode="normal" in="SourceGraphic" in2="effect1_dropShadow_41_205" result="shape"/>
</filter>
<linearGradient id="paint0_linear_41_205" x1="25.0988" y1="-2.84983e-07" x2="25.0988" y2="50" gradientUnits="userSpaceOnUse">
<stop stop-color="white"/>
<stop offset="1" stop-color="white" stop-opacity="0"/>
</linearGradient>
</defs>
</svg>
