<svg width="50" height="63" viewBox="0 0 50 63" fill="none" xmlns="http://www.w3.org/2000/svg">
<g clip-path="url(#clip0_80_460)">
<path d="M25.0016 23.914L12.5413 0L25.0016 6.31585L37.4685 0L25.0016 23.914Z" fill="#FFC20E"/>
<path d="M41.424 18.7251L49.9321 15.0787V2.51562L34.6842 9.05365L26.236 25.2305C32.5487 25.8464 37.4685 31.2294 37.4685 37.7576C37.4685 44.7236 31.8886 50.3468 25.0016 50.3468C18.1146 50.3468 12.5283 44.7236 12.5283 37.7576C12.5283 31.231 17.4626 25.8464 23.7591 25.2305L15.3206 9.05365L0.0728014 2.51562V15.0803L8.57924 18.7267C3.32945 23.3501 0 30.1626 0 37.756C0 51.7011 11.1904 62.9997 25.0016 62.9997C38.8129 62.9997 50 51.7011 50 37.756C50 30.1626 46.6786 23.3501 41.4224 18.7267L41.424 18.7251Z" fill="#FFC20E"/>
</g>
<defs>
<clipPath id="clip0_80_460">
<rect width="50" height="63" fill="white"/>
</clipPath>
</defs>
</svg>
