<svg width="35" height="35" viewBox="0 0 35 35" fill="none" xmlns="http://www.w3.org/2000/svg">
<mask id="mask0_50_82" style="mask-type:alpha" maskUnits="userSpaceOnUse" x="0" y="0" width="35" height="35">
<rect width="34.9135" height="34.9135" fill="#D9D9D9"/>
</mask>
<g mask="url(#mask0_50_82)">
<path d="M17.4574 31.8591C17.2635 31.8591 17.0816 31.8228 16.9119 31.75C16.7422 31.6773 16.5846 31.5682 16.4391 31.4227L8.29263 23.3126C8.02593 23.0459 7.89258 22.7065 7.89258 22.2943C7.89258 21.8821 8.02593 21.5306 8.29263 21.2396C8.58357 20.9487 8.92907 20.8032 9.32912 20.8032C9.72917 20.8032 10.0747 20.9487 10.3656 21.2396L16.0027 26.9131V17.9301C16.0027 17.5179 16.1421 17.1724 16.4209 16.8936C16.6997 16.6148 17.0452 16.4754 17.4574 16.4754C17.8696 16.4754 18.2151 16.6148 18.4939 16.8936C18.7727 17.1724 18.9121 17.5179 18.9121 17.9301V26.9131L24.5856 21.2396C24.8523 20.9729 25.1857 20.8396 25.5857 20.8396C25.9858 20.8396 26.3313 20.985 26.6222 21.276C26.8889 21.5427 27.0223 21.8821 27.0223 22.2943C27.0223 22.7065 26.8889 23.0459 26.6222 23.3126L18.4757 31.4227C18.3303 31.5682 18.1727 31.6773 18.0029 31.75C17.8332 31.8228 17.6514 31.8591 17.4574 31.8591ZM17.4574 13.5659C17.0452 13.5659 16.6997 13.4265 16.4209 13.1477C16.1421 12.8689 16.0027 12.5234 16.0027 12.1112V10.6565C16.0027 10.2443 16.1421 9.89879 16.4209 9.61996C16.6997 9.34114 17.0452 9.20173 17.4574 9.20173C17.8696 9.20173 18.2151 9.34114 18.4939 9.61996C18.7727 9.89879 18.9121 10.2443 18.9121 10.6565V12.1112C18.9121 12.5234 18.7727 12.8689 18.4939 13.1477C18.2151 13.4265 17.8696 13.5659 17.4574 13.5659ZM17.4574 6.29227C17.0452 6.29227 16.6997 6.15286 16.4209 5.87404C16.1421 5.59521 16.0027 5.24971 16.0027 4.83754C16.0027 4.42537 16.1421 4.07987 16.4209 3.80105C16.6997 3.52222 17.0452 3.38281 17.4574 3.38281C17.8696 3.38281 18.2151 3.52222 18.4939 3.80105C18.7727 4.07987 18.9121 4.42537 18.9121 4.83754C18.9121 5.24971 18.7727 5.59521 18.4939 5.87404C18.2151 6.15286 17.8696 6.29227 17.4574 6.29227Z" fill="white"/>
</g>
</svg>
