<svg width="145" height="146" viewBox="0 0 145 146" fill="none" xmlns="http://www.w3.org/2000/svg">
<path d="M78.4288 9.10585C78.3727 11.01 76.9058 12.4074 74.3719 12.3327C71.823 12.2575 70.4411 10.7761 70.4973 8.87193L70.5065 8.55707L71.796 8.5951L71.7863 8.92495C71.7487 10.1994 72.7108 11.1582 74.4051 11.2081C76.0694 11.2572 77.1013 10.3573 77.1389 9.08282C77.1712 7.98829 76.505 7.1733 74.9849 6.81333L73.4798 6.45381C71.6617 6.02502 70.6118 4.98862 70.6631 3.24938C70.7144 1.51013 72.0463 0.108788 74.5052 0.181308C76.9491 0.253386 78.2111 1.73123 78.1598 3.47047L78.1532 3.69538L76.8488 3.65691L76.8554 3.432C76.8912 2.21753 76.0459 1.36724 74.4716 1.32081C72.8973 1.27438 71.9883 2.07293 71.9525 3.28741C71.9198 4.39692 72.5914 5.032 73.9174 5.35623L75.4224 5.71575C77.4637 6.21115 78.481 7.33662 78.4288 9.10585ZM84.1467 13.4813C80.7317 12.8119 80.2767 9.98666 80.9288 6.65996C81.5751 3.36271 83.0835 0.891724 86.4838 1.55823C89.104 2.07181 90.2938 3.95585 89.9707 6.38405L88.7048 6.13592C88.9185 4.34356 88.1192 3.04048 86.2645 2.67694C83.8358 2.20086 82.7893 3.95229 82.2094 6.91098C81.6092 9.97272 82.0256 11.9039 84.366 12.3626C86.2207 12.7262 87.4499 11.836 87.9286 10.0956L89.1945 10.3437C88.577 12.7142 86.7669 13.9949 84.1467 13.4813ZM97.9401 17.5744L96.7053 17.1081C96.7218 16.8097 96.7822 16.4797 96.9131 16.0482C97.665 13.5903 98.0621 12.666 95.7748 11.8022L93.1226 10.8006L91.4851 15.1367L90.2643 14.6757L94.419 3.67403L98.5867 5.24795C100.888 6.11705 101.564 7.76714 100.79 9.81592C100.234 11.2893 99.2011 12.07 97.7075 11.9067C98.7787 12.5518 99.0435 13.4214 98.6099 14.9092C98.3303 15.8618 97.9803 16.9162 97.9401 17.5744ZM93.5254 9.73412L96.3179 10.7887C97.8334 11.361 98.9562 10.9353 99.5286 9.41973C100.106 7.89017 99.5451 6.82847 98.0296 6.25614L95.2371 5.20156L93.5254 9.73412ZM109.946 17.7123C108.213 20.6434 106.002 22.4379 102.994 20.6592C100.011 18.8958 100.513 16.073 102.238 13.1549C103.94 10.2755 106.182 8.42931 109.177 10.2004C112.212 11.9943 111.656 14.82 109.946 17.7123ZM108.836 17.0558C110.37 14.4605 110.715 12.4337 108.597 11.1817C106.492 9.93737 104.903 11.2108 103.361 13.819C101.811 16.4402 101.456 18.4259 103.574 19.6779C105.705 20.9375 107.294 19.6641 108.836 17.0558ZM108.546 23.9212L116.011 14.8339L117.019 15.6622L110.269 23.8802L114.569 27.4125L113.855 28.2818L108.546 23.9212ZM114.819 29.2747L123.436 21.2713L124.324 22.2275L116.532 29.4653L120.319 33.5427L119.495 34.3083L114.819 29.2747ZM131.539 42.268C134.176 40.7457 135.255 39.2228 134.04 37.1183L132.69 34.7799L124.48 39.5193L125.829 41.8577C127.052 43.9752 128.889 43.7978 131.539 42.268ZM124.895 42.5185L122.84 38.959L133.025 33.0798L135.079 36.6393C136.879 39.7571 134.868 41.8534 132.192 43.3982C129.503 44.9505 126.702 45.6493 124.895 42.5185ZM136.386 54.1938C133.188 55.3642 130.34 55.3524 129.139 52.0703C127.948 48.8165 130.124 46.9498 133.307 45.7845C136.449 44.6346 139.353 44.6259 140.549 47.8938C141.76 51.204 139.541 53.0388 136.386 54.1938ZM135.942 52.9824C138.773 51.946 140.324 50.5958 139.478 48.2857C138.638 45.9897 136.601 45.9684 133.756 47.0099C130.897 48.0566 129.364 49.3684 130.21 51.6785C131.06 54.0026 133.097 54.0239 135.942 52.9824ZM132.752 68.8496L132.538 67.3044L141.684 63.2523L131.779 61.8216L131.565 60.2763L142.77 55.4547L142.955 56.792L133.478 60.8596L143.72 62.3193L143.897 63.5971L134.437 67.7836L144.662 69.1244L144.847 70.4617L132.752 68.8496ZM132.545 81.5601L132.64 80.2587L142.411 75.4277L133.047 74.7386L133.142 73.4371L144.871 74.3002L144.775 75.6017L135.004 80.4326L144.369 81.1217L144.273 82.4232L132.545 81.5601ZM122.955 112.206C121.377 111.14 120.982 109.153 122.402 107.052C123.83 104.94 125.821 104.566 127.399 105.633L127.66 105.809L126.937 106.878L126.664 106.693C125.608 105.979 124.283 106.278 123.334 107.682C122.401 109.062 122.609 110.415 123.665 111.129C124.572 111.743 125.617 111.616 126.735 110.525L127.845 109.446C129.18 108.14 130.618 107.809 132.059 108.783C133.501 109.758 133.971 111.633 132.593 113.671C131.224 115.696 129.3 115.971 127.859 114.996L127.672 114.87L128.403 113.789L128.589 113.915C129.596 114.596 130.767 114.337 131.649 113.032C132.531 111.727 132.343 110.532 131.337 109.852C130.417 109.23 129.521 109.457 128.537 110.404L127.428 111.482C125.917 112.941 124.421 113.198 122.955 112.206ZM116.207 114.699C118.595 112.168 121.228 113.291 123.693 115.618C126.137 117.924 127.422 120.518 125.044 123.038C123.211 124.98 120.983 124.981 119.102 123.412L119.987 122.474C121.389 123.611 122.917 123.63 124.215 122.256C125.913 120.456 124.99 118.636 122.798 116.567C120.528 114.426 118.673 113.747 117.036 115.482C115.739 116.856 115.836 118.371 117.052 119.705L116.167 120.643C114.492 118.856 114.375 116.641 116.207 114.699ZM105.385 124.18L106.438 123.385C106.682 123.558 106.929 123.785 107.224 124.126C108.901 126.074 109.471 126.903 111.422 125.43L113.684 123.721L110.891 120.022L111.933 119.236L119.02 128.621L115.464 131.305C113.501 132.788 111.745 132.479 110.425 130.731C109.476 129.474 109.367 128.184 110.302 127.008C109.185 127.57 108.308 127.33 107.281 126.169C106.625 125.424 105.92 124.566 105.385 124.18ZM114.371 124.631L111.989 126.43C110.697 127.406 110.457 128.583 111.434 129.876C112.419 131.18 113.616 131.272 114.909 130.296L117.291 128.497L114.371 124.631ZM98.8968 134.283C97.3316 131.259 96.9835 128.432 100.087 126.826C103.165 125.233 105.291 127.156 106.85 130.166C108.387 133.137 108.763 136.016 105.672 137.616C102.542 139.236 100.441 137.267 98.8968 134.283ZM100.042 133.69C101.428 136.367 102.964 137.734 105.148 136.604C107.32 135.48 107.083 133.457 105.691 130.766C104.291 128.062 102.796 126.707 100.611 127.838C98.4133 128.976 98.6496 130.999 100.042 133.69ZM94.3764 129.8L98.101 140.955L96.8632 141.368L93.4949 131.28L88.2164 133.043L87.8601 131.976L94.3764 129.8ZM86.5038 132.258L88.6281 143.824L87.3446 144.06L85.4235 133.6L79.95 134.605L79.7468 133.499L86.5038 132.258ZM66.5649 139.4C66.4327 142.442 67.1384 144.169 69.5661 144.275L72.2635 144.392L72.6752 134.921L69.9777 134.804C67.535 134.698 66.6978 136.343 66.5649 139.4ZM69.9223 133.66L74.0284 133.839L73.5178 145.588L69.4117 145.409C65.8151 145.253 65.127 142.43 65.2612 139.343C65.396 136.241 66.3107 133.503 69.9223 133.66ZM53.9111 137.11C54.6328 133.782 56.1663 131.383 59.5819 132.123C62.9681 132.858 63.3811 135.695 62.6626 139.008C61.9535 142.277 60.4073 144.735 57.0064 143.997C53.5615 143.25 53.1988 140.393 53.9111 137.11ZM55.1717 137.383C54.5326 140.33 54.8439 142.362 57.248 142.883C59.6375 143.402 60.7449 141.692 61.3872 138.731C62.0327 135.756 61.7443 133.759 59.3402 133.238C56.9215 132.713 55.814 134.422 55.1717 137.383ZM43.5034 126.132L44.9194 126.787L43.3897 136.672L49.9434 129.109L51.3594 129.764L49.3653 141.798L48.1399 141.231L49.8353 131.059L43.075 138.89L41.9041 138.348L43.4906 128.126L36.8392 136.007L35.6138 135.44L43.5034 126.132ZM32.9357 119.069L33.9768 119.856L32.7316 130.685L38.3928 123.193L39.4339 123.98L32.3439 133.362L31.3028 132.575L32.548 121.747L26.8868 129.238L25.8457 128.452L32.9357 119.069ZM12.3969 94.3825C14.1495 93.636 16.0327 94.3827 17.0262 96.7149C18.0255 99.0609 17.2591 100.936 15.5065 101.683L15.2167 101.806L14.7112 100.619L15.0148 100.49C16.1878 99.9905 16.6554 98.7152 15.9912 97.1558C15.3387 95.624 14.0892 95.0638 12.9162 95.5635C11.9088 95.9926 11.4478 96.9389 11.7576 98.47L12.0615 99.9873C12.4336 101.818 11.9322 103.205 10.3314 103.887C8.7306 104.569 6.90024 103.947 5.9362 101.683C4.97803 99.4339 5.79143 97.669 7.39226 96.9871L7.59926 96.8989L8.11067 98.0995L7.90367 98.1877C6.78585 98.6639 6.36779 99.7876 6.98501 101.237C7.60223 102.686 8.70807 103.177 9.82588 102.7C10.8471 102.265 11.1425 101.39 10.8815 100.05L10.5776 98.5324C10.1725 96.4713 10.7684 95.0762 12.3969 94.3825ZM13.9631 87.3624C14.794 90.7417 12.4231 92.3442 9.13118 93.1537C5.86837 93.956 2.99193 93.6284 2.16454 90.2636C1.52699 87.6709 2.73479 85.7983 5.07325 85.0688L5.38128 86.3215C3.66558 86.8824 2.82027 88.1561 3.27157 89.9914C3.86256 92.3948 5.89178 92.6064 8.81956 91.8865C11.8493 91.1415 13.4256 89.9506 12.8561 87.6346C12.4048 85.7993 11.0797 85.0593 9.29956 85.358L8.99153 84.1053C11.4016 83.6672 13.3255 84.7697 13.9631 87.3624ZM11.8745 73.1271L11.9705 74.4436C11.6928 74.554 11.368 74.6379 10.9214 74.7005C8.37517 75.0515 7.36955 75.0797 7.5473 77.5183L7.7534 80.3458L12.3761 80.0088L12.471 81.3103L0.742125 82.1653L0.418254 77.7221C0.239416 75.2686 1.45263 73.9619 3.63684 73.8027C5.20767 73.6882 6.34994 74.2968 6.82972 75.7207C6.96471 74.4776 7.64245 73.8717 9.17464 73.6397C10.1566 73.4929 11.2604 73.3673 11.8745 73.1271ZM6.61642 80.4286L6.39941 77.4515C6.28164 75.8358 5.42332 74.996 3.8076 75.1138C2.17693 75.2326 1.44946 76.188 1.56723 77.8038L1.78424 80.7809L6.61642 80.4286ZM6.88491 62.2062C10.275 62.5242 12.8409 63.7592 12.5146 67.2389C12.191 70.6888 9.4239 71.4386 6.04871 71.1221C2.71833 70.8098 0.0926998 69.5692 0.417653 66.1044C0.746807 62.5948 3.53959 61.8925 6.88491 62.2062ZM6.76445 63.4906C3.76262 63.2091 1.78238 63.7616 1.55267 66.2108C1.32436 68.6451 3.15381 69.5399 6.17057 69.8228C9.20227 70.1071 11.1498 69.5817 11.3795 67.1324C11.6107 64.6683 9.78121 63.7735 6.76445 63.4906ZM13.0981 60.8248L1.69568 57.9468L2.01505 56.6815L12.3267 59.2842L13.6886 53.8884L14.7794 54.1637L13.0981 60.8248ZM15.2674 52.8685L4.35849 48.4761L4.84592 47.2655L14.7112 51.2377L16.7898 46.0755L17.8334 46.4957L15.2674 52.8685ZM19.9139 32.2028C17.4168 30.4602 15.5804 30.1298 14.1898 32.1226L12.6447 34.3367L20.4188 39.7619L21.964 37.5477C23.3632 35.5427 22.4233 33.9539 19.9139 32.2028ZM22.9589 38.114L20.6069 41.4845L10.963 34.7545L13.315 31.3841C15.3752 28.4318 18.1267 29.3642 20.6607 31.1326C23.207 32.9095 25.0277 35.1495 22.9589 38.114ZM28.6255 22.7475C31.0488 25.1395 32.2535 27.7198 29.7983 30.2071C27.3641 32.6731 24.7473 31.5021 22.3346 29.1207C19.9541 26.7708 18.7066 24.1484 21.1514 21.6717C23.6277 19.1631 26.2343 20.3871 28.6255 22.7475ZM27.7193 23.6656C25.5736 21.5476 23.6908 20.7218 21.9627 22.4726C20.2451 24.2127 21.095 26.0633 23.2514 28.1919C25.4185 30.331 27.2588 31.157 28.987 29.4063C30.7257 27.6449 29.8757 25.7942 27.7193 23.6656ZM43.4352 19.7861L42.1284 20.638L34.5653 14.0908L37.4917 23.6608L36.1849 24.5128L27.0483 16.4308L28.1792 15.6936L35.8973 22.5336L32.8536 12.6462L33.9342 11.9417L41.7529 18.7162L38.6086 8.8943L39.7395 8.15703L43.4352 19.7861ZM55.0399 14.6047L53.8192 15.066L45.322 8.23913L48.6416 17.0228L47.4209 17.4841L43.2635 6.48352L44.4842 6.02217L52.9813 12.8491L49.6618 4.06543L50.8825 3.60408L55.0399 14.6047Z" fill="white"/>
</svg>
