<svg width="296" height="358" viewBox="0 0 296 358" fill="none" xmlns="http://www.w3.org/2000/svg">
<g opacity="0.6" clip-path="url(#clip0_48_40)">
<path d="M269.651 80.1547L269.102 80.0325C257.087 77.0389 245.01 74.5341 232.933 72.518C231.714 72.3348 230.616 73.2512 230.616 74.473V93.6563C230.616 96.8943 227.81 99.3991 224.577 99.0936C206.34 97.0775 188.042 95.7335 169.744 95.1837V68.1804C169.744 66.8364 168.708 65.7367 167.366 65.7367C163.706 65.6145 156.326 65.3701 148.092 65.3701C139.858 65.3701 132.478 65.6145 128.818 65.7367C127.476 65.7367 126.439 66.8975 126.439 68.1804V95.1837C108.568 95.7335 90.6972 97.0165 72.8872 98.9104C72.4603 98.9104 71.9723 99.0325 71.5454 99.0325C68.3737 99.3991 65.568 96.8943 65.568 93.7174V75.084C65.568 73.5566 64.1652 72.3959 62.7014 72.6402C50.7467 74.6563 38.914 77.1611 27.0813 80.0936L26.5324 80.2158C25.4345 80.4602 24.6416 81.4988 24.6416 82.5984V152.55C24.6416 165.563 25.9835 178.332 28.5452 190.856C30.314 199.592 32.6927 208.206 35.5594 216.576C45.6843 248.406 64.4092 276.57 89.3554 297.769C106.372 312.981 126.256 325.078 148.153 332.898C170.049 325.078 189.872 313.042 206.95 297.769C231.896 276.57 250.621 248.406 260.746 216.576C263.674 208.206 265.992 199.653 267.76 190.856C270.322 178.393 271.603 165.563 271.664 152.55V82.5984C271.664 81.4377 270.871 80.4602 269.773 80.2158L269.651 80.1547ZM69.5936 190.123C65.873 172.955 65.3851 163.242 65.3851 140.759C83.988 138.499 100.944 137.216 119.913 136.422C111.13 160.737 93.8689 181.142 69.5936 190.184V190.123ZM147.97 289.46C124 280.174 101.737 262.824 84.6589 231.055C109.727 221.464 131.99 203.38 147.97 176.071C163.95 203.38 186.213 221.464 211.281 231.055C194.142 262.824 171.879 280.174 147.97 289.46ZM226.407 190.123C202.193 181.142 184.871 160.737 176.027 136.361C195.057 137.155 211.952 138.438 230.616 140.698C230.616 163.181 230.128 172.894 226.407 190.062V190.123Z" fill="white" fill-opacity="0.1"/>
<path d="M42.268 61.3373C38.3035 55.9611 34.2779 50.646 30.3134 45.3309V64.0865C28.3616 64.5753 26.4098 65.064 24.458 65.5528V35.0061C26.2268 34.5784 27.9346 34.1508 29.7034 33.662C33.668 38.9161 37.6325 44.2312 41.6581 49.6074V30.9128C43.6099 30.4852 45.5617 30.0575 47.5744 29.6299V60.1765C45.8056 60.5431 44.0368 60.9097 42.329 61.2762L42.268 61.3373Z" fill="white" fill-opacity="0.1"/>
<path d="M71.4843 52.8459C69.3495 55.3507 66.7268 56.9391 63.2502 57.5501C59.7736 58.161 57.1509 57.4279 55.0161 55.7173C51.9664 53.2125 52.0274 49.3636 52.0274 44.1096C52.0274 38.8555 51.9664 35.0066 55.0161 31.341C57.1509 28.7751 59.7736 27.1256 63.2502 26.5147C66.7268 25.9037 69.2885 26.698 71.4843 28.5308C74.5339 31.1578 74.5339 34.9456 74.5339 40.2607C74.5339 45.5758 74.5339 49.3636 71.4843 52.907V52.8459ZM67.0928 32.7462C66.2389 31.8909 64.897 31.4632 63.3112 31.7687C61.6644 32.0742 60.3225 32.9295 59.4686 34.0902C58.3097 35.6176 58.0048 37.0838 58.0048 42.9488C58.0048 48.8137 58.3097 50.1578 59.4686 51.2575C60.3225 52.1128 61.6644 52.4793 63.3112 52.235C64.958 51.9295 66.2389 51.0742 67.0928 49.9745C68.2516 48.5083 68.6176 47.042 68.6176 41.1771C68.6176 35.3121 68.2516 33.907 67.0928 32.8684V32.7462Z" fill="white" fill-opacity="0.1"/>
<path d="M90.0261 53.3954C88.5623 53.5786 87.0375 53.7619 85.5736 53.9452C82.219 44.1703 78.8644 34.4564 75.5098 24.8037C77.5835 24.4982 79.5963 24.1928 81.6701 23.9484C83.6829 30.3021 85.7566 36.6558 87.8304 43.0706C89.9042 36.167 91.9169 29.3246 93.9907 22.4211C96.0645 22.1767 98.1382 21.9934 100.212 21.749C96.7964 32.2571 93.4418 42.8262 90.0871 53.3954H90.0261Z" fill="white" fill-opacity="0.1"/>
<path d="M117.778 50.8906C117.168 49.1189 116.558 47.3472 115.948 45.5755C112.289 45.8199 108.69 46.0642 105.031 46.4308C104.421 48.2636 103.811 50.1575 103.201 51.9903C101.127 52.1736 99.0533 52.3568 96.9795 52.6012C100.7 42.0321 104.421 31.524 108.141 21.016C109.727 20.8938 111.252 20.7716 112.838 20.6494C116.558 30.5465 120.279 40.5047 124.06 50.524C121.987 50.6462 119.913 50.7684 117.778 50.8906ZM110.642 29.8134C109.361 33.6012 108.08 37.4501 106.738 41.2379C109.3 41.0546 111.801 40.8102 114.363 40.688C113.143 37.0835 111.862 33.479 110.642 29.8134Z" fill="white" fill-opacity="0.1"/>
<path d="M154.923 50.0355C154.313 48.2027 153.703 46.431 153.093 44.5982C149.434 44.5982 145.835 44.5982 142.176 44.5982C141.566 46.431 140.956 48.2027 140.346 50.0355C138.272 50.0355 136.198 50.0966 134.063 50.1577C137.784 39.894 141.505 29.6303 145.225 19.4277C146.811 19.4277 148.336 19.4277 149.922 19.4277C153.642 29.6303 157.424 39.894 161.144 50.1577C159.071 50.1577 156.997 50.0355 154.862 50.0355H154.923ZM147.787 28.4085C146.506 32.1351 145.225 35.8007 143.883 39.5274C146.445 39.5274 149.007 39.5274 151.508 39.5274C150.227 35.8007 149.007 32.1351 147.726 28.4085H147.787Z" fill="white" fill-opacity="0.1"/>
<path d="M176.026 39.2828C174.075 39.1606 172.062 39.0996 170.11 38.9774V50.4629C168.097 50.4018 166.085 50.2796 164.133 50.2185V19.6719C168.097 19.7941 172.062 19.9773 176.026 20.2217C182.37 20.5883 186.151 25.2314 186.151 30.4243C186.151 35.6172 182.37 39.6494 176.026 39.2828ZM175.722 25.5368C173.831 25.4146 172.001 25.3536 170.11 25.2314V33.6012C172.001 33.6622 173.831 33.7844 175.722 33.9066C178.466 34.0899 180.174 32.5015 180.174 29.9966C180.174 27.4918 178.466 25.659 175.722 25.5368Z" fill="white" fill-opacity="0.1"/>
<path d="M189.75 51.7459V21.1992C196.459 21.7491 203.229 22.4822 209.939 23.3375V28.6526C205.242 28.0417 200.485 27.5529 195.727 27.0642V34.2121C199.753 34.5787 203.778 35.0674 207.804 35.5561V40.8713C203.778 40.3825 199.753 39.9549 195.727 39.5272V46.9806C200.485 47.4083 205.181 47.9581 209.939 48.569V53.8841C203.229 53.0288 196.52 52.3568 189.75 51.7459Z" fill="white" fill-opacity="0.1"/>
<path d="M230.249 56.8166C228.297 52.4178 226.285 48.0191 224.333 43.6815C222.93 43.4371 221.466 43.2538 220.063 43.0095V55.167C218.051 54.8616 216.099 54.6172 214.086 54.3117V23.8262C218.05 24.376 222.076 24.9259 226.041 25.5979C232.262 26.5754 235.922 31.5239 235.922 36.6558C235.922 40.9323 233.299 43.1317 230.371 43.6815C232.628 48.4468 234.885 53.2731 237.141 58.0384C234.885 57.6108 232.567 57.2442 230.249 56.8166ZM225.675 30.8519C223.784 30.5464 221.954 30.241 220.063 29.9966V38.0609C221.954 38.3053 223.784 38.6108 225.675 38.9162C228.297 39.3439 230.005 37.9387 230.005 35.6172C230.005 33.2956 228.297 31.2796 225.675 30.8519Z" fill="white" fill-opacity="0.1"/>
<path d="M239.765 58.5271V27.9805C241.716 28.347 243.729 28.7136 245.681 29.1412V59.6879C243.729 59.3213 241.716 58.8937 239.765 58.5271Z" fill="white" fill-opacity="0.1"/>
<path d="M268.492 61.7657C266.357 63.4153 263.795 63.9651 260.38 63.1709C256.964 62.3767 254.341 60.605 252.207 57.9779C249.157 54.2513 249.218 50.4635 249.218 45.1483C249.218 39.8943 249.157 36.0454 252.207 33.6017C254.341 31.8911 256.964 31.2802 260.38 32.0744C263.795 32.8686 266.357 34.7014 268.492 37.3895C271.541 41.2384 271.48 45.0873 271.48 50.3413C271.48 55.5953 271.48 59.4442 268.492 61.7657ZM264.161 39.8943C263.307 38.6725 262.026 37.7561 260.38 37.3895C258.794 37.0229 257.391 37.3895 256.598 38.1226C255.439 39.1612 255.134 40.5053 255.134 46.3702C255.134 52.2352 255.439 53.7014 256.598 55.2898C257.452 56.4506 258.794 57.4281 260.38 57.7947C261.965 58.1612 263.307 57.7947 264.161 57.0615C265.32 56.023 265.625 54.74 265.625 48.8139C265.625 42.8879 265.259 41.4217 264.161 39.8943Z" fill="white" fill-opacity="0.1"/>
<path d="M124.365 252.437V235.27L120.034 239.058V234.842L124.365 231.055H128.268V252.437H124.365Z" fill="white" fill-opacity="0.1"/>
<path d="M144.554 243.151L140.04 252.377H135.832L140.284 243.579C139.796 243.762 139.186 243.823 138.698 243.823C135.832 243.823 133.087 241.441 133.087 237.47C133.087 233.254 135.954 230.811 139.735 230.811C143.517 230.811 146.383 233.193 146.383 237.409C146.383 239.364 145.591 241.135 144.615 243.09L144.554 243.151ZM139.674 234.354C138.088 234.354 136.929 235.515 136.929 237.47C136.929 239.425 138.027 240.585 139.674 240.585C141.321 240.585 142.419 239.425 142.419 237.47C142.419 235.515 141.26 234.354 139.674 234.354Z" fill="white" fill-opacity="0.1"/>
<path d="M160.412 250.849C159.436 251.827 157.911 252.56 155.716 252.56C153.52 252.56 151.873 251.766 150.958 250.849C149.616 249.505 149.311 247.978 149.189 246.39H153.093C153.337 248.1 154.069 249.017 155.716 249.017C156.448 249.017 157.119 248.833 157.546 248.345C158.216 247.673 158.399 246.512 158.399 245.168C158.399 242.724 157.668 241.319 155.777 241.319C154.191 241.319 153.459 242.235 153.215 243.091H149.677V230.994H161.815V234.538H153.154V239.12C153.703 238.57 154.923 238.02 156.387 238.02C158.155 238.02 159.497 238.57 160.351 239.486C161.998 241.197 162.242 243.152 162.242 245.168C162.242 247.55 161.937 249.261 160.351 250.788L160.412 250.849Z" fill="white" fill-opacity="0.1"/>
<path d="M170.232 252.437V235.27L165.901 239.058V234.842L170.232 231.055H174.135V252.437H170.232Z" fill="white" fill-opacity="0.1"/>
<path d="M295.146 21.6881C294.17 21.3827 293.194 21.0772 292.218 20.8328C245.986 7.14792 198.045 0.18328 149.677 0C149.128 0 148.518 0 147.97 0C147.421 0 146.811 0 146.262 0C97.8941 0.18328 49.9534 7.14792 3.78158 20.8328C2.80569 21.1383 1.8298 21.3827 0.853905 21.6881L0 21.9325V152.855C0 243.823 55.9918 324.833 139.247 354.586L147.543 357.457L147.909 357.579L148.274 357.457L156.57 354.586C239.886 324.894 295.817 243.823 295.817 152.855V21.9325L294.963 21.6881H295.146ZM147.97 353.18L140.65 350.676C58.9804 321.595 4.14754 242.113 4.14754 152.855V25.0483C46.9038 12.3409 91.0019 5.37621 135.283 4.27653C143.761 4.09325 152.239 4.09325 160.717 4.27653C204.998 5.37621 249.096 12.2798 291.852 24.9872V152.855C291.852 242.052 236.959 321.534 155.35 350.676L147.97 353.18Z" fill="white" fill-opacity="0.1"/>
</g>
<defs>
<clipPath id="clip0_48_40">
<rect width="296" height="357.579" fill="white"/>
</clipPath>
</defs>
</svg>
